<?xml version="1.0" standalone="no"?>
<!DOCTYPE svg PUBLIC "-//W3C//DTD SVG 1.1//EN" "http://www.w3.org/Graphics/SVG/1.1/DTD/svg11.dtd" >
<svg xmlns="http://www.w3.org/2000/svg" xmlns:xlink="http://www.w3.org/1999/xlink" version="1.1">
<metadata>
Created by FontForge 20200427 at Fri Mar 20 23:00:21 2015
 By www
Copyright (c) 2007-2015 by Javier Quintana Godoy &#38; the PampaType foundry.
</metadata>
<defs>
<font id="BerenjenaW03-Blanca" horiz-adv-x="550" >
  <font-face 
    font-family="BerenjenaW03-Blanca"
    font-weight="300"
    font-stretch="normal"
    units-per-em="1000"
    panose-1="2 3 0 2 7 4 8 0 0 2"
    ascent="800"
    descent="-200"
    x-height="427"
    cap-height="680"
    bbox="-250 -293 1357 997"
    underline-thickness="50"
    underline-position="-125"
    unicode-range="U+000D-FB06"
  />
<missing-glyph 
d="M490 0h-430v730h430v-730zM425 695h-300l150 -287zM100 73l153 292l-153 292v-584zM450 657l-153 -292l153 -292v584zM425 35l-150 287l-150 -287h300z" />
    <glyph glyph-name="Yacute" unicode="&#xb4;Y" horiz-adv-x="622" 
d="M268 740q37 18 62.5 40.5t41.5 45t22.5 41.5t6.5 30q18 0 27.5 -10.5t9.5 -27.5q0 -36 -39.5 -74.5t-118.5 -71.5zM-35 680q27 -2 64.5 -3t81.5 -1t82.5 1t67.5 3l15 -27q-23 0 -45 -1.5t-39.5 -4t-28 -6t-10.5 -8.5t10 -26t26 -50.5t36 -64t40 -67.5t37.5 -61t28.5 -44
q8 11 24.5 37t36.5 58.5t41 68t38 66.5t28 53t11 29q0 5 -10.5 9t-27.5 6.5t-39 4t-46 1.5l15 27q18 -1 38 -2t38.5 -1.5t35 -0.5h26.5q20 0 51.5 1t65.5 3l15 -27q-38 0 -68.5 -5.5t-43.5 -11.5q-4 -7 -16 -28.5t-29.5 -51t-38.5 -64.5t-42 -70.5t-41.5 -69t-35.5 -58.5
q-1 -11 -1.5 -26.5t-1 -33t-0.5 -34.5v-30q0 -45 2.5 -78.5t5.5 -58.5q17 -6 52.5 -9t72.5 -3l-17 -25l-153 4l-155 -4l-17 25q37 0 72.5 3t52.5 9q3 25 5.5 58.5t2.5 82.5q0 27 -1 59.5t-3 50.5l-213 352q-14 7 -44 12t-67 5z" />
    <glyph glyph-name="yacute" unicode="&#xb4;y" horiz-adv-x="499" 
d="M153 504q58 32 92 66t51.5 63.5t22.5 50.5t5 27q22 0 33.5 -12t11.5 -32q0 -25 -15 -50.5t-41.5 -49.5t-63.5 -47t-81 -42zM-12 427q15 -2 44 -4.5t67 -2.5t67.5 2.5t43.5 4.5l15 -26q-52 0 -70 -4t-18 -12q0 -14 32.5 -101t94.5 -233q0 9 0.5 17t2.5 12q7 18 17.5 45.5
t22.5 58.5t24 63t21.5 59.5t15.5 48t6 28.5q0 10 -15 14t-62 4l20 26q27 -4 50 -5.5t43 -1.5t45 1.5t45 5.5l11 -26q-35 0 -57.5 -4.5t-26.5 -12.5l-191 -487q-23 -60 -58 -95t-92 -35q-40 0 -66.5 18.5t-26.5 54.5q0 26 14 40t34 14q13 0 21 -5t12 -12q-8 -6 -13 -14.5
t-5 -20.5q0 -17 11 -27t34 -10q12 0 25 4t26.5 17t27.5 36.5t28 61.5l21 56l-171 397q-5 13 -25 18.5t-60 5.5z" />
    <glyph glyph-name="Itilde" unicode="&#x7e;I" horiz-adv-x="394" 
d="M276 861q4 6 14 6q17 0 27.5 -15t10.5 -35q0 -30 -16.5 -47t-48.5 -17q-15 0 -34.5 4.5t-38.5 10t-36.5 10t-28.5 4.5q-14 0 -21.5 -8t-7.5 -22q0 -11 4 -19t9 -13q-2 -2 -5.5 -3.5t-9.5 -1.5q-15 0 -26 13t-11 36q0 29 16.5 46.5t45.5 17.5q13 0 32.5 -4.5t39 -9.5
t38 -9.5t30.5 -4.5q16 0 23.5 8.5t7.5 20.5q0 11 -4.5 19.5t-9.5 12.5zM30 653q30 0 51 -2t35 -5t22.5 -6t13.5 -4q2 -16 4 -48t3 -74.5t1.5 -92.5t0.5 -101q0 -69 -1.5 -117.5t-3 -82.5t-3 -54.5t-2.5 -32.5q-9 -3 -38 -7.5t-77 -4.5l17 -25l140 4l148 -4l17 25
q-57 0 -81.5 4.5t-33.5 7.5q-1 13 -2.5 35t-3 56t-3 82t-1.5 114q0 51 0.5 101t1 92.5t2.5 74.5t5 48q11 3 38 10t84 7l-15 27q-14 -1 -27 -1.5t-30 -1t-40 -1t-55 -0.5q-54 0 -92 1t-60 3z" />
    <glyph glyph-name="itilde" unicode="&#x7e;i" horiz-adv-x="305" 
d="M223 669q4 6 14 6q17 0 27.5 -15t10.5 -35q0 -30 -16.5 -47t-48.5 -17q-15 0 -34.5 4.5t-38.5 10t-36.5 10t-28.5 4.5q-14 0 -21.5 -8t-7.5 -22q0 -11 4 -19t9 -13q-2 -2 -5.5 -3.5t-9.5 -1.5q-15 0 -26 13t-11 36q0 29 16.5 46.5t45.5 17.5q13 0 32.5 -4.5t39 -9.5
t38 -9.5t30.5 -4.5q16 0 23.5 8.5t7.5 20.5q0 11 -4.5 19.5t-9.5 12.5zM59 401q31 0 54.5 6.5t39 16t23.5 20t8 18.5l18 -14q-3 -30 -8 -89.5t-5 -156.5q0 -38 1 -66.5t2 -49t2 -34.5t2 -23q8 -2 28 -5t51 -3l-17 -25l-99 4l-104 -4l-17 25q30 0 48.5 2.5t30.5 5.5
q1 11 2.5 25t2.5 34t1.5 48t0.5 66q0 66 -1 103t-3 54q-6 5 -23 12t-49 7z" />
    <glyph glyph-name="Utilde" unicode="&#x7e;U" horiz-adv-x="745" 
d="M469 861q4 6 14 6q17 0 27.5 -15t10.5 -35q0 -30 -16.5 -47t-48.5 -17q-15 0 -34.5 4.5t-38.5 10t-36.5 10t-28.5 4.5q-14 0 -21.5 -8t-7.5 -22q0 -11 4 -19t9 -13q-2 -2 -5.5 -3.5t-9.5 -1.5q-15 0 -26 13t-11 36q0 29 16.5 46.5t45.5 17.5q13 0 32.5 -4.5t39 -9.5
t38 -9.5t30.5 -4.5q16 0 23.5 8.5t7.5 20.5q0 11 -4.5 19.5t-9.5 12.5zM-10 653q42 0 74.5 -5t47.5 -12q0 -21 3.5 -120.5t3.5 -289.5q0 -67 13 -113.5t43 -76t78 -42.5t118 -13q79 0 129 17t78.5 52.5t38.5 88.5t10 125q0 78 0.5 138.5t1.5 105.5t2 76.5t2 51.5
q17 8 49.5 12.5t72.5 4.5l-15 27q-23 -2 -58 -3t-78 -1q-44 0 -78 1t-54 3l-15 -27q43 0 75 -5.5t47 -11.5q1 -26 2 -68.5t2 -93.5t1.5 -106t0.5 -106q0 -64 -9 -109.5t-31.5 -75t-62.5 -43t-101 -13.5q-45 0 -78.5 11t-56 36.5t-34 66.5t-11.5 100q0 99 1 169.5t2 118.5
t2 75t1 38q9 4 23 7.5t30.5 5.5t34.5 3t34 1l-15 27q-26 -2 -66.5 -3t-91.5 -1t-89.5 1t-61.5 3z" />
    <glyph glyph-name="utilde" unicode="&#x7e;u" horiz-adv-x="597" 
d="M371 656q4 6 14 6q17 0 27.5 -15t10.5 -35q0 -30 -16.5 -47t-48.5 -17q-15 0 -34.5 4.5t-38.5 10t-36.5 10t-28.5 4.5q-14 0 -21.5 -8t-7.5 -22q0 -11 4 -19t9 -13q-2 -2 -5.5 -3.5t-9.5 -1.5q-15 0 -26 13t-11 36q0 29 16.5 46.5t45.5 17.5q13 0 32.5 -4.5t39 -9.5
t38 -9.5t30.5 -4.5q16 0 23.5 8.5t7.5 20.5q0 11 -4.5 19.5t-9.5 12.5zM38 409q47 0 83.5 6t53.5 13l8 -8q-3 -17 -4.5 -53t-3 -79.5t-2 -88t-0.5 -79.5q0 -99 90 -99q38 0 64.5 16.5t43 41t23.5 52t7 49.5v198q-8 2 -28.5 5t-60.5 3l13 23q38 0 77.5 6t63.5 13l7 -8
q-2 -14 -3 -39.5t-1.5 -57t-1 -66t-1 -65.5t-0.5 -55.5v-36.5q0 -42 10.5 -60.5t33.5 -18.5q24 0 35.5 19t11.5 52q11 0 16.5 -7t5.5 -25q0 -14 -4.5 -28t-14.5 -25t-26 -18.5t-40 -7.5q-41 0 -64 26.5t-23 86.5l-3 1q-7 -18 -19 -38.5t-31.5 -37t-47.5 -27.5t-68 -11
q-63 0 -99 31.5t-36 91.5q0 48 2 100.5t2 95.5q0 23 -0.5 44t-1.5 38q-11 2 -32 3t-45 1z" />
    <glyph glyph-name="uni1EBC" unicode="&#x7e;E" horiz-adv-x="600" 
d="M399 861q4 6 14 6q17 0 27.5 -15t10.5 -35q0 -30 -16.5 -47t-48.5 -17q-15 0 -34.5 4.5t-38.5 10t-36.5 10t-28.5 4.5q-14 0 -21.5 -8t-7.5 -22q0 -11 4 -19t9 -13q-2 -2 -5.5 -3.5t-9.5 -1.5q-15 0 -26 13t-11 36q0 29 16.5 46.5t45.5 17.5q13 0 32.5 -4.5t39 -9.5
t38 -9.5t30.5 -4.5q16 0 23.5 8.5t7.5 20.5q0 11 -4.5 19.5t-9.5 12.5zM30 653q50 0 77 -5.5t45 -11.5q2 -30 5.5 -99.5t3.5 -196.5q0 -122 -3 -194.5t-7 -112.5q-14 -4 -40.5 -8t-74.5 -4l17 -25q32 2 76 3t116 1q62 0 107.5 -1.5t80 -4t60 -6t48.5 -7.5l39 182l-30 22
q-6 -31 -12 -58.5t-15 -47.5t-23 -32t-37 -12l-219 -3q-2 17 -4 39.5t-3.5 56t-2.5 80t-1 112.5q26 1 62.5 2t81.5 1q33 0 43 -22t14 -77l23 10q-2 24 -3.5 48t-1.5 55q0 29 2.5 54.5t6.5 53.5l-23 10q-3 -32 -7 -52t-11 -31.5t-17 -16t-26 -4.5q-48 0 -84.5 1t-59.5 2
q0 67 1 115t3 82t3.5 55.5t2.5 35.5l175 -2q28 0 45.5 -6t29 -20.5t17 -38.5t9.5 -60l30 23l-29 157q-20 -3 -43 -6.5t-58.5 -6t-88 -4.5t-131.5 -2q-51 0 -87 1t-67 3z" />
    <glyph glyph-name="uni1EBD" unicode="&#x7e;e" horiz-adv-x="477" 
d="M334 669q4 6 14 6q17 0 27.5 -15t10.5 -35q0 -30 -16.5 -47t-48.5 -17q-15 0 -34.5 4.5t-38.5 10t-36.5 10t-28.5 4.5q-14 0 -21.5 -8t-7.5 -22q0 -11 4 -19t9 -13q-2 -2 -5.5 -3.5t-9.5 -1.5q-15 0 -26 13t-11 36q0 29 16.5 46.5t45.5 17.5q13 0 32.5 -4.5t39 -9.5
t38 -9.5t30.5 -4.5q16 0 23.5 8.5t7.5 20.5q0 11 -4.5 19.5t-9.5 12.5zM48 213q0 49 14.5 89.5t42 69.5t66.5 44.5t89 15.5q46 0 77.5 -11.5t51.5 -31t29 -46t9 -55.5q0 -57 -59 -57h-245q0 -109 40.5 -158.5t110.5 -49.5q31 0 55.5 5.5t42.5 13t29.5 15t17.5 12.5l7 -28
q-5 -4 -16.5 -14t-31 -20t-47.5 -18t-65 -8q-49 0 -89 15t-68.5 44t-44.5 72.5t-16 100.5zM291 258q29 1 44.5 13.5t15.5 40.5q0 38 -20 64t-69 26q-28 0 -52.5 -11.5t-42.5 -31.5t-29.5 -47t-12.5 -58z" />
    <glyph glyph-name="uni1EF8" unicode="&#x7e;Y" horiz-adv-x="622" 
d="M409 861q4 6 14 6q17 0 27.5 -15t10.5 -35q0 -30 -16.5 -47t-48.5 -17q-15 0 -34.5 4.5t-38.5 10t-36.5 10t-28.5 4.5q-14 0 -21.5 -8t-7.5 -22q0 -11 4 -19t9 -13q-2 -2 -5.5 -3.5t-9.5 -1.5q-15 0 -26 13t-11 36q0 29 16.5 46.5t45.5 17.5q13 0 32.5 -4.5t39 -9.5
t38 -9.5t30.5 -4.5q16 0 23.5 8.5t7.5 20.5q0 11 -4.5 19.5t-9.5 12.5zM-50 653q37 0 67 -5t44 -12l213 -352q2 -18 3 -50.5t1 -59.5q0 -49 -2.5 -82.5t-5.5 -58.5q-17 -6 -52.5 -9t-72.5 -3l17 -25l155 4l153 -4l17 25q-37 0 -72.5 3t-52.5 9q-3 25 -5.5 58.5t-2.5 78.5v30
t0.5 34.5t1 33t1.5 26.5q15 25 35.5 58.5t41.5 69t42 70.5t38.5 64.5t29.5 51t16 28.5q13 6 43.5 11.5t68.5 5.5l-15 27q-34 -2 -65.5 -3t-51.5 -1h-26.5t-35 0.5t-38.5 1.5t-38 2l-15 -27q24 0 46 -1.5t39 -4t27.5 -6.5t10.5 -9q0 -7 -11 -29t-28 -53t-38 -66.5t-41 -68
t-36.5 -58.5t-24.5 -37q-11 16 -28.5 44t-37.5 61t-40 67.5t-36 64t-26 50.5t-10 26t10.5 8.5t28 6t39.5 4t45 1.5l-15 27q-29 -2 -67.5 -3t-82.5 -1t-81.5 1t-64.5 3z" />
    <glyph glyph-name="uni1EF9" unicode="&#x7e;y" horiz-adv-x="499" 
d="M327 669q4 6 14 6q17 0 27.5 -15t10.5 -35q0 -30 -16.5 -47t-48.5 -17q-15 0 -34.5 4.5t-38.5 10t-36.5 10t-28.5 4.5q-14 0 -21.5 -8t-7.5 -22q0 -11 4 -19t9 -13q-2 -2 -5.5 -3.5t-9.5 -1.5q-15 0 -26 13t-11 36q0 29 16.5 46.5t45.5 17.5q13 0 32.5 -4.5t39 -9.5
t38 -9.5t30.5 -4.5q16 0 23.5 8.5t7.5 20.5q0 11 -4.5 19.5t-9.5 12.5zM-12 427q15 -2 44 -4.5t67 -2.5t67.5 2.5t43.5 4.5l15 -26q-52 0 -70 -4t-18 -12q0 -14 32.5 -101t94.5 -233q0 9 0.5 17t2.5 12q7 18 17.5 45.5t22.5 58.5t24 63t21.5 59.5t15.5 48t6 28.5
q0 10 -15 14t-62 4l20 26q27 -4 50 -5.5t43 -1.5t45 1.5t45 5.5l11 -26q-35 0 -57.5 -4.5t-26.5 -12.5l-191 -487q-23 -60 -58 -95t-92 -35q-40 0 -66.5 18.5t-26.5 54.5q0 26 14 40t34 14q13 0 21 -5t12 -12q-8 -6 -13 -14.5t-5 -20.5q0 -17 11 -27t34 -10q12 0 25 4
t26.5 17t27.5 36.5t28 61.5l21 56l-171 397q-5 13 -25 18.5t-60 5.5z" />
    <glyph glyph-name="uniFB05" unicode="&#x17f;t" horiz-adv-x="614" 
d="M107 416q-2 20 -4.5 52t-2.5 62q0 108 48.5 154t134.5 46t122.5 -47.5t36.5 -132.5q0 -42 -1 -75.5t-2 -53.5q20 -2 61.5 -4t93.5 -2l-15 -31q-44 0 -82 -2.5t-57 -4.5q-1 -23 -1.5 -56t-1 -73.5t-1 -86t-0.5 -91.5q0 -29 13.5 -39.5t38.5 -10.5q28 0 48.5 9.5t37.5 20.5
l10 -27q-18 -16 -45.5 -29t-72.5 -13q-57 0 -78 24t-21 77q0 137 -0.5 209t-1.5 86q-13 2 -31 4.5t-60 2.5l13 31q31 0 50.5 3.5t30 17t14.5 39.5t4 70q0 81 -23 120.5t-83 39.5q-27 0 -48 -8.5t-36 -27t-23 -49t-8 -75.5q0 -52 5 -117.5t5 -150.5q0 -103 1 -165.5t3 -82.5
q19 -2 50.5 -5t60.5 -3l-17 -25l-129 4l-109 -4l-17 25q27 0 50.5 3t35.5 5q2 23 3 110t1 241q-11 2 -34 3.5t-51 1.5l8 22z" />
    <glyph glyph-name="asciitilde_G.liga" unicode="&#x7e;G" horiz-adv-x="776" 
d="M467 861q4 6 14 6q17 0 27.5 -15t10.5 -35q0 -30 -16.5 -47t-48.5 -17q-15 0 -34.5 4.5t-38.5 10t-36.5 10t-28.5 4.5q-14 0 -21.5 -8t-7.5 -22q0 -11 4 -19t9 -13q-2 -2 -5.5 -3.5t-9.5 -1.5q-15 0 -26 13t-11 36q0 29 16.5 46.5t45.5 17.5q13 0 32.5 -4.5t39 -9.5
t38 -9.5t30.5 -4.5q16 0 23.5 8.5t7.5 20.5q0 11 -4.5 19.5t-9.5 12.5zM663 500l-39 145q-10 4 -28 11.5t-45.5 14.5t-65.5 12t-87 5q-84 0 -149.5 -26.5t-110.5 -73.5t-69 -111.5t-24 -140.5q0 -96 28.5 -163t75.5 -110t107.5 -62.5t125.5 -19.5q54 0 90.5 10t61.5 21.5
t40.5 21.5t27.5 10q18 0 25.5 -24t7.5 -56l22 16q-1 18 -3 56t-2 100q0 53 1 76.5t3 37.5q15 5 45.5 11.5t64.5 6.5l-15 27l-55 -2.5t-81 -1.5q-40 0 -81.5 1.5t-66.5 2.5l-13 -27q38 0 72 -6.5t51 -11.5q1 -13 2 -36t1 -74q0 -53 -48.5 -88.5t-141.5 -35.5
q-54 0 -100.5 19.5t-80.5 59t-53.5 99.5t-19.5 142t21.5 143t57.5 100.5t82.5 59t96.5 19.5q64 0 107.5 -19.5t70.5 -47.5t41 -59.5t19 -55.5z" />
    <glyph glyph-name="asciitilde_g.liga" unicode="&#x7e;g" horiz-adv-x="458" 
d="M107 523q-15 0 -26 13t-11 36q0 29 16.5 46.5t45.5 17.5q13 0 32.5 -4.5t39 -9.5t38 -9.5t30.5 -4.5q16 0 23.5 8.5t7.5 20.5q0 11 -4.5 19.5t-9.5 12.5q4 6 14 6q17 0 27.5 -15t10.5 -35q0 -30 -16.5 -47t-48.5 -17q-15 0 -34.5 4.5t-38.5 10t-36.5 10t-28.5 4.5
q-14 0 -21.5 -8t-7.5 -22q0 -11 4 -19t9 -13q-2 -2 -5.5 -3.5t-9.5 -1.5zM400 427q3 1 9 6t6 17q0 11 -6.5 18t-20.5 7q-18 0 -32 -15.5t-14 -47.5q0 -22 4.5 -36t9.5 -26.5t9.5 -27.5t4.5 -39q0 -32 -10.5 -56.5t-27 -41.5t-37.5 -28t-41 -17q-18 -5 -41 -12.5t-43.5 -16.5
t-34 -20t-13.5 -23q0 -8 5.5 -13.5t19.5 -9.5t39.5 -6t66.5 -2q49 0 82 -9t52.5 -25t27.5 -37t8 -46q0 -71 -51.5 -112t-145.5 -41q-83 0 -130.5 30t-47.5 94q0 37 17 54.5t38 17.5q14 0 21 -5t9 -10q-5 -3 -14 -15.5t-9 -42.5q0 -41 30.5 -65t93.5 -24q60 0 92.5 26
t32.5 77q0 22 -6 38t-21 26.5t-40.5 15t-64.5 4.5q-93 0 -132.5 16t-39.5 46q0 19 12.5 33t33 24.5t47 17t54.5 10.5v4q-16 0 -40 6.5t-46.5 23t-39 45t-16.5 73.5q0 31 10.5 57.5t30.5 46t48 30.5t64 11q25 0 44 -4.5t33 -11t23 -13.5t14 -12q-2 7 -4 16.5t-2 22.5
q0 38 24.5 60.5t57.5 22.5q30 0 43.5 -14.5t13.5 -34.5t-11 -33t-29 -13q-16 0 -20 9zM219 166q35 0 61 33t26 88q0 51 -24 84.5t-69 33.5q-39 0 -64 -30t-25 -85q0 -64 27.5 -94.5t67.5 -29.5z" />
    <glyph glyph-name="f_b.liga" unicode="fb" horiz-adv-x="852" 
d="M107 416q0 11 -0.5 26.5t-1 32.5t-1 33.5t-0.5 30.5q0 42 12.5 77t38 60.5t64 39.5t90.5 14q42 0 69.5 -8t38.5 -16q17 2 28.5 7t16.5 9l19 -15q-2 -23 -3.5 -59t-3 -80t-2.5 -95t-1 -104q17 22 51 42.5t88 20.5q97 0 145.5 -57.5t48.5 -157.5q0 -116 -57 -176t-152 -60
q-35 0 -59.5 7.5t-41 16t-26 16t-13.5 7.5q-7 0 -13.5 -11t-11.5 -26.5t-8 -34t-3 -33.5l-26 17q4 31 7.5 110.5t3.5 228.5q0 143 -1.5 237t-2.5 134q-3 7 -9 16.5t-17 18t-27 14.5t-40 6q-74 0 -106.5 -43t-32.5 -116q0 -35 1.5 -71t3.5 -55q20 -2 60 -3.5t89 -1.5l-11 -30
q-52 0 -87 -2t-49 -4q0 -155 1 -240.5t3 -109.5q19 -2 50.5 -5t60.5 -3l-17 -25l-129 4l-109 -4l-17 25q27 0 50.5 3t35.5 5q2 24 3 110t1 241q-11 2 -34 3.5t-51 1.5l8 22zM473 71q5 -8 14.5 -17.5t24 -18t32.5 -14.5t41 -6q70 0 106.5 49t36.5 154q0 93 -34.5 138.5
t-91.5 45.5q-22 0 -42 -7.5t-37 -19.5t-30 -26t-22 -26q0 -94 0.5 -158.5t1.5 -93.5z" />
    <glyph glyph-name="f_f.liga" unicode="ff" horiz-adv-x="633" 
d="M107 416q-1 16 -2 49t-1 75q0 83 45.5 129.5t128.5 46.5q59 0 96 -18.5t54 -33.5q7 11 18.5 23t28 21.5t37.5 15.5t46 6q37 0 62.5 -8t41 -20.5t22 -29t6.5 -34.5q0 -28 -15 -45t-45 -17q-20 0 -30.5 11t-12.5 21q9 3 19 13.5t10 30.5q0 21 -16 36.5t-47 15.5
q-19 0 -37 -8t-32.5 -26.5t-23 -48.5t-8.5 -75q0 -35 3.5 -70.5t6.5 -55.5q15 -2 54 -3.5t95 -1.5l-11 -30q-60 0 -93.5 -2t-42.5 -4q0 -155 1 -241.5t3 -108.5q19 -2 50.5 -5t60.5 -3l-17 -25l-129 4l-109 -4l-17 25q27 0 50.5 3t35.5 5q2 19 3 104t1 247q-11 2 -34 3.5
t-55 1.5q-45 0 -80.5 -2t-52.5 -4q0 -154 1 -240.5t3 -109.5q16 -2 44 -5t57 -3l-17 -25l-119 4l-109 -4l-17 25q27 0 50.5 3t35.5 5q2 35 3 126t1 225q-9 2 -31 3.5t-54 1.5l8 22zM168 550q0 -42 1.5 -77.5t3.5 -52.5q24 -2 65.5 -4.5t81.5 -2.5q26 0 45.5 1t30.5 2
q-2 21 -4 49.5t-2 43.5q0 39 4 67t10 48q-6 10 -16 21.5t-24.5 21.5t-33.5 16.5t-44 6.5q-59 0 -88.5 -38t-29.5 -102z" />
    <glyph glyph-name="f_h.liga" unicode="fh" horiz-adv-x="887" 
d="M107 416q-1 24 -2 60t-1 63q0 39 12 73.5t36.5 61t63 41.5t91.5 15q42 0 68 -7.5t40 -15.5q16 3 27 7t19 8l19 -15q-3 -29 -5.5 -117t-2.5 -230q23 27 60 49.5t94 22.5q83 0 117 -34.5t34 -95.5q0 -128 1 -194t3 -79q8 -2 28.5 -5t49.5 -3l-17 -25l-99 4l-100 -4l-17 25
q34 0 53.5 3t24.5 5q2 14 3 74.5t1 171.5q0 60 -25.5 89t-79.5 29q-24 0 -45 -9t-37.5 -21.5t-29 -27t-19.5 -25.5v-188t1 -93q8 -2 29.5 -5t52.5 -3l-17 -25l-105 4l-94 -4l-18 25q29 0 50 3t29 5q2 25 3 93t1 172q0 125 -2 219t-6 145q-2 4 -7.5 12t-16 16t-26.5 13.5
t-39 5.5q-74 0 -106.5 -43t-32.5 -116q0 -35 1.5 -70.5t3.5 -55.5q19 -2 59 -3.5t90 -1.5l-11 -30q-48 0 -84 -2t-52 -4q0 -155 1 -241.5t3 -108.5q16 -2 44 -5t57 -3l-17 -25l-119 4l-109 -4l-17 25q27 0 50.5 3t35.5 5q2 22 3 108.5t1 242.5q-11 2 -33.5 3.5t-51.5 1.5
l8 22z" />
    <glyph glyph-name="f_hbar.liga" unicode="f&#x127;" horiz-adv-x="887" 
d="M781 29q8 -2 28.5 -5t49.5 -3l-17 -25l-99 4l-100 -4l-17 25q34 0 53.5 3t24.5 5q2 14 3 74.5t1 171.5q0 60 -25.5 89t-79.5 29q-24 0 -45 -9t-37.5 -21.5t-29 -27t-19.5 -25.5v-188t1 -93q8 -2 29.5 -5t52.5 -3l-17 -25l-105 4l-94 -4l-18 25q29 0 50 3t29 5q2 25 3 93
t1 172q0 66 -0.5 123t-1.5 105h-80v30h79q-1 33 -2 59.5t-3 46.5q-2 4 -7.5 12t-16 16t-26.5 13.5t-39 5.5q-74 0 -106.5 -43t-32.5 -116q0 -35 1.5 -70.5t3.5 -55.5q19 -2 59 -3.5t90 -1.5l-11 -30q-48 0 -84 -2t-52 -4q0 -155 1 -241.5t3 -108.5q16 -2 44 -5t57 -3
l-17 -25l-119 4l-109 -4l-17 25q27 0 50.5 3t35.5 5q2 22 3 108.5t1 242.5q-11 2 -33.5 3.5t-51.5 1.5l8 22l76 9q-1 24 -2 60t-1 63q0 39 12 73.5t36.5 61t63 41.5t91.5 15q42 0 68 -7.5t40 -15.5q16 3 27 7t19 8l19 -15q-2 -17 -3.5 -56t-2.5 -99h164v-30h-165
q-1 -35 -1 -75.5v-86.5q23 27 60 49.5t94 22.5q83 0 117 -34.5t34 -95.5q0 -128 1 -194t3 -79z" />
    <glyph glyph-name="f_i.locl" unicode="fi" horiz-adv-x="596" 
d="M107 416q-2 21 -3.5 52.5t-1.5 53.5q0 99 52 153.5t156 54.5q48 0 81 -10t53 -26.5t29 -37.5t9 -42q0 -32 -15 -48t-41 -16t-35.5 11t-12.5 23q8 2 16 11.5t8 28.5q0 36 -21 58.5t-79 22.5q-69 0 -102.5 -43.5t-33.5 -119.5q0 -33 2.5 -67.5t4.5 -54.5q14 -1 33 -2.5
t39.5 -2.5t41.5 -1.5t39 -0.5q74 0 107.5 16.5t33.5 32.5l18 -14q-2 -16 -4.5 -41.5t-4.5 -57.5t-3 -69.5t-1 -77.5q0 -64 2.5 -108t4.5 -65q11 -2 31.5 -5t47.5 -3l-17 -25l-99 4l-104 -4l-17 25q28 0 48.5 3t30.5 5q2 22 4.5 66t2.5 107q0 72 -1.5 108t-2.5 55
q-8 7 -34.5 13.5t-72.5 6.5q-38 0 -71 -2t-50 -4q0 -154 1 -240.5t3 -109.5q16 -2 44 -5t57 -3l-17 -25l-119 4l-109 -4l-17 25q27 0 50.5 3t35.5 5q2 23 3 109.5t1 241.5q-10 2 -32.5 3.5t-52.5 1.5l8 22z" />
    <glyph glyph-name="f_dotlessi.liga" unicode="f&#x131;" horiz-adv-x="596" 
d="M107 416q-2 14 -5.5 46.5t-3.5 71.5q0 42 10 77.5t30 62t50.5 41.5t71.5 15q57 0 81 -23t24 -57t-17 -48t-38 -14q-15 0 -23 5t-13 12q6 5 14 17t8 33q0 23 -9.5 36.5t-34.5 13.5q-35 0 -61.5 -33t-26.5 -98q0 -51 3.5 -92.5t5.5 -61.5q14 -1 33 -2.5t39.5 -2.5
t41.5 -1.5t39 -0.5q74 0 107.5 16.5t33.5 32.5l18 -14q-5 -32 -9 -98.5t-4 -147.5q0 -70 2.5 -114t4.5 -59q8 -2 29 -5t50 -3l-17 -25l-99 4l-104 -4l-17 25q30 0 50.5 3t28.5 5q2 16 4.5 60t2.5 113q0 65 -1 102.5t-3 60.5q-8 7 -34.5 13.5t-72.5 6.5q-38 0 -71 -2t-50 -4
q0 -154 1 -240.5t3 -109.5q16 -2 44 -5t57 -3l-17 -25l-119 4l-109 -4l-17 25q27 0 50.5 3t35.5 5q2 23 3 109.5t1 241.5q-10 2 -32.5 3.5t-52.5 1.5l8 22z" />
    <glyph glyph-name="f_iacute.liga" unicode="f&#xed;" horiz-adv-x="596" 
d="M107 416q-2 14 -5.5 46.5t-3.5 71.5q0 42 10 77.5t30 62t50.5 41.5t71.5 15q57 0 81 -23t24 -57t-17 -48t-38 -14q-15 0 -23 5t-13 12q6 5 14 17t8 33q0 23 -9.5 36.5t-34.5 13.5q-35 0 -61.5 -33t-26.5 -98q0 -51 3.5 -92.5t5.5 -61.5q14 -1 33 -2.5t39.5 -2.5
t41.5 -1.5t39 -0.5q74 0 107.5 16.5t33.5 32.5l18 -14q-5 -32 -9 -98.5t-4 -147.5q0 -70 2.5 -114t4.5 -59q8 -2 29 -5t50 -3l-17 -25l-99 4l-104 -4l-17 25q30 0 50.5 3t28.5 5q2 16 4.5 60t2.5 113q0 65 -1 102.5t-3 60.5q-8 7 -34.5 13.5t-72.5 6.5q-38 0 -71 -2t-50 -4
q0 -154 1 -240.5t3 -109.5q16 -2 44 -5t57 -3l-17 -25l-119 4l-109 -4l-17 25q27 0 50.5 3t35.5 5q2 23 3 109.5t1 241.5q-10 2 -32.5 3.5t-52.5 1.5l8 22zM340 504q58 32 92 66t51.5 63.5t22.5 50.5t5 27q22 0 33.5 -12t11.5 -32q0 -25 -15 -50.5t-41.5 -49.5t-63.5 -47
t-81 -42z" />
    <glyph glyph-name="f_idieresis.liga" unicode="f&#xef;" horiz-adv-x="581" 
d="M467 202q0 -70 2.5 -114t4.5 -59q8 -2 29 -5t50 -3l-17 -25l-99 4l-104 -4l-17 25q30 0 50.5 3t28.5 5q2 16 4.5 60t2.5 113q0 53 -1 97t-3 66q-8 7 -34.5 13.5t-72.5 6.5q-35 0 -67 -2t-49 -4q0 -154 1 -240.5t3 -109.5q16 -2 44 -5t57 -3l-17 -25l-119 4l-109 -4
l-17 25q27 0 50.5 3t35.5 5q2 23 3 109.5t1 241.5q-10 2 -32.5 3.5t-52.5 1.5l8 22l76 9q-2 14 -4.5 45t-2.5 69q0 87 38 138.5t117 51.5q60 0 94.5 -28t34.5 -77q0 -30 -15.5 -43t-36.5 -13t-35 14t-14 37t14.5 37.5t46.5 14.5q-11 14 -29 24t-51 10q-48 0 -73.5 -38.5
t-25.5 -117.5q0 -38 3 -70.5t5 -49.5q14 -1 32.5 -2.5t38.5 -2.5t40 -1.5t37 -0.5q74 0 107.5 16.5t33.5 32.5l18 -14q-2 -16 -4.5 -41.5t-4.5 -57.5t-3 -69.5t-1 -77.5zM507 559q-22 0 -36.5 14t-14.5 37t14.5 38t36.5 15q23 0 36.5 -15t13.5 -38t-13.5 -37t-36.5 -14z" />
    <glyph glyph-name="f_igrave.liga" unicode="f&#xec;" horiz-adv-x="588" 
d="M479 29q10 -2 30.5 -5t48.5 -3l-17 -25l-99 4l-104 -4l-17 25q30 0 50.5 3t28.5 5q2 16 4.5 60t2.5 113q0 53 -1 97t-3 66q-8 7 -34.5 13.5t-72.5 6.5q-38 0 -71 -2t-50 -4q0 -154 1 -240.5t3 -109.5q16 -2 44 -5t57 -3l-17 -25l-119 4l-109 -4l-17 25q27 0 50.5 3
t35.5 5q2 23 3 109.5t1 241.5q-10 2 -32.5 3.5t-52.5 1.5l8 22l76 9q-2 14 -4.5 47t-2.5 77q0 39 9.5 74t29 60.5t50 40.5t71.5 15q34 0 58.5 -10t41.5 -36q6 -9 15.5 -27.5t28 -43t49 -53t78.5 -56.5l-15 -26q-57 26 -105 56.5t-71 61.5q-4 -3 -11.5 -5.5t-16.5 -2.5
q-17 0 -25 5t-13 12q6 5 14 17t8 33q0 23 -9.5 36.5t-34.5 13.5q-35 0 -61 -33t-26 -97q0 -52 3 -93.5t5 -61.5q14 -1 33 -2.5t39.5 -2.5t41.5 -1.5t39 -0.5q74 0 107.5 16.5t33.5 32.5l18 -14q-2 -16 -4.5 -41.5t-4.5 -57.5t-3 -69.5t-1 -77.5q0 -94 3 -134q2 -24 4 -39z
" />
    <glyph glyph-name="f_imacron.liga" unicode="f&#x12b;" horiz-adv-x="583" 
d="M107 416q-2 14 -4.5 47t-2.5 77q0 43 11 78t31.5 60t50 38.5t67.5 13.5q30 0 50 -7t32.5 -18.5t17.5 -27t5 -31.5q0 -18 -6.5 -29t-14.5 -20l2 -2l18 18h186v-55h-266q5 10 10.5 29t5.5 51q0 35 -12 51t-38 16q-38 0 -61.5 -33t-23.5 -97q0 -52 3 -93.5t5 -61.5
q14 -1 32.5 -2.5t38.5 -2.5t40 -1.5t37 -0.5q74 0 107.5 16.5t33.5 32.5l18 -14q-2 -16 -4.5 -41.5t-4.5 -57.5t-3 -69.5t-1 -77.5q0 -70 2.5 -114t4.5 -59q10 -2 30.5 -5t48.5 -3l-17 -25l-99 4l-104 -4l-17 25q29 0 49.5 3t29.5 5q2 16 4.5 60t2.5 113q0 53 -1 97t-3 66
q-8 7 -34.5 13.5t-72.5 6.5q-35 0 -67 -2t-49 -4q0 -154 1 -240.5t3 -109.5q16 -2 44 -5t57 -3l-17 -25l-119 4l-109 -4l-17 25q27 0 50.5 3t35.5 5q2 23 3 109.5t1 241.5q-10 2 -32.5 3.5t-52.5 1.5l8 22z" />
    <glyph glyph-name="f_ij.liga" unicode="f&#x133;" horiz-adv-x="828" 
d="M107 416q-2 21 -3.5 52.5t-1.5 53.5q0 99 52 153.5t156 54.5q48 0 81 -10t53 -26.5t29 -37.5t9 -42q0 -32 -15 -48t-41 -16t-35.5 11t-12.5 23q8 2 16 11.5t8 28.5q0 36 -21 58.5t-79 22.5q-69 0 -102.5 -43.5t-33.5 -119.5q0 -33 2.5 -67.5t4.5 -54.5q14 -1 33 -2.5
t39.5 -2.5t41.5 -1.5t39 -0.5q74 0 107.5 16.5t33.5 32.5l18 -14q-2 -16 -4.5 -41.5t-4.5 -57.5t-3 -69.5t-1 -77.5q0 -64 2.5 -108t4.5 -65q11 -2 31.5 -5t47.5 -3l-17 -25l-99 4l-104 -4l-17 25q28 0 48.5 3t30.5 5q2 22 4.5 66t2.5 107q0 72 -1.5 108t-2.5 55
q-8 7 -34.5 13.5t-72.5 6.5q-38 0 -71 -2t-50 -4q0 -154 1 -240.5t3 -109.5q16 -2 44 -5t57 -3l-17 -25l-119 4l-109 -4l-17 25q27 0 50.5 3t35.5 5q2 23 3 109.5t1 241.5q-10 2 -32.5 3.5t-52.5 1.5l8 22zM645 610q0 23 14.5 38t36.5 15q23 0 36.5 -15t13.5 -38t-13.5 -37
t-36.5 -14q-22 0 -36.5 14t-14.5 37zM597 401q43 0 70.5 8t43.5 18.5t22 20.5t6 14l19 -15q-5 -23 -9.5 -66t-4.5 -106q0 -41 1 -82.5t1.5 -81t1.5 -75t1 -63.5q0 -100 -41 -153t-118 -53q-54 0 -81.5 23.5t-27.5 61.5q0 29 16 45.5t39 16.5q20 0 28 -9.5t8 -14.5
q-5 0 -16.5 -9.5t-11.5 -34.5q0 -24 14 -36.5t39 -12.5q20 0 36 8.5t27 28.5t17 53t6 83q0 108 -1 179.5t-2.5 116t-3.5 66.5t-3 31q-11 4 -31.5 9.5t-55.5 5.5z" />
    <glyph glyph-name="f_j.liga" unicode="fj" horiz-adv-x="559" 
d="M107 416q-1 21 -2 56t-1 67q0 41 13 76t38.5 60.5t64.5 40t91 14.5q49 0 82 -10t52.5 -26.5t28 -37t8.5 -40.5q0 -35 -17.5 -50.5t-41.5 -15.5q-21 0 -31 11t-12 23q7 2 14.5 11t7.5 29q0 35 -21.5 58t-74.5 23q-72 0 -105 -43t-33 -116q0 -35 1.5 -70.5t3.5 -55.5
q13 -1 31.5 -2.5t38.5 -2.5t41 -1.5t40 -0.5q46 0 74 6t43.5 14.5t20.5 16.5t5 12l19 -15q-5 -14 -9.5 -58t-4.5 -114q0 -41 1 -82.5t1.5 -81t1.5 -75t1 -63.5q0 -98 -40.5 -152t-116.5 -54q-54 0 -82.5 23.5t-28.5 61.5q0 30 16 46t37 16q17 0 26.5 -7.5t11.5 -16.5
q-9 -2 -18.5 -12t-9.5 -30q0 -51 52 -51q22 0 38 8.5t27 29t16.5 53.5t5.5 82q0 168 -3 268t-5 130q-9 5 -36 11t-72 6q-35 0 -68.5 -2t-51.5 -4q0 -154 1 -240.5t3 -109.5q19 -2 50.5 -5t60.5 -3l-17 -25l-129 4l-109 -4l-17 25q27 0 50.5 3t35.5 5q2 38 3 129.5t1 221.5
q-10 2 -32.5 3.5t-52.5 1.5l8 22z" />
    <glyph glyph-name="f_k.liga" unicode="fk" horiz-adv-x="832" 
d="M107 416q-1 24 -2 60t-1 63q0 40 12 74.5t37 60.5t62 41t87 15q47 0 74.5 -8t40.5 -16q18 3 29.5 7.5t15.5 8.5l19 -15q-4 -32 -8 -130t-4 -256q0 -126 4 -197.5t8 -94.5q14 -2 36 -5t42 -3l-17 -25l-107 4l-103 -4l-17 25q21 0 44.5 3t37.5 5q2 21 4.5 94t2.5 198
q0 114 -2 201.5t-6 139.5q-2 3 -8 10t-17 14t-28.5 12.5t-42.5 5.5q-36 0 -61 -12t-40.5 -33t-23 -50t-7.5 -63q0 -35 1.5 -70.5t3.5 -55.5q18 -2 58 -3.5t91 -1.5l-11 -30q-51 0 -86.5 -2t-49.5 -4q0 -155 1 -241.5t3 -108.5q16 -2 44 -5t57 -3l-17 -25l-119 4l-109 -4
l-17 25q27 0 50.5 3t35.5 5q2 23 3 110.5t1 240.5q-9 2 -31.5 3.5t-53.5 1.5l8 22zM485 243q29 0 47 4t24 6q16 20 32.5 41.5t30.5 41t23 33.5t9 19q0 6 -17 9.5t-58 3.5l19 27q10 -2 34 -5t58 -3t58 3t34 5l15 -28q-45 0 -62 -3.5t-24 -11.5l-120 -134l172 -221
q11 -3 32.5 -6t46.5 -3l-18 -25l-107 4l-107 -4l-17 25q49 0 64.5 2t15.5 7q0 7 -12 27t-30 46t-40 55t-42 55q-5 2 -13.5 4.5t-22.5 2.5q-10 0 -19 -1t-14 -2z" />
    <glyph glyph-name="f_l.liga" unicode="fl" horiz-adv-x="594" 
d="M107 416q0 12 -0.5 27.5t-1 32t-1 32.5t-0.5 28q0 41 12.5 76.5t37 61.5t62 41t88.5 15q47 0 74.5 -8t38.5 -16q18 3 29.5 7.5t15.5 8.5l19 -15q-4 -32 -8 -130t-4 -256q0 -123 4 -196t8 -96q16 -2 41.5 -5t48.5 -3l-17 -25l-119 4l-106 -4l-17 25q21 0 46 3t39 5
q2 21 4.5 94t2.5 198q0 114 -2 201.5t-4 141.5q-3 4 -9.5 11t-17.5 14t-28 12t-41 5q-36 0 -61.5 -12t-41.5 -33.5t-23.5 -51.5t-7.5 -65q0 -33 1.5 -68.5t3.5 -55.5q17 -2 57 -3.5t92 -1.5l-11 -30q-52 0 -87 -2t-49 -4q0 -155 1 -241.5t3 -108.5q16 -2 44 -5t57 -3
l-17 -25l-119 4l-109 -4l-17 25q27 0 50.5 3t35.5 5q2 21 3 107.5t1 243.5q-9 2 -31.5 3.5t-53.5 1.5l8 22z" />
    <glyph glyph-name="f_lcaron.liga" unicode="f&#x13e;" horiz-adv-x="636" 
d="M107 416q0 12 -0.5 27.5t-1 32t-1 32.5t-0.5 28q0 41 12.5 76.5t37 61.5t62 41t88.5 15q47 0 74.5 -8t38.5 -16q18 3 29.5 7.5t15.5 8.5l19 -15q-4 -32 -8 -130t-4 -256q0 -123 4 -196t8 -96q16 -2 41.5 -5t48.5 -3l-17 -25l-119 4l-106 -4l-17 25q21 0 46 3t39 5
q2 21 4.5 94t2.5 198q0 114 -2 201.5t-4 141.5q-3 4 -9.5 11t-17.5 14t-28 12t-41 5q-36 0 -61.5 -12t-41.5 -33.5t-23.5 -51.5t-7.5 -65q0 -33 1.5 -68.5t3.5 -55.5q17 -2 57 -3.5t92 -1.5l-11 -30q-52 0 -87 -2t-49 -4q0 -155 1 -241.5t3 -108.5q16 -2 44 -5t57 -3
l-17 -25l-119 4l-109 -4l-17 25q27 0 50.5 3t35.5 5q2 21 3 107.5t1 243.5q-9 2 -31.5 3.5t-53.5 1.5l8 22zM516 474q4 16 8.5 40t8 52t6 59t2.5 62q28 0 49 4t31 8q-3 -36 -10 -71t-16 -67t-19.5 -58t-19.5 -44z" />
    <glyph glyph-name="f_t.liga" unicode="ft" horiz-adv-x="636" 
d="M107 416q-2 11 -4.5 40.5t-2.5 83.5q0 39 9.5 74t29 60.5t50 40.5t71.5 15q57 0 81 -23t24 -57t-16 -48t-37 -14q-17 0 -25 5t-13 12q6 5 14 17t8 33q0 23 -9.5 36.5t-34.5 13.5q-35 0 -61 -33t-26 -97q0 -54 3 -94.5t5 -60.5q23 -2 59 -4.5t67 -2.5q34 0 56.5 3t33.5 5
q5 11 11 49t10 105l52 -31q0 -22 -0.5 -57.5t-0.5 -65.5q20 -2 61.5 -4t93.5 -2l-15 -31q-44 0 -82 -2.5t-57 -4.5q-1 -18 -1.5 -47.5t-1 -69t-1 -87.5t-0.5 -103q0 -26 11.5 -38t38.5 -12q31 0 53.5 11t34.5 19l10 -27q-15 -13 -42 -27.5t-78 -14.5q-48 0 -72.5 21.5
t-24.5 75.5q0 124 -0.5 200t-1.5 99q-14 2 -37 5t-65 3q-38 0 -67 -2t-43 -4q0 -154 1 -240.5t3 -109.5q16 -2 44 -5t57 -3l-17 -25l-119 4l-109 -4l-17 25q27 0 50.5 3t35.5 5q2 23 3 109.5t1 241.5q-10 2 -32.5 3.5t-52.5 1.5l8 22z" />
    <glyph glyph-name="f_f_b.liga" unicode="ffb" horiz-adv-x="1141" 
d="M107 416q-1 14 -2 42.5t-1 81.5q0 87 48.5 131.5t124.5 44.5q58 0 94.5 -17.5t56.5 -34.5q7 11 22 22.5t36 21.5t47 16t57 6q48 0 75 -7.5t41 -16.5q17 2 28.5 7t16.5 9l19 -15q-2 -23 -3.5 -59t-3 -80t-2.5 -95t-1 -105q7 10 19.5 21.5t30 21t40 15.5t50.5 6
q97 0 145 -57t48 -158q0 -116 -57.5 -176t-153.5 -60q-34 0 -58 7.5t-40.5 16t-26 16t-13.5 7.5q-7 0 -13.5 -10t-11.5 -26t-8 -34.5t-3 -34.5l-26 17q4 32 7.5 118.5t3.5 220.5q0 143 -1.5 237t-2.5 134q-3 7 -9.5 17t-17.5 18t-27.5 14t-40.5 6q-67 0 -104.5 -41.5
t-37.5 -119.5q0 -35 4 -69.5t6 -54.5q16 -2 54.5 -3.5t94.5 -1.5l-11 -30q-58 0 -92 -2t-44 -4q0 -140 1 -226.5t3 -123.5q8 -1 21 -2.5t28 -2.5t31 -2t31 -1l-17 -25l-129 4l-109 -4l-17 25q27 0 50.5 3t35.5 5q2 42 3 135t1 216q-8 2 -31 3.5t-58 1.5q-42 0 -78 -2t-55 -4
q0 -139 1 -225.5t3 -124.5q16 -2 44 -5t57 -3l-17 -25l-119 4l-109 -4l-17 25q27 0 50.5 3t35.5 5q2 35 3 125.5t1 225.5q-9 2 -31.5 3.5t-53.5 1.5l8 22zM168 554q0 -55 1.5 -86.5t3.5 -47.5q25 -2 66.5 -4.5t80.5 -2.5q28 0 48 1t28 2q-2 21 -4 49.5t-2 43.5q0 35 4 65
t10 50q-5 9 -14.5 20.5t-24 21.5t-34.5 17t-45 7q-60 0 -89 -38.5t-29 -97.5zM760 323q0 -94 0.5 -158.5t1.5 -93.5q5 -8 14.5 -17.5t24 -18t32.5 -14.5t41 -6q70 0 106.5 49t36.5 154q0 93 -34.5 138.5t-90.5 45.5q-23 0 -44 -8.5t-38 -20.5t-30 -25.5t-20 -24.5z" />
    <glyph glyph-name="f_f_h.liga" unicode="ffh" horiz-adv-x="1176" 
d="M107 416q-1 16 -2 44.5t-1 73.5q0 40 10.5 73.5t32 57.5t54.5 37.5t79 13.5q51 0 91 -17t57 -36q7 11 20.5 23t34 21.5t47 16t60.5 6.5q49 0 75 -7.5t39 -15.5q14 2 26 6.5t20 8.5l19 -15q-3 -29 -5.5 -117t-2.5 -230q10 13 25 25.5t34 23t43 17t52 6.5q83 0 117 -34.5
t34 -95.5q0 -128 1 -194t3 -79q8 -2 28.5 -5t49.5 -3l-17 -25l-99 4l-100 -4l-17 25q34 0 53.5 3t24.5 5q2 14 3 74.5t1 171.5q0 60 -25.5 89t-79.5 29q-25 0 -45.5 -8.5t-36.5 -21t-28.5 -27t-20.5 -25.5v-188.5t1 -93.5q8 -2 29.5 -5t52.5 -3l-17 -25l-105 4l-94 -4
l-18 25q29 0 50 3t29 5q2 25 3 93t1 172q0 124 -2.5 220t-5.5 144q-3 6 -9 14t-16.5 15.5t-27 12.5t-40.5 5q-62 0 -101 -39t-39 -129q0 -29 4 -62.5t6 -54.5q15 -2 53.5 -3.5t95.5 -1.5l-11 -30q-56 0 -90.5 -2t-45.5 -4q0 -155 1 -241.5t3 -108.5q16 -2 44 -5t57 -3
l-17 -25l-119 4l-109 -4l-17 25q27 0 50.5 3t35.5 5q2 26 3 113.5t1 237.5q-8 2 -30.5 3.5t-58.5 1.5q-44 0 -80 -2t-53 -4q0 -154 1 -240.5t3 -109.5q16 -2 44 -5t57 -3l-17 -25l-119 4l-109 -4l-17 25q27 0 50.5 3t35.5 5q2 25 3 112.5t1 238.5q-10 2 -33 3.5t-52 1.5
l8 22zM320 413q27 0 47 1t29 2q-2 17 -4 43.5t-2 52.5q0 34 4.5 62t9.5 50q-5 9 -14.5 20.5t-24 21.5t-34.5 17t-46 7q-32 0 -54 -11.5t-36 -31t-20.5 -44.5t-6.5 -53q0 -54 1.5 -85t3.5 -45q24 -2 65.5 -4.5t81.5 -2.5z" />
    <glyph glyph-name="f_f_i.locl" unicode="ffi" horiz-adv-x="877" 
d="M107 416q-1 14 -2 46.5t-1 77.5q0 88 47.5 132t133.5 44q46 0 84 -16t59 -36q6 12 20.5 23.5t36.5 21t51 15.5t64 6q45 0 77.5 -9.5t53 -25.5t30 -37.5t9.5 -44.5q0 -31 -16 -47t-39 -16q-26 0 -36.5 11.5t-12.5 22.5q7 2 15.5 10.5t8.5 29.5q0 18 -4.5 32.5t-16 25.5
t-30.5 17t-48 6q-64 0 -101.5 -42t-37.5 -120q0 -35 3.5 -69t6.5 -54q13 -1 32 -2.5t40 -2.5t42.5 -1.5t41.5 -0.5q72 0 105 16.5t33 32.5l18 -14q-2 -16 -4.5 -41.5t-4.5 -57.5t-3 -69.5t-1 -77.5q0 -74 3 -116.5t5 -56.5q11 -2 31.5 -5t46.5 -3l-17 -25l-99 4l-104 -4
l-12 25q26 0 44 3t29 5q2 14 5 57t3 116q0 53 -1 97t-3 66q-7 7 -33.5 13.5t-73.5 6.5q-40 0 -72.5 -2t-48.5 -4q0 -155 1 -241.5t3 -108.5q8 -1 21 -2.5t28 -2.5t31 -2t31 -1l-17 -25l-129 4l-109 -4l-17 25q27 0 50.5 3t35.5 5q2 22 3 108.5t1 242.5q-17 2 -40.5 3.5
t-52.5 1.5q-38 0 -74 -2t-55 -4q0 -154 1 -240.5t3 -109.5q16 -2 44 -5t57 -3l-17 -25l-119 4l-109 -4l-17 25q27 0 50.5 3t35.5 5q2 21 3 107t1 244q-10 2 -32.5 3.5t-52.5 1.5l8 22zM321 413q24 0 42.5 1t32.5 2q-1 12 -2 26t-2 27.5t-1.5 25.5t-0.5 20q0 34 4 61.5
t10 47.5q-6 9 -15.5 20.5t-24 21.5t-34 17t-44.5 7q-54 0 -86 -33.5t-32 -106.5q0 -46 1.5 -80.5t3.5 -49.5q25 -2 67 -4.5t81 -2.5z" />
    <glyph glyph-name="f_f_dotlessi.liga" unicode="ff&#x131;" horiz-adv-x="865" 
d="M756 29q8 -2 29 -5t50 -3l-17 -25l-99 4l-104 -4l-17 25q30 0 50.5 3t28.5 5q2 16 4.5 60t2.5 113q0 53 -1 97t-3 66q-8 7 -32 13.5t-75 6.5q-38 0 -71 -2t-50 -4q0 -154 1 -240.5t3 -109.5q16 -2 44 -5t57 -3l-17 -25l-119 4l-109 -4l-17 25q27 0 50.5 3t35.5 5
q2 23 3 109.5t1 241.5q-11 1 -29.5 3t-47.5 2q-45 0 -80.5 -2t-52.5 -4q0 -154 1 -240.5t3 -109.5q16 -2 43 -5t53 -3l-17 -25l-114 4l-109 -4l-17 25q27 0 50.5 3t35.5 5q2 35 3 126t1 225q-9 2 -31 3.5t-54 1.5l8 22l76 9q-1 16 -2 49t-1 75q0 83 44.5 130.5t131.5 47.5
q54 0 88 -13.5t51 -25.5q20 23 49 37t69 14q57 0 81 -23t24 -57t-16.5 -48t-36.5 -14q-17 0 -25 5t-13 12q6 5 14 17t8 33q0 23 -9.5 36.5t-34.5 13.5q-35 0 -62 -33t-27 -97q0 -52 4 -93.5t6 -61.5q28 -2 70 -4.5t84 -2.5q74 0 107 16.5t33 32.5l18 -14q-2 -16 -4.5 -41.5
t-4.5 -57.5t-3 -69.5t-1 -77.5q0 -70 2.5 -114t4.5 -59zM384 416q-2 14 -5.5 47t-3.5 77q0 60 25 108q-15 14 -43 28t-72 14q-58 0 -87.5 -38t-29.5 -102q0 -42 1.5 -77.5t3.5 -52.5q24 -2 65.5 -4.5t81.5 -2.5q26 0 41.5 1t22.5 2z" />
    <glyph glyph-name="f_f_ij.liga" unicode="ff&#x133;" horiz-adv-x="1109" 
d="M107 416q-1 14 -2 46.5t-1 77.5q0 88 47.5 132t133.5 44q46 0 84 -16t59 -36q6 12 20.5 23.5t36.5 21t51 15.5t64 6q45 0 77.5 -9.5t53 -25.5t30 -37.5t9.5 -44.5q0 -31 -16 -47t-39 -16q-26 0 -36.5 11.5t-12.5 22.5q7 2 15.5 10.5t8.5 29.5q0 18 -4.5 32.5t-16 25.5
t-30.5 17t-48 6q-64 0 -101.5 -42t-37.5 -120q0 -35 3.5 -69t6.5 -54q13 -1 32 -2.5t40 -2.5t42.5 -1.5t41.5 -0.5q72 0 105 16.5t33 32.5l18 -14q-2 -16 -4.5 -41.5t-4.5 -57.5t-3 -69.5t-1 -77.5q0 -74 3 -116.5t5 -56.5q11 -2 31.5 -5t46.5 -3l-17 -25l-99 4l-104 -4
l-12 25q26 0 44 3t29 5q2 14 5 57t3 116q0 53 -1 97t-3 66q-7 7 -33.5 13.5t-73.5 6.5q-40 0 -72.5 -2t-48.5 -4q0 -155 1 -241.5t3 -108.5q8 -1 21 -2.5t28 -2.5t31 -2t31 -1l-17 -25l-129 4l-109 -4l-17 25q27 0 50.5 3t35.5 5q2 22 3 108.5t1 242.5q-17 2 -40.5 3.5
t-52.5 1.5q-38 0 -74 -2t-55 -4q0 -154 1 -240.5t3 -109.5q16 -2 44 -5t57 -3l-17 -25l-119 4l-109 -4l-17 25q27 0 50.5 3t35.5 5q2 21 3 107t1 244q-10 2 -32.5 3.5t-52.5 1.5l8 22zM321 413q24 0 42.5 1t32.5 2q-1 12 -2 26t-2 27.5t-1.5 25.5t-0.5 20q0 34 4 61.5
t10 47.5q-6 9 -15.5 20.5t-24 21.5t-34 17t-44.5 7q-54 0 -86 -33.5t-32 -106.5q0 -46 1.5 -80.5t3.5 -49.5q25 -2 67 -4.5t81 -2.5zM926 610q0 23 14.5 38t36.5 15q23 0 36.5 -15t13.5 -38t-13.5 -37t-36.5 -14q-22 0 -36.5 14t-14.5 37zM878 401q43 0 70.5 8t43.5 18.5
t22 20.5t6 14l19 -15q-5 -23 -9.5 -66t-4.5 -106q0 -41 1 -82.5t1.5 -81t1.5 -75t1 -63.5q0 -100 -41 -153t-118 -53q-54 0 -81.5 23.5t-27.5 61.5q0 29 16 45.5t39 16.5q20 0 28 -9.5t8 -14.5q-5 0 -16.5 -9.5t-11.5 -34.5q0 -24 14 -36.5t39 -12.5q20 0 36 8.5t27 28.5
t17 53t6 83q0 108 -1 179.5t-2.5 116t-3.5 66.5t-3 31q-11 4 -31.5 9.5t-55.5 5.5z" />
    <glyph glyph-name="f_f_j.liga" unicode="ffj" horiz-adv-x="848" 
d="M107 416q-1 14 -2 43t-1 77q0 88 45 134t133 46q48 0 86.5 -16t59.5 -36q13 23 57 44.5t116 21.5q87 0 128.5 -33t41.5 -81q0 -34 -16.5 -50t-42.5 -16q-21 0 -31 11t-12 23q7 2 14.5 11t7.5 29q0 35 -21 58t-74 23q-69 0 -106.5 -42t-37.5 -120q0 -35 3.5 -69t6.5 -54
q13 -1 31.5 -2.5t39 -2.5t41.5 -1.5t39 -0.5q43 0 71 5.5t44 13.5t22 16t6 14l19 -15q-5 -14 -9.5 -58t-4.5 -114q0 -41 1 -82.5t1.5 -81t1.5 -75t1 -63.5q0 -103 -42.5 -154.5t-113.5 -51.5q-56 0 -84 23.5t-28 61.5q0 29 15.5 45.5t37.5 16.5q18 0 27.5 -8t10.5 -16
q-8 -2 -18 -11.5t-10 -29.5q0 -52 52 -52q22 0 38.5 9t27 29t16 53.5t5.5 81.5q0 168 -3 268t-5 130q-8 5 -35.5 11t-72.5 6q-37 0 -70 -2t-50 -4q0 -155 1 -241.5t3 -108.5q19 -2 50.5 -5t60.5 -3l-17 -25l-129 4l-109 -4l-17 25q27 0 50.5 3t35.5 5q2 23 3 110t1 241
q-11 2 -35.5 3.5t-55.5 1.5q-38 0 -74.5 -2t-56.5 -4q0 -146 1 -232.5t3 -117.5q16 -2 44 -5t57 -3l-17 -25l-119 4l-109 -4l-17 25q27 0 50.5 3t35.5 5q5 35 4.5 121t-0.5 230q-10 2 -33 3.5t-52 1.5l8 22zM310 413q35 0 55.5 1t30.5 2q-2 21 -4 49.5t-2 43.5
q0 18 1.5 35.5t3.5 33t4.5 28t4.5 18.5q-15 24 -43.5 45t-73.5 21q-56 0 -87.5 -35.5t-31.5 -104.5q0 -44 1.5 -80t3.5 -50q13 -1 30 -2.5t36 -2.5t37.5 -1.5t33.5 -0.5z" />
    <glyph glyph-name="f_f_k.liga" unicode="ffk" horiz-adv-x="1121" 
d="M107 416q-1 14 -2 46.5t-1 77.5q0 83 45 129.5t131 46.5q53 0 90.5 -17t57.5 -35q9 11 23.5 23t35 21.5t46.5 15.5t58 6q46 0 73.5 -8t41.5 -16q18 3 29.5 7.5t15.5 8.5l19 -15q-4 -32 -8 -130t-4 -256q0 -131 4 -202.5t8 -89.5q14 -2 36 -5t42 -3l-17 -25l-107 4
l-103 -4l-17 25q21 0 44.5 3t37.5 5q2 21 4.5 94t2.5 198q0 114 -2 201.5t-6 139.5q-8 12 -29.5 27t-63.5 15q-66 0 -103 -38t-37 -122q0 -35 4 -69.5t6 -54.5q16 -2 54.5 -3.5t94.5 -1.5l-11 -30q-58 0 -92 -2t-44 -4q0 -148 1 -234.5t3 -115.5q16 -2 44 -5t57 -3l-17 -25
l-119 4l-109 -4l-17 25q27 0 50.5 3t35.5 5q1 17 1.5 49.5t1 78t1 102t0.5 121.5q-8 2 -31 3.5t-58 1.5q-42 0 -78 -2t-55 -4q0 -146 1 -232.5t3 -117.5q16 -2 44 -5t57 -3l-17 -25l-119 4l-109 -4l-17 25q27 0 50.5 3t35.5 5q2 27 3 117.5t1 233.5q-9 2 -31.5 3.5
t-53.5 1.5l8 22zM168 556q0 -49 1.5 -84.5t3.5 -51.5q25 -2 66.5 -4.5t80.5 -2.5q28 0 48 1t28 2q-2 21 -4 50t-2 47q0 36 4.5 67t9.5 44q-14 23 -42.5 44.5t-75.5 21.5q-50 0 -84 -33t-34 -101zM774 243q29 0 47.5 4t23.5 6q15 19 32 40.5t31 41t23 34.5t9 20q0 12 -75 12
l19 27q10 -2 34 -5t58 -3t58 3t34 5l15 -28q-39 0 -58.5 -3t-27.5 -12l-120 -134l172 -221q11 -3 32.5 -6t46.5 -3l-18 -25l-107 4l-107 -4l-17 25q49 0 64.5 2t15.5 7q0 7 -12 27t-30 46t-40 55t-42 55q-3 2 -12 4.5t-23 2.5q-11 0 -20 -1t-14 -2z" />
    <glyph glyph-name="f_f_l.liga" unicode="ffl" horiz-adv-x="883" 
d="M107 416q-1 14 -2 50t-1 74q0 45 13 78t36.5 55t55.5 32.5t70 10.5q55 0 91.5 -17t57.5 -35q9 11 23.5 23t34.5 21.5t46 15.5t58 6q50 0 77.5 -8t38.5 -16q18 3 29.5 7.5t15.5 8.5l19 -15q-4 -32 -8 -130t-4 -256q0 -125 4 -197t8 -95q16 -2 41.5 -5t48.5 -3l-17 -25
l-119 4l-106 -4l-17 25q23 0 47 3t38 5q2 21 4.5 94t2.5 198q0 49 -0.5 100.5t-1.5 97.5t-2 84t-2 61q-11 15 -33 28.5t-62 13.5q-68 0 -104 -42t-36 -120q0 -35 4 -69.5t6 -54.5q16 -2 54.5 -3.5t94.5 -1.5l-11 -30q-58 0 -92 -2t-44 -4q0 -148 1 -234.5t3 -115.5
q16 -2 44 -5t57 -3l-17 -25l-119 4l-109 -4l-17 25q27 0 50.5 3t35.5 5q1 17 1.5 49.5t1 78t1 102t0.5 121.5q-8 2 -31 3.5t-58 1.5q-42 0 -78 -2t-55 -4q0 -146 1 -232.5t3 -117.5q16 -2 44 -5t57 -3l-17 -25l-119 4l-109 -4l-17 25q27 0 50.5 3t35.5 5q2 27 3 117.5
t1 233.5q-9 2 -31.5 3.5t-53.5 1.5l8 22zM168 545q0 -17 0.5 -35.5t1 -35.5t1.5 -31.5t2 -22.5q25 -2 66.5 -4.5t80.5 -2.5q28 0 48 1t28 2q-2 21 -4 49.5t-2 45.5q0 39 4.5 69.5t9.5 43.5q-7 11 -17.5 23t-25 21.5t-33 15.5t-40.5 6q-23 0 -45 -6.5t-38.5 -23t-26.5 -44.5
t-10 -71z" />
    <glyph glyph-name="f_f_lcaron.liga" unicode="ff&#x13e;" horiz-adv-x="925" 
d="M107 416q-1 14 -2 50t-1 74q0 45 13 78t36.5 55t55.5 32.5t70 10.5q55 0 91.5 -17t57.5 -35q9 11 23.5 23t34.5 21.5t46 15.5t58 6q50 0 77.5 -8t38.5 -16q18 3 29.5 7.5t15.5 8.5l19 -15q-4 -32 -8 -130t-4 -256q0 -125 4 -197t8 -95q16 -2 41.5 -5t48.5 -3l-17 -25
l-119 4l-106 -4l-17 25q23 0 47 3t38 5q2 21 4.5 94t2.5 198q0 49 -0.5 100.5t-1.5 97.5t-2 84t-2 61q-11 15 -33 28.5t-62 13.5q-68 0 -104 -42t-36 -120q0 -35 4 -69.5t6 -54.5q16 -2 54.5 -3.5t94.5 -1.5l-11 -30q-58 0 -92 -2t-44 -4q0 -148 1 -234.5t3 -115.5
q16 -2 44 -5t57 -3l-17 -25l-119 4l-109 -4l-17 25q27 0 50.5 3t35.5 5q1 17 1.5 49.5t1 78t1 102t0.5 121.5q-8 2 -31 3.5t-58 1.5q-42 0 -78 -2t-55 -4q0 -146 1 -232.5t3 -117.5q16 -2 44 -5t57 -3l-17 -25l-119 4l-109 -4l-17 25q27 0 50.5 3t35.5 5q2 27 3 117.5
t1 233.5q-9 2 -31.5 3.5t-53.5 1.5l8 22zM805 475q4 16 8.5 40t8 52t6 59t2.5 62q28 0 49 4t31 8q-3 -36 -10 -71t-16 -67t-19.5 -58t-19.5 -44zM168 545q0 -17 0.5 -35.5t1 -35.5t1.5 -31.5t2 -22.5q25 -2 66.5 -4.5t80.5 -2.5q28 0 48 1t28 2q-2 21 -4 49.5t-2 45.5
q0 39 4.5 69.5t9.5 43.5q-7 11 -17.5 23t-25 21.5t-33 15.5t-40.5 6q-23 0 -45 -6.5t-38.5 -23t-26.5 -44.5t-10 -71z" />
    <glyph glyph-name="longs_b.liga" unicode="&#x17f;b" horiz-adv-x="825" 
d="M107 416q-1 24 -2 60t-1 63q0 41 10.5 76t31.5 60.5t53 40t75 14.5q45 0 73.5 -8t38.5 -16q15 2 27 6.5t18 9.5l19 -15q-1 -23 -2 -59t-2 -80t-1.5 -95t-0.5 -104q20 23 54 43t88 20q89 0 140 -54t51 -161q0 -58 -15 -102t-42.5 -74t-66 -45t-84.5 -15q-35 0 -60 7.5
t-41.5 16t-26 16t-13.5 7.5q-6 0 -12.5 -10t-12 -25.5t-8.5 -34t-3 -35.5l-26 17q4 26 7.5 111t3.5 228q0 51 -0.5 103t-1.5 100t-2.5 89.5t-2.5 72.5q-1 8 -6.5 18.5t-17.5 20t-30 16t-43 6.5q-57 0 -81 -39t-24 -120q0 -49 3.5 -112t3.5 -157q0 -103 1 -165.5t3 -82.5
q19 -2 50.5 -5t60.5 -3l-17 -25l-129 4l-109 -4l-17 25q27 0 50.5 3t35.5 5q2 23 3 110t1 241q-11 2 -34 3.5t-51 1.5l8 22zM446 71q5 -8 14.5 -17.5t24 -18t32.5 -14.5t41 -6q68 0 105.5 47t37.5 156q0 93 -34.5 138.5t-89.5 45.5q-23 0 -43.5 -7.5t-37.5 -19t-30 -25.5
t-22 -27q0 -94 0.5 -158.5t1.5 -93.5z" />
    <glyph glyph-name="longs_h.liga" unicode="&#x17f;h" horiz-adv-x="857" 
d="M107 416q-1 24 -2 61t-1 69q0 91 42.5 137.5t133.5 46.5q42 0 66.5 -7.5t38.5 -15.5q13 2 25.5 6.5t20.5 8.5l19 -15q-2 -32 -5 -121t-3 -226q10 12 24.5 25t33.5 23.5t43 17t53 6.5q83 0 117 -34.5t34 -95.5q0 -128 1 -194t3 -79q8 -2 28.5 -5t49.5 -3l-17 -25l-99 4
l-100 -4l-17 25q32 0 50.5 2.5t27.5 5.5q2 14 3 75.5t1 176.5q0 112 -104 112q-23 0 -42.5 -7.5t-36 -19t-30 -26t-23.5 -29.5q0 -127 0.5 -195.5t0.5 -86.5q8 -2 29.5 -5t52.5 -3l-17 -25l-105 4l-94 -4l-18 25q29 0 50 3t29 5q2 25 3 93.5t1 171.5q0 52 -1 104t-2 99
t-2 88t-2 72q-3 6 -9 14.5t-16.5 16t-25.5 12.5t-36 5q-26 0 -46.5 -7.5t-35 -25.5t-22.5 -47.5t-8 -72.5q0 -26 1 -52t2.5 -57.5t2.5 -71.5t1 -94q0 -103 1 -165.5t3 -82.5q12 -2 37 -5t54 -3l-17 -25l-109 4l-109 -4l-17 25q27 0 50.5 3t35.5 5q2 23 3 110t1 241
q-11 2 -34 3.5t-51 1.5l8 22z" />
    <glyph glyph-name="longs_i.liga" unicode="&#x17f;i" horiz-adv-x="576" 
d="M302 730q75 0 117.5 -32.5t42.5 -83.5q0 -29 -14 -46.5t-43 -17.5q-23 0 -33.5 10t-13.5 24q7 2 15.5 11.5t8.5 29.5q0 33 -19.5 56.5t-70.5 23.5q-21 0 -43.5 -8t-41 -26t-30 -48t-11.5 -75q0 -26 1.5 -50t3 -55t3 -73.5t1.5 -105.5q0 -95 1 -155t3 -80q16 -2 44 -5
t57 -3l-17 -25l-119 4l-109 -4l-17 25q27 0 50.5 3t35.5 5q2 31 3 121t1 230q-11 2 -33.5 3.5t-51.5 1.5l8 22l76 9q-2 17 -3.5 50t-1.5 64q0 52 16.5 90t44 62.5t64 36t75.5 11.5zM465 448q-2 -16 -4.5 -41.5t-4.5 -57.5t-3 -69.5t-1 -77.5q0 -68 2.5 -112t4.5 -61
q10 -2 30.5 -5t48.5 -3l-17 -25l-99 4l-104 -4l-17 25q29 0 49.5 3t29.5 5q2 17 4.5 62t2.5 111q0 53 -1 95t-3 62q-7 6 -25.5 12.5t-46.5 6.5l11 23q31 0 54.5 6.5t39 16t23.5 20t8 18.5z" />
    <glyph glyph-name="longs_k.liga" unicode="&#x17f;k" horiz-adv-x="802" 
d="M271 730q48 0 76 -8t40 -16q19 3 30 8t15 8l19 -15q-4 -32 -8 -130t-4 -256q0 -131 4 -202.5t8 -88.5q11 -3 33 -6t45 -3l-17 -25l-107 4l-103 -4l-17 25q23 0 45.5 3t36.5 6q2 18 4.5 89.5t2.5 201.5q0 55 -0.5 107.5t-2 97.5t-3 80.5t-2.5 55.5q-8 14 -30.5 28
t-65.5 14q-48 0 -75 -38.5t-27 -119.5q0 -49 3.5 -112t3.5 -157q0 -103 1 -165.5t3 -82.5q12 -2 37 -5t54 -3l-17 -25l-109 4l-109 -4l-17 25q27 0 50.5 3t35.5 5q2 23 3 110t1 241q-11 2 -34 3.5t-51 1.5l8 22l76 9q-1 24 -2 60t-1 63q0 41 11.5 76t33 60.5t52.5 40
t70 14.5zM455 243q29 0 47.5 4t24.5 8q15 18 31.5 39.5t30.5 40.5t23 34t9 20q0 12 -75 12l19 27q10 -2 34 -5t58 -3t58 3t34 5l15 -27q-45 0 -62 -4t-24 -12l-120 -134l172 -221q11 -3 32.5 -6t46.5 -3l-18 -25l-107 4l-107 -4l-17 25q49 0 64.5 2t15.5 7q0 7 -12 27
t-30 46t-40 55t-42 55q-4 2 -13.5 4.5t-23.5 2.5q-10 0 -18.5 -1t-13.5 -2z" />
    <glyph glyph-name="longs_l.liga" unicode="&#x17f;l" horiz-adv-x="574" 
d="M281 730q48 0 76.5 -8t39.5 -16q18 3 28.5 7t16.5 9l19 -15q-4 -32 -8 -130t-4 -256q0 -131 4 -202.5t8 -89.5q16 -2 41.5 -5t48.5 -3l-17 -25l-119 4l-103 -4l-17 25q21 0 44.5 3t37.5 5q2 21 4.5 94t2.5 198q0 124 -2 209t-4 134q-3 4 -9 11t-17.5 14t-28 12t-40.5 5
q-64 0 -89.5 -39.5t-25.5 -120.5q0 -49 3.5 -112t3.5 -157q0 -103 1 -165.5t3 -82.5q16 -2 44 -5t57 -3l-17 -25l-119 4l-109 -4l-17 25q27 0 50.5 3t35.5 5q2 21 3 107t1 244q-11 2 -34 3.5t-51 1.5l8 22l76 9q0 12 -0.5 27t-1 31t-1 30.5t-0.5 25.5q0 45 10.5 81.5t32 63
t55 41t79.5 14.5z" />
    <glyph glyph-name="longs_longs.liga" unicode="&#x17f;&#x17f;" horiz-adv-x="593" 
d="M540 730q60 0 90 -27t30 -65q0 -32 -16.5 -47t-41.5 -15q-21 0 -32 10.5t-13 21.5q9 3 19 13.5t10 30.5q0 23 -13 37.5t-39 14.5q-17 0 -32.5 -8.5t-27.5 -26.5t-19.5 -46.5t-7.5 -68.5q0 -62 3.5 -134t3.5 -156q0 -95 1 -155t3 -80q19 -2 50.5 -5t60.5 -3l-17 -25
l-129 4l-109 -4l-17 25q27 0 50.5 3t35.5 5q2 31 3 121t1 230q-11 2 -33.5 3.5t-51.5 1.5l8 23l76 8q-1 17 -2 51t-1 72q0 23 4 48.5t7 36.5q-5 7 -14 18.5t-23 22t-33 18t-42 7.5q-32 0 -53.5 -11.5t-35 -31.5t-19.5 -46.5t-6 -56.5q0 -46 3.5 -109.5t3.5 -157.5
q0 -103 1 -165.5t3 -82.5q12 -2 37 -5t54 -3l-17 -25l-109 4l-109 -4l-17 25q27 0 50.5 3t35.5 5q2 23 3 110t1 241q-11 2 -34 3.5t-51 1.5l8 23l76 8q-1 17 -2 47.5t-1 72.5q0 40 10.5 73t32.5 57t55.5 37t79.5 13q44 0 80 -17.5t56 -34.5q6 10 17.5 21.5t27 21.5t35 16.5
t42.5 6.5z" />
    <glyph glyph-name="longs_longs_i.liga" unicode="&#x17f;&#x17f;i" horiz-adv-x="847" 
d="M577 705q-27 0 -51.5 -10.5t-43 -30.5t-29.5 -49.5t-11 -66.5q0 -26 2 -50t4 -55t4 -73.5t2 -105.5q0 -36 0.5 -72t1 -67.5t1 -56.5t1.5 -39q16 -2 44 -5t57 -3l-17 -25l-119 4l-109 -4l-17 25q27 0 50.5 3t35.5 5q2 26 3 115.5t1 235.5q-11 2 -33.5 3.5t-51.5 1.5l8 22
l76 9q-2 17 -4 41.5t-2 61.5q0 56 17 99q-3 8 -12.5 20.5t-24 24t-34.5 19.5t-45 8q-31 0 -52.5 -11.5t-35 -31t-19.5 -46t-6 -55.5q0 -48 3.5 -111.5t3.5 -157.5q0 -40 0.5 -78.5t1 -71.5t1 -58.5t1.5 -39.5q12 -2 37 -5t54 -3l-17 -25l-109 4l-109 -4l-17 25q27 0 50.5 3
t35.5 5q2 23 3 110t1 241q-11 2 -34 3.5t-51 1.5l8 23l76 8q-1 17 -2 47.5t-1 72.5q0 40 10.5 73t32 57t54.5 37t79 13q24 0 46 -6t40.5 -14t32.5 -17.5t22 -16.5q26 35 66.5 51.5t88.5 16.5q83 0 124 -34t41 -83q0 -26 -13 -44.5t-42 -18.5q-26 0 -35.5 10t-13.5 24
q7 2 15.5 11t8.5 31q0 32 -19.5 55.5t-64.5 23.5zM738 29q11 -2 32 -5t47 -3l-17 -25l-99 4l-104 -4l-17 25q29 0 49 3t30 5q2 17 4.5 62t2.5 111q0 53 -1 95t-3 62q-7 6 -25.5 12.5t-46.5 6.5l11 23q31 0 54.5 6.5t39 16t23.5 20t8 18.5l18 -14q-2 -16 -4.5 -41.5
t-4.5 -57.5t-3 -69.5t-1 -77.5q0 -71 2.5 -115t4.5 -58z" />
    <glyph glyph-name="longs_longs_l.liga" unicode="&#x17f;&#x17f;l" horiz-adv-x="853" 
d="M740 29q16 -2 41.5 -5t48.5 -3l-17 -25l-119 4l-103 -4l-17 25q21 0 44.5 3t37.5 5q2 21 4.5 94t2.5 198q0 61 -0.5 115.5t-1.5 98.5t-2 77t-2 52q-3 3 -9 10t-17.5 14t-28.5 12.5t-42 5.5q-63 0 -90.5 -40.5t-27.5 -119.5q0 -24 2 -48.5t4 -55.5t4 -70.5t2 -94.5
q0 -95 1 -157.5t3 -90.5q16 -2 44 -5t57 -3l-17 -25l-119 4l-109 -4l-17 25q27 0 50.5 3t35.5 5q2 21 3 107t1 244q-11 2 -34 3.5t-51 1.5l8 22l76 9q-2 18 -4 46t-2 58q0 27 4 52t12 47q-3 8 -12 20t-23.5 23.5t-34.5 19.5t-46 8q-30 0 -51.5 -11.5t-35 -31t-19.5 -44.5
t-6 -53q0 -50 3.5 -114.5t3.5 -158.5q0 -95 1 -157.5t3 -90.5q12 -2 37 -5t54 -3l-17 -25l-109 4l-109 -4l-17 25q27 0 50.5 3t35.5 5q2 23 3 110t1 241q-11 2 -33.5 3.5t-51.5 1.5l8 22l76 9q-1 17 -2 48t-1 78q0 38 10.5 70t32 55t54.5 36t77 13q28 0 51 -6t41 -14t30 -17
l20 -15q22 31 57 48.5t83 17.5t76.5 -8t39.5 -16q35 6 45 16l19 -15q-4 -32 -8 -130t-4 -256q0 -123 4 -194.5t8 -97.5z" />
    <glyph glyph-name="T_h.liga" unicode="Th" horiz-adv-x="1035" 
d="M929 29q29 -8 78 -8l-17 -25l-99 4l-100 -4l-17 25q31 0 49 2.5t29 5.5q1 10 1.5 24t1 40t1 69.5t0.5 112.5q0 60 -25.5 89t-79.5 29q-25 0 -46 -9t-37.5 -22t-28.5 -27.5t-19 -24.5v-185.5t1 -95.5q10 -2 29 -5t53 -3l-17 -25l-105 4l-94 -4l-18 25q29 0 49.5 3t29.5 5
q1 16 1.5 38t1 53t1 73.5t0.5 100.5t-0.5 104t-1 83.5t-2 69.5t-2.5 63q-6 6 -12.5 10.5t-16.5 7.5t-25 5t-38 2l-142 2q-5 -42 -7.5 -118t-2.5 -189t2.5 -193t7.5 -108q7 -3 22 -5.5t32.5 -4t36 -2t34.5 -0.5l-17 -25l-154 4l-154 -4l-17 25q16 0 34.5 0.5t36 2t32 4
t22.5 5.5q2 15 4 42.5t3.5 66.5t2 88t0.5 105q0 112 -2.5 188t-7.5 118l-142 -2q-49 -1 -68.5 -32.5t-19.5 -91.5l-30 23l28 157q35 -9 107.5 -14t171.5 -5h82q114 0 180.5 10t79.5 17l19 -15q-2 -26 -3 -52.5t-2.5 -63t-2 -87.5t-0.5 -125q7 7 19 19.5t31 24t44.5 20
t59.5 8.5q83 0 117 -34.5t34 -95.5q0 -78 0.5 -126.5t1 -78t1.5 -44t1 -24.5z" />
    <glyph glyph-name="Tcaron_h.liga" unicode="&#x164;h" horiz-adv-x="1035" 
d="M251 725q-8 19 -20.5 39.5t-28 37.5t-33.5 28t-37 11q0 23 8.5 32.5t26.5 9.5q16 0 31 -12.5t28 -32t23.5 -43t17.5 -44.5q6 21 16 44.5t23 43t28.5 32t32.5 12.5q36 0 36 -42q-20 0 -38.5 -11t-34 -28t-28 -37.5t-19.5 -39.5h-32zM929 29q29 -8 78 -8l-17 -25l-99 4
l-100 -4l-17 25q31 0 49 2.5t29 5.5q1 10 1.5 24t1 40t1 69.5t0.5 112.5q0 60 -25.5 89t-79.5 29q-25 0 -46 -9t-37.5 -22t-28.5 -27.5t-19 -24.5v-185.5t1 -95.5q10 -2 29 -5t53 -3l-17 -25l-105 4l-94 -4l-18 25q29 0 49.5 3t29.5 5q1 16 1.5 38t1 53t1 73.5t0.5 100.5
t-0.5 104t-1 83.5t-2 69.5t-2.5 63q-6 6 -12.5 10.5t-16.5 7.5t-25 5t-38 2l-142 2q-5 -42 -7.5 -118t-2.5 -189t2.5 -193t7.5 -108q7 -3 22 -5.5t32.5 -4t36 -2t34.5 -0.5l-17 -25l-154 4l-154 -4l-17 25q16 0 34.5 0.5t36 2t32 4t22.5 5.5q2 15 4 42.5t3.5 66.5t2 88
t0.5 105q0 112 -2.5 188t-7.5 118l-142 -2q-49 -1 -68.5 -32.5t-19.5 -91.5l-30 23l28 157q35 -9 107.5 -14t171.5 -5h82q114 0 180.5 10t79.5 17l19 -15q-2 -26 -3 -52.5t-2.5 -63t-2 -87.5t-0.5 -125q7 7 19 19.5t31 24t44.5 20t59.5 8.5q83 0 117 -34.5t34 -95.5
q0 -78 0.5 -126.5t1 -78t1.5 -44t1 -24.5z" />
    <glyph glyph-name="uni021A_h.liga" unicode="&#x21a;h" horiz-adv-x="1035" 
d="M929 29q29 -8 78 -8l-17 -25l-99 4l-100 -4l-17 25q31 0 49 2.5t29 5.5q1 10 1.5 24t1 40t1 69.5t0.5 112.5q0 60 -25.5 89t-79.5 29q-25 0 -46 -9t-37.5 -22t-28.5 -27.5t-19 -24.5v-185.5t1 -95.5q10 -2 29 -5t53 -3l-17 -25l-105 4l-94 -4l-18 25q29 0 49.5 3t29.5 5
q1 16 1.5 38t1 53t1 73.5t0.5 100.5t-0.5 104t-1 83.5t-2 69.5t-2.5 63q-6 6 -12.5 10.5t-16.5 7.5t-25 5t-38 2l-142 2q-5 -42 -7.5 -118t-2.5 -189t2.5 -193t7.5 -108q7 -3 22 -5.5t32.5 -4t36 -2t34.5 -0.5l-17 -25l-154 4l-154 -4l-17 25q16 0 34.5 0.5t36 2t32 4
t22.5 5.5q2 15 4 42.5t3.5 66.5t2 88t0.5 105q0 112 -2.5 188t-7.5 118l-142 -2q-49 -1 -68.5 -32.5t-19.5 -91.5l-30 23l28 157q35 -9 107.5 -14t171.5 -5h82q114 0 180.5 10t79.5 17l19 -15q-2 -26 -3 -52.5t-2.5 -63t-2 -87.5t-0.5 -125q7 7 19 19.5t31 24t44.5 20
t59.5 8.5q83 0 117 -34.5t34 -95.5q0 -78 0.5 -126.5t1 -78t1.5 -44t1 -24.5zM207 -124q0 26 14.5 41t41.5 15q28 0 44.5 -20.5t16.5 -55.5q0 -38 -11 -63t-27 -39.5t-35.5 -20.5t-35.5 -6l-8 20q15 0 30 5.5t27 16.5t19.5 29t7.5 42q-4 -5 -12.5 -10t-22.5 -5
q-22 0 -35.5 13.5t-13.5 37.5z" />
    <glyph glyph-name=".notdef" 
d="M490 0h-430v730h430v-730zM425 695h-300l150 -287zM100 73l153 292l-153 292v-584zM450 657l-153 -292l153 -292v584zM425 35l-150 287l-150 -287h300z" />
    <glyph glyph-name="glyph1" horiz-adv-x="600" 
 />
    <glyph glyph-name="glyph1" horiz-adv-x="600" 
 />
    <glyph glyph-name="uni000D" unicode="&#xd;" horiz-adv-x="230" 
 />
    <glyph glyph-name="space" unicode=" " horiz-adv-x="230" 
 />
    <glyph glyph-name="exclam" unicode="!" horiz-adv-x="233" 
d="M91 707q5 7 14.5 13.5t26.5 6.5q71 0 71 -98q0 -45 -10.5 -93.5t-22.5 -97t-22.5 -96t-10.5 -89.5q0 -37 32 -37q0 -8 -7 -17.5t-24 -9.5q-20 0 -31.5 13.5t-11.5 41.5q0 36 4.5 79t10 89.5t10 96t4.5 99.5q0 36 -11 62t-22 37zM80 45q0 26 17 44t43 18t43 -18t17 -44
t-17 -43t-43 -17t-43 17t-17 43z" />
    <glyph glyph-name="quotedbl" unicode="&#x22;" horiz-adv-x="290" 
d="M56 457q0 74 -5 136.5t-11 94.5q31 0 52 4t28 8q0 -31 -2 -63.5t-6 -63t-8.5 -57.5t-9.5 -47zM186 457q0 74 -5 136.5t-11 94.5q31 0 52 4t28 8q0 -31 -2 -63.5t-6 -63t-8.5 -57.5t-9.5 -47z" />
    <glyph glyph-name="numbersign" unicode="#" horiz-adv-x="636" 
d="M232 458l49 5l-21 -131h160l21 126l49 5l-22 -131h128l-8 -42h-125l-26 -160h130l-8 -42h-128l-22 -138l-49 -7l23 145h-161l-23 -138l-49 -7l24 145h-134l6 42h135l25 160h-137l6 42h137zM389 130l25 160h-160l-25 -160h160z" />
    <glyph glyph-name="dollar" unicode="$" horiz-adv-x="482" 
d="M402 100q0 -56 -40.5 -89t-118.5 -35l-8 -140l-32 5l7 136q-61 5 -95.5 29t-34.5 72q0 32 16 49t36 17q9 0 14.5 -2t8.5 -4q-5 -6 -9.5 -20.5t-4.5 -34.5q0 -34 19.5 -52t51.5 -23l10 178q-32 11 -58 23.5t-44.5 29t-29 38.5t-10.5 52q0 57 41.5 88.5t114.5 33.5l7 137
l32 -5l-7 -133q66 -5 98 -33.5t32 -66.5q0 -29 -16.5 -45.5t-39.5 -16.5q-11 0 -17 4q4 7 8 21t4 33q0 26 -16.5 48.5t-54.5 27.5l-10 -186q37 -13 64.5 -25.5t45.5 -27.5t27 -35t9 -48zM137 342q0 -36 20 -58.5t68 -39.5l9 180q-97 -3 -97 -82zM244 6q42 2 70 23t28 59
q0 35 -21.5 54.5t-68.5 35.5z" />
    <glyph glyph-name="percent" unicode="%" horiz-adv-x="756" 
d="M124 -25l-29 27l537 657l29 -27zM80 478q0 80 33 125.5t99 45.5t98.5 -45.5t32.5 -125.5t-34.5 -124.5t-96.5 -44.5t-97 44.5t-35 124.5zM139 478q0 -69 17.5 -104t55.5 -35t55 35t17 104t-16.5 108t-55.5 39t-56 -39t-17 -108zM413 154q0 80 33 125.5t99 45.5
t98.5 -45.5t32.5 -125.5t-34.5 -124.5t-96.5 -44.5t-97 44.5t-35 124.5zM472 154q0 -69 17.5 -104t55.5 -35t55 35t17 104t-16.5 108t-55.5 39t-56 -39t-17 -108z" />
    <glyph glyph-name="ampersand" unicode="&#x26;" horiz-adv-x="875" 
d="M45 173q0 55 20 91.5t50 58.5t65.5 31t65.5 9v2q-23 1 -49 9.5t-47.5 27t-35.5 48.5t-14 75q0 39 15 70.5t43 53t66.5 33t86.5 11.5t82 -10.5t55.5 -28.5t31.5 -41t10 -48q0 -42 -18 -61t-48 -19q-26 0 -37.5 13t-11.5 32q19 0 34.5 10.5t15.5 44.5q0 15 -6 29.5
t-19.5 25t-35 17t-53.5 6.5q-65 0 -103.5 -34.5t-38.5 -103.5q0 -74 45 -113.5t123 -39.5q0 -22 -40 -22q-77 0 -124.5 -41t-47.5 -127q0 -92 54 -132.5t154 -40.5q54 0 100 13t79 42t52 74.5t19 111.5q0 35 -4 53.5t-7 26.5q-44 -9 -81.5 -19.5t-64.5 -24.5t-42.5 -32.5
t-15.5 -43.5q0 -26 13 -40t33 -14q21 0 33.5 9.5t12.5 32.5q0 20 -8.5 28.5t-13.5 10.5q2 4 8 8.5t17 4.5q17 0 27 -13t10 -33q0 -35 -21.5 -55.5t-62.5 -20.5q-35 0 -56.5 19.5t-21.5 57.5q0 31 14 54.5t42 41.5t70 32t99 26q-8 22 -15 33.5t-12 18.5q2 2 10.5 8t23.5 6
q44 0 68 -51q111 20 169 48t58 73q0 19 -12 32t-43 13q0 11 11 24t37 13q29 0 45.5 -18.5t16.5 -48.5q0 -32 -15 -56t-47 -43.5t-84 -35.5t-125 -31q4 -12 7.5 -32.5t3.5 -47.5q0 -66 -22 -120t-64.5 -92.5t-106 -59.5t-145.5 -21q-129 0 -203 50t-74 152z" />
    <glyph glyph-name="quotesingle" unicode="'" horiz-adv-x="160" 
d="M56 457q0 74 -5 136.5t-11 94.5q31 0 52 4t28 8q0 -31 -2 -63.5t-6 -63t-8.5 -57.5t-9.5 -47z" />
    <glyph glyph-name="parenleft" unicode="(" horiz-adv-x="406" 
d="M446 740q-62 -13 -119.5 -48.5t-102.5 -96.5t-72 -149t-27 -206t27 -206t72 -149t102.5 -96.5t119.5 -48.5l-25 -24q-22 0 -58.5 11t-77.5 36.5t-83 65.5t-75.5 98.5t-55 136t-21.5 176.5t21.5 176.5t55.5 136t76 99t83 65.5t77 36.5t58 11.5z" />
    <glyph glyph-name="parenright" unicode=")" horiz-adv-x="406" 
d="M-15 765q22 0 58 -11.5t77 -36.5t83 -65.5t76 -99t55.5 -136t21.5 -176.5t-21.5 -176.5t-55 -136t-75.5 -98.5t-83 -65.5t-77.5 -36.5t-58.5 -11l-25 24q61 13 119 48.5t103 96.5t72 149t27 206t-27 206t-72 149t-103 96.5t-119 48.5z" />
    <glyph glyph-name="asterisk" unicode="*" horiz-adv-x="383" 
d="M193 710q29 0 29 -32q0 -29 -9 -60.5t-18 -50.5h-4q-9 19 -18.5 50.5t-9.5 60.5q0 17 8 24.5t22 7.5zM40 586q0 29 29 29q11 0 25.5 -5.5t30 -14t30 -18.5t26.5 -19l-1 -5q-6 -2 -20.5 -4t-35.5 -2q-84 0 -84 39zM343 585q0 -18 -19.5 -28t-61.5 -10q-20 0 -34.5 2
t-21.5 4l-1 5q11 9 25 19t29 18.5t30 14t27 5.5q27 0 27 -30zM119 420q-13 0 -21 8.5t-8 22.5q0 13 9 26t23 25.5t30.5 23t31.5 17.5l4 -2q-4 -21 -10 -42.5t-15 -39t-20 -28.5t-24 -11zM266 420q-14 0 -24.5 11t-19 28.5t-14.5 39t-10 42.5l4 2q15 -9 31.5 -20.5t30 -24
t22.5 -25t9 -22.5q0 -17 -8.5 -24t-20.5 -7z" />
    <glyph glyph-name="plus" unicode="+" horiz-adv-x="466" 
d="M210 392h46v-141h130v-44h-130v-141h-46v141h-130v44h130v141z" />
    <glyph glyph-name="comma" unicode="," horiz-adv-x="204" 
d="M40 42q0 27 15.5 43.5t44.5 16.5q30 0 47 -20t17 -57q0 -45 -10 -75t-26.5 -49.5t-37.5 -30t-42 -16.5l-8 20q15 5 30.5 12.5t28.5 21.5t21 36t8 56q-3 -5 -13 -9.5t-25 -4.5q-19 0 -34.5 14t-15.5 42z" />
    <glyph glyph-name="hyphen" unicode="-" horiz-adv-x="335" 
d="M285 202h-235v54h235v-54z" />
    <glyph glyph-name="period" unicode="." horiz-adv-x="200" 
d="M40 45q0 26 17 44t43 18t43 -18t17 -44t-17 -43t-43 -17t-43 17t-17 43z" />
    <glyph glyph-name="slash" unicode="/" horiz-adv-x="379" 
d="M40 -260h-50l349 1000h50z" />
    <glyph glyph-name="zero" unicode="0" horiz-adv-x="526" 
d="M50 207q0 50 15.5 91.5t43.5 71t67 46t87 16.5t87 -16.5t67 -46t43.5 -71t15.5 -91.5t-15.5 -91.5t-43 -71.5t-67 -46.5t-87.5 -16.5t-87.5 16.5t-67 46.5t-43 71.5t-15.5 91.5zM102 207q0 -75 41.5 -123.5t119.5 -48.5t119.5 48.5t41.5 123.5t-41.5 123t-119.5 48
t-119.5 -48t-41.5 -123z" />
    <glyph glyph-name="one" unicode="1" horiz-adv-x="386" 
d="M58 409q87 0 154 9.5t98 18.5l10 -29q-15 -5 -39.5 -10.5t-45.5 -9.5q-2 -17 -4.5 -64.5t-2.5 -118.5q0 -69 1 -110.5t3 -63.5q13 -2 30 -3.5t35.5 -3t36 -2.5t32.5 -1l-16 -25l-152 4l-157 -4l-16 25q32 0 70.5 3.5t64.5 6.5q2 24 3 66.5t1 107.5q0 64 -1 109t-3 64
q-13 -1 -44 -2t-76 -1z" />
    <glyph glyph-name="two" unicode="2" horiz-adv-x="512" 
d="M206 135q33 19 57 36.5t39.5 36.5t23.5 41.5t8 53.5q0 47 -28.5 74t-82.5 27t-79 -22t-25 -52q0 -25 12.5 -35.5t32.5 -10.5q0 -26 -13.5 -41.5t-40.5 -15.5q-25 0 -41.5 16t-16.5 54q0 26 10.5 50.5t33 43t57 30t82.5 11.5q96 0 138 -34t42 -94q0 -31 -10.5 -55.5
t-33 -47t-59 -44.5t-88.5 -49l-101 -52h267q14 0 24 4.5t17.5 14.5t13.5 26.5t11 41.5l26 -25l-36 -123q-15 2 -63 3.5t-128 1.5q-81 0 -134 -1.5t-73 -3.5l-18 35z" />
    <glyph glyph-name="three" unicode="3" horiz-adv-x="485" 
d="M72 548q0 26 11 49.5t32 41t51.5 27.5t69.5 10q42 0 72.5 -11.5t49.5 -30t28 -42t9 -47.5q0 -30 -7 -55.5t-24 -48t-46.5 -42.5t-74.5 -40l1 -4q5 2 13 3t17 1q36 0 64.5 -13.5t47.5 -36t29 -52t10 -61.5q0 -48 -14.5 -87.5t-42 -68t-66 -44t-86.5 -15.5q-72 0 -114 29.5
t-42 88.5q0 35 16.5 52.5t39.5 17.5q20 0 30 -11.5t10 -25.5q-10 0 -19.5 -10.5t-9.5 -33.5q0 -37 25 -54t62 -17q29 0 54 9.5t43.5 29t29 50t10.5 72.5q0 79 -33 117.5t-90 38.5q-26 0 -42 -9t-25 -9q-12 0 -12 13l90 53q20 12 37 25.5t29 31.5t18.5 41.5t6.5 54.5
q0 52 -26.5 83t-77.5 31q-47 0 -70 -23.5t-23 -52.5q0 -23 11 -33t29 -10q0 -18 -10 -33t-35 -15q-24 0 -40 15.5t-16 50.5z" />
    <glyph glyph-name="four" unicode="4" horiz-adv-x="537" 
d="M20 35q63 52 105.5 99t68 90t36 83t10.5 78q0 45 -15.5 60t-34.5 15q0 19 13 34.5t37 15.5q30 0 47.5 -22.5t17.5 -67.5q0 -49 -19 -99t-50.5 -98t-72.5 -93t-85 -82h225q0 53 -1 103t-2 76q24 7 42 20t26 23q0 -19 -0.5 -45.5t-1 -56.5t-1 -61t-0.5 -59h71q20 0 30 17.5
t18 61.5l23 -20l-30 -113q-9 2 -37 4t-75 2q0 -82 1 -124.5t3 -54.5q15 -3 44.5 -6.5t63.5 -3.5l-16 -25l-128 4l-127 -4l-16 25q37 0 66 3.5t43 6.5q2 11 3 54.5t1 124.5q-110 0 -176 -1t-86 -3z" />
    <glyph glyph-name="five" unicode="5" horiz-adv-x="471" 
d="M58 420h280q24 0 35 15.5t20 53.5l23 -20l-39 -119q-19 2 -59 5t-88 3q-43 0 -74.5 -1t-45.5 -3l8 -203q11 8 36.5 16t60.5 8q50 0 87.5 -15t62.5 -40t37.5 -58.5t12.5 -69.5q0 -45 -14.5 -84.5t-42.5 -69.5t-70.5 -47.5t-97.5 -17.5q-72 0 -111 29t-39 78q0 30 14.5 47
t37.5 17q20 0 29 -10t11 -20q-7 -3 -14.5 -13.5t-7.5 -30.5q0 -35 19.5 -52.5t64.5 -17.5q30 0 56 10.5t46 33t31.5 57.5t11.5 85q0 66 -36 107.5t-102 41.5q-37 0 -63.5 -13.5t-37.5 -27.5l-21 28z" />
    <glyph glyph-name="six" unicode="6" horiz-adv-x="583" 
d="M326 362q43 0 77.5 -13.5t58 -38t36 -58t12.5 -72.5t-12.5 -75t-39.5 -63.5t-68.5 -44t-99.5 -16.5q-49 0 -89.5 14t-69.5 48t-45 89t-16 138q0 95 26.5 170.5t75 128t116 80t148.5 27.5q57 0 87 -13.5t30 -30.5q0 -7 -4 -10.5t-8 -3.5q-10 8 -37 16t-68 8
q-56 0 -108 -17t-93 -58.5t-65.5 -112.5t-24.5 -179q0 -71 10.5 -120t30 -79t47 -43t62.5 -13q31 0 56.5 8.5t44 27.5t29 48.5t10.5 70.5q0 68 -34.5 111.5t-98.5 43.5q-39 0 -64.5 -15.5t-33.5 -31.5q-10 0 -10 10q0 7 7.5 18.5t24 23t41 19.5t59.5 8z" />
    <glyph glyph-name="seven" unicode="7" horiz-adv-x="484" 
d="M52 432q26 -3 81.5 -6.5t126.5 -3.5q72 0 126.5 3.5t78.5 6.5l9 -20q-31 -33 -65 -73.5t-67.5 -85t-63.5 -92t-53 -94.5t-36.5 -92t-13.5 -85q0 -30 17 -40t43 -10q0 -26 -12.5 -45.5t-42.5 -19.5q-60 0 -60 75q0 64 28.5 136t69.5 141.5t86 130t77 101.5h-281
q-26 0 -39 -21.5t-16 -54.5l-25 24z" />
    <glyph glyph-name="eight" unicode="8" horiz-adv-x="527" 
d="M198 300q-14 -5 -29.5 -15t-28.5 -27t-21.5 -41.5t-8.5 -56.5q0 -69 39 -104t102 -35q64 0 101.5 32t37.5 92q0 26 -6.5 48t-23.5 43t-46.5 41.5t-75.5 43.5q-72 36 -108.5 83.5t-36.5 115.5q0 31 10.5 59.5t32 50t54.5 34t77 12.5q41 0 71.5 -12t50.5 -32t29.5 -48
t9.5 -59q0 -33 -10.5 -60t-25.5 -45.5t-31.5 -29t-28.5 -10.5q-8 0 -8 8q18 14 35.5 48t17.5 94q0 49 -27 82.5t-87 33.5q-51 0 -80.5 -30.5t-29.5 -84.5q0 -26 5.5 -47t20 -39.5t40.5 -36.5t67 -39q49 -25 83 -48.5t56 -48t32 -52.5t10 -62q0 -83 -58.5 -130t-158.5 -47
q-98 0 -144 45t-46 124q0 43 14.5 73.5t35 50t41.5 28t34 8.5t13 -10z" />
    <glyph glyph-name="nine" unicode="9" horiz-adv-x="566" 
d="M235 50q-38 0 -70.5 10t-57 31.5t-38.5 55.5t-14 83q0 45 14 82t40 64t64.5 41.5t87.5 14.5q57 0 100.5 -19.5t73.5 -55t45.5 -84.5t15.5 -108q0 -84 -22 -157t-65.5 -127t-109.5 -85t-154 -31q-63 0 -89 12t-26 29q0 9 4.5 13t9.5 4q9 -7 35.5 -15.5t70.5 -8.5
q55 0 104.5 20t86.5 64.5t58.5 114.5t21.5 169q0 66 -14 111t-36.5 72.5t-51.5 39.5t-59 12q-60 0 -95 -44t-35 -123q0 -47 10.5 -76.5t27.5 -46.5t39.5 -23.5t46.5 -6.5q42 0 69 14t37 28q7 0 7 -9q0 -8 -8.5 -19t-25.5 -21t-41.5 -17.5t-56.5 -7.5z" />
    <glyph glyph-name="colon" unicode=":" horiz-adv-x="200" 
d="M40 366q0 26 17 44t43 18t43 -18t17 -44t-17 -43t-43 -17t-43 17t-17 43zM40 45q0 26 17 44t43 18t43 -18t17 -44t-17 -43t-43 -17t-43 17t-17 43z" />
    <glyph glyph-name="semicolon" unicode=";" horiz-adv-x="206" 
d="M46 366q0 26 17 44t43 18t43 -18t17 -44t-17 -43t-43 -17t-43 17t-17 43zM40 42q0 27 15.5 43.5t44.5 16.5q30 0 47 -20t17 -57q0 -45 -10 -75t-26.5 -49.5t-37.5 -30t-42 -16.5l-8 20q15 5 30.5 12.5t28.5 21.5t21 36t8 56q-3 -5 -13 -9.5t-25 -4.5q-19 0 -34.5 14
t-15.5 42z" />
    <glyph glyph-name="less" unicode="&#x3c;" horiz-adv-x="457" 
d="M377 391l-232 -180l232 -189l-28 -41l-269 222v16l269 213z" />
    <glyph glyph-name="equal" unicode="=" horiz-adv-x="470" 
d="M390 275h-310v48h310v-48zM390 135h-310v48h310v-48z" />
    <glyph glyph-name="greater" unicode="&#x3e;" horiz-adv-x="457" 
d="M108 429l269 -222v-16l-269 -213l-28 41l232 180l-232 189z" />
    <glyph glyph-name="question" unicode="?" horiz-adv-x="485" 
d="M254 228q0 -22 -11.5 -36.5t-37.5 -14.5t-40 15t-14 40q0 34 17 58.5t43 45t55.5 41t55.5 46t43 59.5t17 82q0 60 -36 97t-117 37q-59 0 -92 -26.5t-33 -68.5q0 -27 18 -42.5t45 -15.5q0 -21 -12 -39t-46 -18q-32 0 -50.5 23t-18.5 60q0 33 13.5 61.5t40.5 49.5t66.5 33
t91.5 12q53 0 91.5 -13t63 -35t36.5 -52t12 -64q0 -47 -17.5 -81t-44.5 -59.5t-57.5 -44.5t-57.5 -37t-44.5 -37t-17.5 -43q0 -33 38 -33zM167 45q0 26 17 44t43 18t43 -18t17 -44t-17 -43t-43 -17t-43 17t-17 43z" />
    <glyph glyph-name="at" unicode="@" horiz-adv-x="920" 
d="M407 311q0 -26 -14 -41.5t-42 -15.5q-23 0 -36.5 13t-13.5 43q0 22 11.5 43.5t34 39t55 28.5t75.5 11q37 0 61.5 -8.5t39.5 -23.5t21.5 -35t6.5 -42v-233q0 -38 12 -54t40 -16q23 0 45 12t39 40.5t27.5 74t10.5 113.5q0 75 -19.5 136t-58 103.5t-95 66t-129.5 23.5
t-134 -25.5t-105.5 -74.5t-69 -120.5t-24.5 -162.5q0 -102 28 -172.5t74.5 -114.5t107 -64t125.5 -20q50 0 88 8.5t65 21t43 27.5t22 28q8 -2 15 -8t7 -17q0 -17 -15 -33.5t-46 -30t-78 -21.5t-111 -8q-83 0 -154 23.5t-123.5 73t-82.5 126t-30 182.5q0 94 28.5 170.5
t81 130.5t126 83t163.5 29q87 0 154.5 -26t113.5 -73.5t69.5 -113.5t23.5 -147q0 -69 -17 -121.5t-44.5 -87.5t-62.5 -52.5t-71 -17.5q-56 0 -78 31t-22 84l-4 1q-6 -21 -15.5 -41.5t-26 -37t-41 -27t-60.5 -10.5q-50 0 -78.5 23t-28.5 68q0 31 14 54t39.5 38t60 22.5
t75.5 7.5q23 0 39 -1t22 -3v108q0 58 -22.5 81t-78.5 23q-43 0 -66 -16t-23 -38q0 -21 13 -29t43 -8zM541 169q-7 2 -22.5 3t-35.5 1q-58 0 -89.5 -25t-31.5 -71q0 -56 59 -56q30 0 52.5 13.5t37.5 34.5t22.5 47.5t7.5 52.5z" />
    <glyph glyph-name="A" unicode="A" horiz-adv-x="683" 
d="M-20 21q48 0 71 4t35 8q13 39 30 91t35.5 110t38 119.5t37.5 120l34 110.5t29 92q43 0 67.5 11t31.5 16q19 -58 39.5 -122t40 -128t38 -126.5t35 -117.5t30.5 -100.5t24 -75.5q12 -4 36.5 -8t70.5 -4l-17 -25l-141 4l-141 -4l-17 25q51 0 77 4t38 8q-13 56 -34 132
t-44 157q-17 1 -42.5 1.5t-60.5 0.5q-39 0 -64 -0.5t-41 -1.5q-25 -81 -47.5 -153.5t-40.5 -135.5q11 -5 36 -8.5t76 -3.5l-17 -25l-121 4l-105 -4zM321 350q32 0 55 0.5t40 0.5q-26 89 -50.5 167.5t-40.5 125.5q-6 -2 -12 -2q-23 -76 -45 -148.5t-43 -141.5
q14 -1 37.5 -1.5t58.5 -0.5z" />
    <glyph glyph-name="B" unicode="B" horiz-adv-x="630" 
d="M45 680q13 -1 49 -2.5t88 -1.5q35 0 72.5 6t75.5 6q58 0 98 -13.5t65 -36.5t36 -53.5t11 -64.5q0 -47 -18 -78.5t-42.5 -50.5t-50 -27.5t-41.5 -9.5v-6q92 -6 147 -52.5t55 -127.5q0 -87 -58.5 -134t-171.5 -47q-31 0 -54.5 2t-44 4.5t-39 4.5t-39.5 2q-40 0 -71.5 -1
t-58.5 -3l-17 25q48 -1 75 3.5t40 8.5q2 23 6 100t4 219q0 121 -3.5 190.5t-5.5 93.5q-5 2 -13.5 5t-22.5 5.5t-35 4.5t-51 2zM233 356q0 -74 1 -127t2.5 -90.5t2.5 -61t2 -38.5q17 -8 40 -14t64 -6q78 0 118.5 37.5t40.5 111.5q0 80 -47 123t-147 43h-45l5 24h30
q72 0 116 38t44 119q0 36 -11 62t-30.5 43t-45 25t-53.5 8q-33 0 -51.5 -5.5t-27.5 -8.5q-1 -14 -2 -41t-2.5 -64.5t-2.5 -83t-1 -94.5z" />
    <glyph glyph-name="C" unicode="C" horiz-adv-x="712" 
d="M632 476q-4 19 -16 49.5t-38.5 60t-70.5 51t-111 21.5q-55 0 -102.5 -20.5t-82.5 -61.5t-55 -104t-20 -147t22.5 -143t59 -96t83.5 -53.5t97 -16.5q62 0 105.5 17t72.5 44t45 59.5t23 63.5l28 -22l-34 -136q-8 -5 -27 -15.5t-48.5 -20.5t-70 -17.5t-91.5 -7.5
q-79 0 -144.5 21.5t-112.5 65.5t-73 110t-26 156q0 78 24 143t69.5 112t113 73t154.5 26q45 0 82 -5.5t64.5 -12.5t45.5 -14t26 -11l39 -145z" />
    <glyph glyph-name="D" unicode="D" horiz-adv-x="749" 
d="M45 680q25 -2 56.5 -3t66.5 -1q28 0 48 2t38 4t37 4t46 2q90 0 159 -24.5t115 -70.5t69.5 -112t23.5 -148q0 -89 -26 -154t-73 -108t-112 -63.5t-143 -20.5q-29 0 -49 2t-38 4.5t-37 4.5t-45 2q-34 0 -70 -1.5t-58 -2.5l-17 25q48 0 73 3.5t42 8.5q2 21 3.5 48t3 63.5
t2.5 83.5t1 108q0 71 -1 121.5t-2.5 86t-3 57t-2.5 35.5q-5 2 -13.5 5t-22.5 5.5t-35 4.5t-51 2zM233 334q0 -57 0.5 -102t2 -80t2.5 -62.5t3 -50.5q15 -8 40 -14t63 -6q128 0 198.5 77.5t70.5 237.5q0 157 -75.5 238t-208.5 81q-32 0 -53 -4t-36 -10q0 -15 -1.5 -38.5
t-2.5 -59.5t-2 -86.5t-1 -120.5z" />
    <glyph glyph-name="E" unicode="E" horiz-adv-x="600" 
d="M45 680q31 -2 67 -3t87 -1q79 0 131.5 2t88 4.5t58.5 6t43 6.5l29 -157l-30 -23q-4 36 -9.5 60t-17 38.5t-29 20.5t-45.5 6l-175 2q-1 -14 -2.5 -35.5t-3.5 -55.5t-3 -82t-1 -115q23 -1 59.5 -2t84.5 -1q16 0 26 4.5t17 16t11 31.5t7 52l23 -10q-4 -28 -6.5 -53.5
t-2.5 -54.5q0 -31 1.5 -55t3.5 -48l-23 -10q-4 55 -14 77t-43 22q-45 0 -81.5 -1t-62.5 -2q0 -66 1 -112.5t2.5 -80t3.5 -56t4 -39.5l219 3q23 0 37 12t23 32t15 47.5t12 58.5l30 -22l-39 -182q-23 4 -48.5 7.5t-60 6t-80 4t-107.5 1.5q-72 0 -116 -1t-76 -3l-17 25
q48 0 74.5 4t40.5 8q4 40 7 112.5t3 194.5q0 127 -3.5 196.5t-5.5 99.5q-18 6 -45 11.5t-77 5.5z" />
    <glyph glyph-name="F" unicode="F" horiz-adv-x="539" 
d="M45 680q23 -2 70 -3t122 -1q70 0 118.5 2.5t81.5 5.5t52.5 6t30.5 5l29 -157l-30 -23q-3 33 -8 56.5t-15.5 38.5t-27 22.5t-42.5 7.5l-183 2q-2 -23 -6 -91.5t-4 -196.5q36 -1 75.5 -2t68.5 -1q15 0 25.5 4.5t17 16t11 31.5t7.5 52l23 -10q-2 -17 -5.5 -48t-3.5 -60
q0 -33 1.5 -55t3.5 -48l-23 -10q-2 28 -4.5 47t-8.5 30.5t-16.5 16.5t-27.5 5q-32 0 -67 -1t-77 -2q0 -77 1 -128t2.5 -83.5t3.5 -49.5t3 -26q13 -5 41 -8.5t88 -3.5l-17 -25l-161 4l-141 -4l-17 25q50 0 76.5 4t38.5 8q1 9 2.5 26.5t3 51t3 88.5t1.5 141q0 79 -1 130.5
t-2.5 84.5t-3 51l-2.5 30q-8 3 -35.5 10t-86.5 7z" />
    <glyph glyph-name="G" unicode="G" horiz-adv-x="776" 
d="M632 476q-5 24 -19 55.5t-41 59.5t-70.5 47.5t-107.5 19.5q-50 0 -96.5 -19.5t-82.5 -59t-57.5 -100.5t-21.5 -143t19.5 -142t53.5 -99.5t80.5 -59t100.5 -19.5q93 0 141.5 35.5t48.5 88.5q0 51 -1 74t-2 36q-17 5 -51 11.5t-72 6.5l13 27q25 -1 66.5 -2.5t81.5 -1.5
q48 0 81 1.5l55 2.5l15 -27q-34 0 -64.5 -6.5t-45.5 -11.5q-2 -14 -3 -37.5t-1 -76.5q0 -62 2 -100t3 -56l-22 -16q0 32 -7.5 56t-25.5 24q-12 0 -27.5 -10t-40.5 -21.5t-61.5 -21.5t-90.5 -10q-65 0 -125.5 19.5t-107.5 62.5t-75.5 110t-28.5 163q0 76 24 140.5t69 111.5
t110.5 73.5t149.5 26.5q49 0 87 -5t65.5 -12t45.5 -14.5t28 -11.5l39 -145z" />
    <glyph glyph-name="H" unicode="H" horiz-adv-x="848" 
d="M45 680q19 -2 55.5 -3t95.5 -1q60 0 93.5 1t59.5 3l15 -27q-48 0 -76.5 -5.5t-45.5 -11.5q-1 -14 -2.5 -34t-3 -57.5t-2.5 -97t-1 -150.5q6 12 14.5 24.5t20 23t27 17.5t36.5 7q28 0 51.5 -3t46.5 -6t47 -6t51 -3q36 0 56.5 7.5t31.5 18.5q0 64 -1 108t-2.5 73.5t-3 47.5
l-2.5 30q-8 3 -18 6t-24.5 5.5t-33.5 4t-46 1.5l15 27q23 -2 57 -3t91 -1q31 0 54.5 0.5t41.5 1t32 1t28 1.5l15 -27q-46 0 -76 -6t-46 -11q-1 -13 -2.5 -31t-3 -50t-2.5 -83.5t-1 -131.5q0 -66 0.5 -113.5t2 -83t3 -61.5t4.5 -49q14 -5 42 -8.5t73 -3.5l-17 -25l-148 4
l-140 -4l-17 25q25 0 43 1t31 2.5t22.5 4t18.5 4.5q2 38 6 122t4 221q-3 -7 -10 -19t-19 -23.5t-29.5 -20t-42.5 -8.5q-29 0 -53.5 3t-47 6l-45 6t-47.5 3q-22 0 -37 -3t-25 -7t-16 -9t-10 -8q0 -69 1 -115t2.5 -75t3.5 -46t3 -27q13 -5 38.5 -8.5t76.5 -3.5l-17 -25l-148 4
l-140 -4l-17 25q52 0 76 4t39 8q1 12 3 29.5t3.5 51t2.5 87.5t1 139q0 77 -1 128t-2.5 83.5t-3 51.5t-2.5 33q-11 5 -40 11t-82 6z" />
    <glyph glyph-name="I" unicode="I" horiz-adv-x="394" 
d="M45 680q22 -2 60 -3t92 -1q32 0 55 0.5t40 1t30 1t27 1.5l15 -27q-57 0 -84 -7t-38 -10q-3 -16 -5 -48t-2.5 -74.5t-1 -92.5t-0.5 -101q0 -66 1.5 -114t3 -82t3 -56t2.5 -35q9 -3 33.5 -7.5t81.5 -4.5l-17 -25l-148 4l-140 -4l-17 25q48 0 77 4.5t38 7.5q1 12 2.5 32.5
t3 54.5t3 82.5t1.5 117.5q0 51 -0.5 101t-1.5 92.5t-3 74.5t-4 48q-5 1 -13.5 4t-22.5 6t-35 5t-51 2z" />
    <glyph glyph-name="J" unicode="J" horiz-adv-x="389" 
d="M73 680q28 -2 66.5 -3t93.5 -1q33 0 55.5 0.5t39.5 1t31.5 1t29.5 1.5l15 -27q-53 0 -80 -6t-42 -11q-2 -19 -3.5 -40.5t-2.5 -54.5t-2 -81.5t-1 -121.5q0 -84 1 -137.5t2.5 -91.5t2.5 -67t1 -62q0 -103 -51 -159t-139 -56q-72 0 -111 25.5t-39 75.5q0 33 18.5 51.5
t45.5 18.5q25 0 35.5 -11t12.5 -19q-7 -2 -18.5 -12.5t-11.5 -35.5q0 -35 21.5 -50.5t50.5 -15.5q22 0 41 7.5t33 28.5t22.5 58.5t8.5 97.5q0 47 -0.5 109.5t-1 130t-1.5 134.5t-1.5 123.5t-1.5 97.5t-1 57q-21 5 -55 11t-79 6z" />
    <glyph glyph-name="K" unicode="K" horiz-adv-x="751" 
d="M45 680q26 -2 63.5 -3t82.5 -1h35.5t42.5 0.5t43 1.5t37 2l15 -27q-43 0 -75.5 -5.5t-46.5 -11.5q-4 -38 -6.5 -112t-2.5 -187t2.5 -192.5t7.5 -111.5q7 -3 19.5 -5.5t28 -4t33 -2t34.5 -0.5l-17 -25l-148 4l-140 -4l-17 25q13 0 29.5 0.5t32.5 2t30 4t23 5.5
q5 32 7.5 111.5t2.5 192.5q0 112 -2.5 186t-6.5 113q-14 6 -46.5 11.5t-75.5 5.5zM271 335q57 53 106 102t86 88.5t58 67t21 38.5q0 10 -24 16t-93 6l15 27q14 -1 32.5 -2t37.5 -1.5t36 -0.5h28q23 0 56.5 1t70.5 3l15 -27q-48 0 -75.5 -6t-38.5 -17l-252 -264v-4
q12 -13 36.5 -39t55 -58.5t64 -68t63 -66.5t52.5 -54.5t33 -31.5q7 -6 15 -10.5t19.5 -7.5t29 -4t43.5 -1l-15 -25l-151 4l-155 -4l-15 25q57 0 86.5 4t29.5 11q0 5 -17.5 27.5t-44 53t-59 65.5t-62.5 66.5t-53.5 55t-33.5 31.5z" />
    <glyph glyph-name="L" unicode="L" horiz-adv-x="590" 
d="M451 35q26 0 41.5 10.5t25.5 30t17 48.5t15 66l30 -22l-39 -187q-17 4 -42.5 7.5t-63 6t-88.5 4t-119 1.5q-65 0 -112.5 -1t-62.5 -3l-17 25q40 0 70.5 3.5t44.5 8.5q5 34 7.5 113t2.5 191t-2.5 186t-6.5 113q-15 7 -47.5 12t-74.5 5l15 27q26 -2 67.5 -3t86.5 -1h35.5
t40 0.5t40 1.5t34.5 2l15 -27q-44 0 -76 -5.5t-46 -11.5q-4 -35 -6.5 -105.5t-2.5 -184.5q0 -87 1.5 -142.5t3.5 -90t4 -52t3 -29.5z" />
    <glyph glyph-name="M" unicode="M" horiz-adv-x="988" 
d="M45 680q35 -2 72 -3t57 -1q29 0 51 1t36 3l238 -524l231 524q10 -2 31.5 -3t51.5 -1q29 0 65 1t65 3l15 -27q-43 0 -75.5 -5.5t-46.5 -11.5q-4 -36 -6.5 -111.5t-2.5 -187.5t2.5 -190.5t7.5 -113.5q7 -3 20 -5.5t28.5 -4t33 -2t33.5 -0.5l-17 -25l-144 4l-144 -4l-17 25
q16 0 34 0.5t33.5 2t28.5 4t19 5.5q2 13 4 41t3.5 65.5t2 83.5t0.5 95q0 70 -1.5 149t-5.5 160l-253 -578q-5 5 -15.5 10.5t-22.5 5.5l-254 561q-2 -48 -4 -126t-2 -172q0 -108 2.5 -183t6.5 -112q14 -5 44.5 -8.5t70.5 -3.5l-17 -25l-125 4l-126 -4l-17 25q16 0 33.5 0.5
t33.5 2t28.5 4t19.5 5.5q3 26 5.5 96.5t2.5 198.5q0 111 -2 189.5t-5 116.5q-7 4 -19.5 8t-29 6t-35.5 3.5t-38 1.5z" />
    <glyph glyph-name="N" unicode="N" horiz-adv-x="839" 
d="M45 680q32 -2 67.5 -3t56.5 -1q29 0 53 1t41 3q91 -137 159 -238t114.5 -170t72.5 -107.5t34 -49.5q1 34 2 65t1.5 61t1 60.5t0.5 62.5q0 100 -1.5 170t-3.5 102q-14 6 -46 11.5t-76 5.5l15 27q29 -2 64.5 -3t68.5 -1q36 0 68 1t67 3l15 -27q-42 0 -74.5 -5t-47.5 -12
q-5 -38 -8 -104.5t-3 -167.5q0 -77 1.5 -140.5t3 -111t3.5 -77.5t3 -40q-10 2 -26.5 3.5t-44.5 1.5l-423 624q-2 -47 -4 -121t-2 -170q0 -110 2.5 -188t6.5 -112q23 -6 48.5 -9t66.5 -3l-17 -25l-127 4l-124 -4l-17 25q38 0 67 2.5t48 9.5q3 27 5.5 100.5t2.5 205.5
q0 115 -2 190.5t-5 104.5q-14 9 -48.5 14t-73.5 5z" />
    <glyph glyph-name="O" unicode="O" horiz-adv-x="792" 
d="M45 326q0 76 23 142t67.5 115t110 77t150.5 28q84 0 149.5 -25.5t110 -71t68 -108.5t23.5 -139q0 -93 -28 -161.5t-75.5 -113t-111.5 -66.5t-136 -22q-75 0 -139 20.5t-111.5 63.5t-74 107.5t-26.5 153.5zM136 325q0 -82 20 -140.5t55 -96t82.5 -55t102.5 -17.5
q57 0 104.5 19t82 59t54 101t19.5 145q0 75 -19 134t-53.5 99.5t-82 62t-105.5 21.5q-53 0 -100 -19.5t-82.5 -60t-56.5 -103t-21 -149.5z" />
    <glyph glyph-name="P" unicode="P" horiz-adv-x="570" 
d="M45 680q20 -2 55.5 -3t74.5 -1q21 0 40.5 2l39 4t41 4t48.5 2q55 0 96 -13.5t67.5 -38t39.5 -59t13 -75.5q0 -59 -21 -97.5t-55.5 -61.5t-79 -32t-92.5 -9h-36l6 26h22q85 0 130.5 39t45.5 131q0 75 -39.5 115t-112.5 40q-29 0 -52.5 -4.5t-34.5 -9.5q-3 -56 -5.5 -125
t-2.5 -163q0 -46 0.5 -96t2 -94.5t3 -79t4.5 -48.5q7 -3 20.5 -5.5t30.5 -4t36.5 -2t37.5 -0.5l-17 -25l-162 4l-136 -4l-17 25q16 0 33.5 0.5t33.5 2t28.5 4t19.5 5.5q3 14 4.5 48t3 79t2 95t0.5 96q0 94 -2.5 170.5t-6.5 114.5q-20 7 -50 12t-72 5z" />
    <glyph glyph-name="Q" unicode="Q" horiz-adv-x="835" 
d="M45 323q0 77 22.5 143.5t67 116t111 77.5t154.5 28q82 0 147 -25t109 -71.5t67.5 -111.5t23.5 -144q0 -88 -27 -153.5t-73 -110t-107 -67t-128 -24.5q-14 -21 -31 -37.5t-31 -27.5q40 -9 90 -26t104.5 -33.5t111.5 -28.5t111 -12q80 0 130 29t58 85q6 0 13 -12.5t7 -37.5
q0 -26 -10.5 -51.5t-34 -45t-59.5 -31.5t-87 -12q-66 0 -127 18.5t-117 44t-107.5 52t-98.5 41.5q-23 -26 -50 -26q-34 0 -34 28q0 32 43 32q18 0 35 -5q8 8 19 23t20 34q-72 4 -131 27.5t-101.5 66.5t-66 105t-23.5 142zM136 330q0 -85 21 -144.5t56 -97t82 -55t100 -17.5
q57 0 105 19.5t82.5 58.5t54 98.5t19.5 139.5q0 79 -19 139.5t-53 102t-81.5 62.5t-104.5 21q-54 0 -101.5 -19.5t-83.5 -59.5t-56.5 -102t-20.5 -146z" />
    <glyph glyph-name="R" unicode="R" horiz-adv-x="705" 
d="M45 680q13 -1 31 -2t37.5 -1.5t37 -0.5h29.5q21 0 39 2t36.5 4t38.5 4t45 2q115 0 168 -47t53 -126q0 -53 -20 -87t-48.5 -54t-60.5 -29t-57 -11v-4q40 0 67 -22t46.5 -55t34.5 -71t30.5 -71t34.5 -55t48 -22q12 0 25 5t22 17q3 -3 5.5 -7.5t2.5 -12.5q0 -21 -20 -38
t-64 -17q-51 0 -80.5 25t-47.5 63t-29.5 81.5t-28 81.5t-43 63t-72.5 25h-45l6 24h24q39 0 74 9t61.5 28.5t41.5 51t15 77.5q0 143 -152 143q-26 0 -50.5 -4t-38.5 -10q-2 -28 -3.5 -58.5t-2.5 -65.5t-1.5 -77t-0.5 -94q0 -114 2.5 -196.5t7.5 -114.5q8 -3 22.5 -5.5
t31.5 -4t34.5 -2t31.5 -0.5l-17 -25l-150 4l-143 -4l-17 25q14 0 31 0.5t33 2t29.5 4t21.5 5.5q5 35 7.5 116.5t2.5 194.5q0 109 -2.5 180t-6.5 112q-14 6 -46.5 11.5t-75.5 5.5z" />
    <glyph glyph-name="S" unicode="S" horiz-adv-x="510" 
d="M79 197q0 -33 8 -65t27 -58t50 -42t78 -16q148 0 148 128q0 47 -25 77.5t-62.5 54t-81 44.5t-81 47.5t-62.5 63.5t-25 93q0 77 52.5 120.5t150.5 43.5q54 0 95.5 -11.5t62.5 -25.5l28 -129l-30 -23q0 18 -8 45.5t-27.5 52.5t-51 43t-78.5 18q-64 0 -94 -34t-30 -85
t25.5 -84t63.5 -57.5t82 -45t82 -46t63.5 -61t25.5 -89.5q0 -80 -57.5 -127.5t-167.5 -47.5q-41 0 -71.5 5.5t-53 13t-37 15.5t-21.5 14l-12 145z" />
    <glyph glyph-name="T" unicode="T" horiz-adv-x="536" 
d="M-12 695q35 -9 107.5 -14t171.5 -5q98 0 171.5 5t108.5 14l29 -157l-31 -23q0 60 -19.5 91.5t-68.5 32.5l-145 2q-5 -42 -7.5 -118t-2.5 -189t2.5 -193t7.5 -108q7 -3 22 -5.5t32.5 -4t36 -2t34.5 -0.5l-17 -25l-154 4l-154 -4l-17 25q16 0 34.5 0.5t36 2t32 4t22.5 5.5
q2 15 4 42.5t3.5 66.5t2 88t0.5 105q0 112 -2.5 188t-7.5 118l-142 -2q-49 -1 -68.5 -32.5t-19.5 -91.5l-30 23z" />
    <glyph glyph-name="U" unicode="U" horiz-adv-x="745" 
d="M5 680q23 -2 61.5 -3t89.5 -1t91.5 1t66.5 3l15 -27q-16 0 -34 -1t-34.5 -3t-30.5 -5.5t-23 -7.5q0 -11 -1 -38t-2 -75t-2 -118.5t-1 -169.5q0 -59 11.5 -100t34 -66.5t56 -36.5t78.5 -11q61 0 101 13.5t62.5 43t31.5 75t9 109.5q0 51 -0.5 106t-1.5 106t-2 93.5t-2 68.5
q-15 6 -47 11.5t-75 5.5l15 27q20 -2 54 -3t78 -1q43 0 78 1t58 3l15 -27q-40 0 -72.5 -4.5t-49.5 -12.5q-1 -20 -2 -51.5t-2 -76.5t-1.5 -105.5t-0.5 -138.5q0 -72 -10 -125t-38.5 -88.5t-78.5 -52.5t-129 -17q-70 0 -118 13t-78 42.5t-43 76t-13 113.5q0 190 -3.5 289.5
t-3.5 120.5q-15 7 -47.5 12t-74.5 5z" />
    <glyph glyph-name="V" unicode="V" horiz-adv-x="676" 
d="M-35 680q15 -1 34.5 -2t40 -1.5t40.5 -0.5h35q43 0 81 1t67 3l15 -27q-14 0 -31.5 -1t-34.5 -3t-31.5 -5t-23.5 -8q27 -95 55 -183.5t54.5 -164.5t49.5 -135.5t40 -96.5q27 66 56 142t57 152.5t53.5 150t45.5 135.5q-9 5 -24 8t-32 5t-34.5 3t-32.5 1l15 27
q23 -2 56.5 -3t73.5 -1q39 0 70.5 1t50.5 3l15 -27q-37 0 -67.5 -4.5t-43.5 -12.5q-21 -58 -45.5 -124.5t-50.5 -134t-51 -132.5t-46.5 -119.5t-38.5 -95.5t-26 -61q-8 12 -23 19.5t-35 7.5q-46 108 -105.5 267.5t-127.5 372.5q-15 6 -45 11.5t-71 5.5z" />
    <glyph glyph-name="W" unicode="W" horiz-adv-x="979" 
d="M-35 680q23 -2 61 -3t86 -1t84.5 1t58.5 3l15 -27q-33 0 -67 -4t-50 -13q0 -11 7 -40t18.5 -69t26.5 -88t30.5 -97.5t31 -97t28.5 -86.5l22 -66l12 -36q19 50 39.5 108.5t40 118t38 117t32.5 104.5q-3 12 -8 30t-10 36.5t-9 36t-7 29.5q-15 7 -46.5 12t-73.5 5l15 27
q16 -1 36 -2t41 -1.5t41 -0.5h35q44 0 81.5 1t63.5 3l15 -27q-45 0 -78 -5t-48 -12q0 -15 9 -57t24 -98.5t33 -121t36.5 -124t34.5 -107.5t26 -72q27 78 53.5 157.5t49.5 155t41.5 144t30.5 123.5q-14 7 -47 12t-77 5l15 27q30 -2 65.5 -3t68.5 -1q27 0 62.5 1t61.5 3
l15 -27q-38 0 -69 -5t-45 -12q-10 -33 -26 -86.5t-35.5 -117t-42 -131.5t-44 -131t-41 -116t-34.5 -85q-5 8 -19.5 17.5t-37.5 9.5q-12 26 -29 74t-35.5 109t-38 128.5t-36.5 132.5q-13 -45 -31 -101.5t-39 -118.5t-45 -126.5t-48 -124.5q-8 11 -24 19t-35 8
q-10 33 -32 94.5t-51 144.5t-62 184.5t-63 216.5q-17 7 -47.5 12t-68.5 5z" />
    <glyph glyph-name="X" unicode="X" horiz-adv-x="740" 
d="M584 0l-152 -4l-17 25q64 0 94.5 4t30.5 9q0 4 -16.5 29t-43.5 63.5t-62.5 86.5t-72.5 99q-93 -139 -137.5 -206t-44.5 -71q0 -2 4.5 -4.5t17.5 -4.5t36 -3.5t59 -1.5l-17 -25l-120 4l-129 -4l-17 25q33 0 54 1t34 3t19.5 5.5t9.5 8.5l209 302l-213 290q-10 14 -37 18
t-83 4l15 27q29 -2 68 -3t78 -1h33.5t41.5 0.5t45 1.5t43 2l15 -27q-57 0 -90.5 -6t-33.5 -11q0 -3 14.5 -25.5t38 -57t53.5 -77.5t61 -87q83 122 121.5 182t38.5 64t-29.5 11t-92.5 7l15 27q30 -2 66 -3t68 -1h28t34.5 0.5t37 1.5t34.5 2l15 -27q-21 0 -41.5 -1t-38 -4
t-30.5 -8t-19 -13l-187 -266l237 -318q5 -6 12.5 -10.5t21 -7t34.5 -3.5t53 -1l-17 -25z" />
    <glyph glyph-name="Y" unicode="Y" horiz-adv-x="622" 
d="M-35 680q27 -2 64.5 -3t81.5 -1t82.5 1t67.5 3l15 -27q-23 0 -45 -1.5t-39.5 -4t-28 -6t-10.5 -8.5t10 -26t26 -50.5t36 -64t40 -67.5t37.5 -61t28.5 -44q8 11 24.5 37t36.5 58.5t41 68t38 66.5t28 53t11 29q0 5 -10.5 9t-27.5 6.5t-39 4t-46 1.5l15 27q18 -1 38 -2
t38.5 -1.5t35 -0.5h26.5q20 0 51.5 1t65.5 3l15 -27q-38 0 -68.5 -5.5t-43.5 -11.5q-4 -7 -16 -28.5t-29.5 -51t-38.5 -64.5t-42 -70.5t-41.5 -69t-35.5 -58.5q-1 -11 -1.5 -26.5t-1 -33t-0.5 -34.5v-30q0 -45 2.5 -78.5t5.5 -58.5q17 -6 52.5 -9t72.5 -3l-17 -25l-153 4
l-155 -4l-17 25q37 0 72.5 3t52.5 9q3 25 5.5 58.5t2.5 82.5q0 27 -1 59.5t-3 50.5l-213 352q-14 7 -44 12t-67 5z" />
    <glyph glyph-name="Z" unicode="Z" horiz-adv-x="611" 
d="M50 691q19 -3 42 -5.5t54.5 -4.5t75.5 -3.5t106 -1.5q31 0 68.5 0.5t73.5 1t65.5 1.5t43.5 3l8 -15l-446 -631h330q23 0 38 11.5t25.5 32t17.5 49t14 61.5l30 -22l-39 -185q-35 7 -104.5 12t-168.5 5q-86 0 -150 -3.5t-99 -7.5l-11 19q6 5 27.5 33t54.5 73.5t76 105.5
t91 128t99.5 142t102.5 148h-337q-21 -1 -35.5 -9t-24.5 -25.5t-17.5 -46t-14.5 -70.5l-31 23z" />
    <glyph glyph-name="bracketleft" unicode="[" horiz-adv-x="378" 
d="M408 740q-14 0 -39.5 -3.5t-57.5 -9t-67.5 -13t-69.5 -14.5q-2 -15 -4.5 -48t-4 -88t-2.5 -133t-1 -183q0 -210 3.5 -322.5t8.5 -143.5q39 -8 77.5 -15.5t70.5 -13.5t55 -9.5t31 -3.5l-25 -33q-36 6 -76.5 12t-80 10.5t-75 7.5t-61.5 3q4 57 7 189t3 318
q0 187 -2.5 312.5t-7.5 180.5q40 0 85.5 4t87 9.5t74 11t46.5 8.5z" />
    <glyph glyph-name="backslash" unicode="\" horiz-adv-x="379" 
d="M389 -260h-50l-349 1000h50z" />
    <glyph glyph-name="bracketright" unicode="]" horiz-adv-x="348" 
d="M-35 773q14 -3 46.5 -8.5t73.5 -11t86.5 -9.5t86.5 -4q-5 -55 -7.5 -180.5t-2.5 -312.5q0 -186 2.5 -318t7.5 -189q-26 0 -61.5 -3t-75 -7.5t-80 -10.5t-76.5 -12l-25 33q8 0 31 3.5t55 9.5t70.5 13.5t77.5 15.5q4 31 8 143.5t4 322.5q0 105 -1 183t-2.5 133t-4 88
t-4.5 48q-34 7 -69.5 14.5t-67.5 13t-58 9t-39 3.5z" />
    <glyph glyph-name="asciicircum" unicode="^" horiz-adv-x="535" 
d="M419 420l-153 239l-150 -239h-56l189 302h36l190 -302h-56z" />
    <glyph glyph-name="underscore" unicode="_" horiz-adv-x="480" 
d="M430 -50h-380v50h380v-50z" />
    <glyph glyph-name="grave" unicode="`" horiz-adv-x="416" 
d="M301 478q-44 19 -81 42t-63.5 47t-41.5 49.5t-15 50.5q0 20 11.5 32t33.5 12q0 -6 5 -27t22.5 -50.5t51.5 -63.5t92 -66z" />
    <glyph glyph-name="a" unicode="a" horiz-adv-x="496" 
d="M174 311q0 -25 -13.5 -41t-42.5 -16q-23 0 -36.5 13t-13.5 43q0 22 11.5 44t34 39t55.5 28t76 11q70 0 99 -31t29 -79v-222q0 -45 10.5 -62.5t29.5 -17.5t29.5 14t10.5 56q25 0 25 -35q0 -30 -17.5 -52t-62.5 -22q-41 0 -63.5 29t-22.5 86l-4 1q-5 -16 -13 -36t-24 -38
t-41.5 -30t-63.5 -12q-55 0 -81.5 25t-26.5 66q0 60 51 91t139 31q23 0 36.5 -1t23.5 -3v107q0 58 -21.5 81.5t-79.5 23.5q-40 0 -64.5 -15.5t-24.5 -38.5q0 -25 16.5 -31t39.5 -6zM129 77q0 -28 15.5 -42t41.5 -14q29 0 52 12.5t38.5 33.5t23.5 47.5t8 54.5q-6 1 -20.5 2.5
t-34.5 1.5q-64 0 -94 -26t-30 -70z" />
    <glyph glyph-name="b" unicode="b" horiz-adv-x="541" 
d="M13 699q59 -1 91.5 8.5t42.5 14.5l19 -15q0 -28 -3 -116t-3 -222q5 6 15.5 16.5t27.5 21t41 18t56 7.5q97 0 145 -57t48 -157q0 -60 -16 -105t-44 -74t-66.5 -43.5t-83.5 -14.5q-33 0 -57.5 7.5t-41 16t-26.5 16t-14 7.5q-6 0 -12.5 -9.5t-11.5 -24.5t-8.5 -34t-3.5 -37
l-26 17q1 19 3 40.5t4 57t3 92.5t1 149q0 94 -1 159.5t-2.5 109t-3 69.5t-2.5 43q-8 3 -31 10t-55 7zM162 72q4 -7 13 -16.5t23 -18.5t33.5 -15.5t44.5 -6.5q69 0 105 49t36 154q0 93 -34.5 138.5t-90.5 45.5q-25 0 -46 -8.5t-38 -21t-29 -26t-19 -23.5q0 -66 0.5 -127
t1.5 -124z" />
    <glyph glyph-name="c" unicode="c" horiz-adv-x="476" 
d="M429 49q-5 -6 -17 -17t-32.5 -22.5t-49.5 -20t-68 -8.5q-44 0 -82.5 13.5t-68 41.5t-46.5 71.5t-17 104.5q0 46 14.5 86t43 70t69 47t93.5 17q47 0 78.5 -10.5t51 -27t27.5 -37t8 -39.5q0 -29 -14.5 -46t-40.5 -17q-21 0 -30.5 10t-9.5 20q8 4 16.5 13t8.5 32
q0 13 -4.5 26.5t-15.5 24t-30.5 17.5t-49.5 7q-64 0 -102 -49t-38 -140q0 -53 12.5 -90t33 -60t47.5 -33t56 -10q35 0 61.5 7t44.5 16t28.5 18t15.5 13z" />
    <glyph glyph-name="d" unicode="d" horiz-adv-x="571" 
d="M302 699q65 -1 100 8t42 15l15 -15q-1 -11 -2 -26.5t-2 -43t-2 -70t-1.5 -106.5t-1 -153t-0.5 -209q0 -46 12 -62t32 -16q13 0 21.5 5t13.5 12.5t7.5 15.5t3.5 14q18 0 18 -23t-19 -43.5t-60 -20.5q-47 0 -68 26.5t-21 64.5h-4q-4 -8 -13.5 -23t-28 -30t-47.5 -26.5
t-71 -11.5q-33 0 -64.5 11.5t-57 38t-41 70t-15.5 108.5q0 54 14.5 96t41 70t62.5 42.5t79 14.5q33 0 57 -7t40.5 -16t26 -18t14.5 -13q0 109 -0.5 181.5t-2.5 102.5q-14 5 -36 9.5t-57 4.5zM383 324q-4 7 -13.5 20.5t-25.5 26t-38 22t-50 9.5t-52.5 -12t-42.5 -36
t-28 -60.5t-10 -85.5q0 -50 10.5 -85.5t28 -58t41 -33t49.5 -10.5q28 0 49.5 9t37.5 21.5t26.5 27.5t15.5 27q1 26 1.5 84.5t0.5 133.5z" />
    <glyph glyph-name="e" unicode="e" horiz-adv-x="477" 
d="M48 213q0 49 14.5 89.5t42 69.5t66.5 44.5t89 15.5q46 0 77.5 -11.5t51.5 -31t29 -46t9 -55.5q0 -57 -59 -57h-245q0 -109 40.5 -158.5t110.5 -49.5q31 0 55.5 5.5t42.5 13t29.5 15t17.5 12.5l7 -28q-5 -4 -16.5 -14t-31 -20t-47.5 -18t-65 -8q-49 0 -89 15t-68.5 44
t-44.5 72.5t-16 100.5zM291 258q29 1 44.5 13.5t15.5 40.5q0 38 -20 64t-69 26q-28 0 -52.5 -11.5t-42.5 -31.5t-29.5 -47t-12.5 -58z" />
    <glyph glyph-name="f" unicode="f" horiz-adv-x="344" 
d="M107 416q-1 15 -2 47t-1 87q0 45 13 79t35.5 56.5t53.5 33.5t66 11q36 0 60.5 -8t40 -20.5t22 -29t6.5 -34.5q0 -29 -16 -46t-42 -17q-25 0 -35 11t-10 22q5 0 16 8.5t11 31.5q0 56 -57 56q-20 0 -38.5 -8.5t-32 -27t-21.5 -49t-8 -73.5q0 -50 2 -80.5t3 -45.5
q16 -2 53.5 -3.5t95.5 -1.5l-11 -30q-33 0 -55 -1t-37 -2t-25 -2t-19 -1q0 -100 0.5 -165t1 -104t1.5 -57t1 -24q17 -3 44.5 -5.5t66.5 -2.5l-17 -25l-129 4l-109 -4l-17 25q30 0 49.5 2.5t36.5 5.5q0 6 1 26t1.5 60.5t1 104.5t0.5 160q-12 2 -32.5 3.5t-52.5 1.5l8 22z" />
    <glyph glyph-name="g" unicode="g" horiz-adv-x="458" 
d="M400 427q3 1 9 6t6 17q0 11 -6.5 18t-20.5 7q-18 0 -32 -15.5t-14 -47.5q0 -22 4.5 -36t9.5 -26.5t9.5 -27.5t4.5 -39q0 -32 -10.5 -56.5t-27 -41.5t-37.5 -28t-41 -17q-18 -5 -41 -12.5t-43.5 -16.5t-34 -20t-13.5 -23q0 -8 5.5 -13.5t19.5 -9.5t39.5 -6t66.5 -2
q49 0 82 -9t52.5 -25t27.5 -37t8 -46q0 -71 -51.5 -112t-145.5 -41q-83 0 -130.5 30t-47.5 94q0 37 17 54.5t38 17.5q14 0 21 -5t9 -10q-5 -3 -14 -15.5t-9 -42.5q0 -41 30.5 -65t93.5 -24q60 0 92.5 26t32.5 77q0 22 -6 38t-21 26.5t-40.5 15t-64.5 4.5q-93 0 -132.5 16
t-39.5 46q0 19 12.5 33t33 24.5t47 17t54.5 10.5v4q-16 0 -40 6.5t-46.5 23t-39 45t-16.5 73.5q0 31 10.5 57.5t30.5 46t48 30.5t64 11q25 0 44 -4.5t33 -11t23 -13.5t14 -12q-2 7 -4 16.5t-2 22.5q0 38 24.5 60.5t57.5 22.5q30 0 43.5 -14.5t13.5 -34.5t-11 -33t-29 -13
q-16 0 -20 9zM219 166q35 0 61 33t26 88q0 51 -24 84.5t-69 33.5q-39 0 -64 -30t-25 -85q0 -64 27.5 -94.5t67.5 -29.5z" />
    <glyph glyph-name="h" unicode="h" horiz-adv-x="589" 
d="M33 699q61 0 90.5 9t39.5 14l19 -15q-2 -19 -3 -44t-2.5 -64.5t-2 -97t-0.5 -141.5q7 7 19 19.5t31 24t44.5 20t59.5 8.5q83 0 117 -34.5t34 -95.5q0 -78 0.5 -126.5t1 -78t1.5 -44t1 -24.5q29 -8 78 -8l-17 -25l-99 4l-100 -4l-17 25q19 0 31.5 0.5t21 2t14.5 2.5t11 3
q1 10 1.5 24t1 40t1 69.5t0.5 112.5q0 60 -25.5 89t-79.5 29q-25 0 -46 -9t-37.5 -22t-28.5 -27.5t-19 -24.5v-185.5t1 -95.5q8 -2 27.5 -5t54.5 -3l-17 -25l-105 4l-94 -4l-18 25q31 0 51 3t28 5q1 16 1.5 38t1 53t1 73.5t0.5 100.5q0 85 -1 144.5t-2 101.5t-2.5 70
t-2.5 49q-14 5 -35 11t-45 6z" />
    <glyph glyph-name="i" unicode="i" horiz-adv-x="305" 
d="M98 610q0 23 14.5 38t36.5 15q23 0 36.5 -15t13.5 -38t-13.5 -37t-36.5 -14q-22 0 -36.5 14t-14.5 37zM59 401q31 0 54.5 6.5t39 16t23.5 20t8 18.5l18 -14q-3 -30 -8 -89.5t-5 -156.5q0 -38 1 -66.5t2 -49t2 -34.5t2 -23q8 -2 28 -5t51 -3l-17 -25l-99 4l-104 -4l-17 25
q30 0 48.5 2.5t30.5 5.5q1 11 2.5 25t2.5 34t1.5 48t0.5 66q0 66 -1 103t-3 54q-6 5 -23 12t-49 7z" />
    <glyph glyph-name="j" unicode="j" horiz-adv-x="277" 
d="M94 610q0 23 14.5 38t36.5 15q23 0 36.5 -15t13.5 -38t-13.5 -37t-36.5 -14q-22 0 -36.5 14t-14.5 37zM46 401q43 0 70.5 8t43.5 18.5t22 20.5t6 14l19 -15q-5 -23 -9.5 -66t-4.5 -106q0 -41 1 -82.5t1.5 -81t1.5 -75t1 -63.5q0 -100 -41 -153t-118 -53q-54 0 -81.5 23.5
t-27.5 61.5q0 29 16 45.5t39 16.5q20 0 28 -9.5t8 -14.5q-5 0 -16.5 -9.5t-11.5 -34.5q0 -24 14 -36.5t39 -12.5q20 0 36 8.5t27 28.5t17 53t6 83q0 108 -1 179.5t-2.5 116t-3.5 66.5t-3 31q-11 4 -31.5 9.5t-55.5 5.5z" />
    <glyph glyph-name="k" unicode="k" horiz-adv-x="541" 
d="M33 699q35 0 59.5 2.5t40.5 6t25 7.5t13 7l19 -15q-2 -16 -4 -45.5t-3.5 -76t-3 -111.5t-1.5 -153q0 -75 1.5 -125.5t3 -83.5t3.5 -51.5t4 -30.5q12 -3 33 -6t45 -3l-17 -25l-103 4l-107 -4l-17 25q27 0 47.5 3.5t34.5 5.5q1 11 2 30t2 52t2 83.5t1 125.5q0 95 -1 155
t-2 96t-2 54.5t-2 30.5q-9 5 -30.5 12t-57.5 7zM194 243q41 0 71 10q10 12 26 33t31.5 42t26.5 38t11 22q0 8 -21.5 10.5t-53.5 2.5l19 27q11 -2 33.5 -5t58.5 -3t58.5 3t33.5 5l15 -28q-45 0 -62 -3.5t-24 -11.5l-120 -134l172 -221q11 -3 33.5 -6t45.5 -3l-18 -25l-107 4
l-107 -4l-17 25q49 0 64.5 2t15.5 7q0 9 -14.5 32t-34.5 51t-41 55.5t-34 44.5q-4 2 -13.5 4.5t-23.5 2.5q-11 0 -19 -1t-13 -2z" />
    <glyph glyph-name="l" unicode="l" horiz-adv-x="303" 
d="M33 699q35 0 59.5 2.5t40.5 6t25 7.5t13 7l19 -15q-2 -13 -4 -41.5t-3.5 -75t-3 -112.5t-1.5 -156q0 -68 1 -116.5t3 -82.5t4 -56.5t4 -37.5q14 -2 37 -5t53 -3l-18 -25l-118 4l-107 -4l-17 25q26 0 48.5 3l37.5 5q1 18 2.5 40t2.5 55.5t1.5 81.5t0.5 116q0 87 -1 145.5
t-2 97t-2 60.5t-2 36q-8 4 -27.5 9.5t-60.5 5.5z" />
    <glyph glyph-name="m" unicode="m" horiz-adv-x="861" 
d="M50 401q65 0 90 19t25 42l19 -15q-3 -17 -5 -42t-2 -61q6 8 18 23t31.5 29.5t46 25t61.5 10.5q113 0 131 -88q7 12 19.5 27t30 28.5t41.5 23t55 9.5q78 0 109.5 -32t31.5 -98q0 -68 0.5 -114t1 -76.5t1.5 -50t1 -32.5q11 -3 28 -5.5t49 -2.5l-17 -25l-102 4l-95 -4
l-18 25q34 0 51 2.5t27 5.5q1 10 1.5 26t1 44t1 70.5t0.5 105.5q0 60 -21.5 89t-73.5 29q-25 0 -44.5 -9t-34 -23t-25 -30t-16.5 -29v-118.5t0.5 -76.5t1 -47.5t1.5 -30.5q14 -3 31 -5.5t46 -2.5l-18 -25l-94 4l-99 -4l-17 25q27 0 46 2.5t30 5.5q1 15 2 35t1.5 49t1 70
t0.5 99q0 57 -22.5 84t-70.5 27q-25 0 -44.5 -9t-34.5 -22t-25 -28t-16 -26q-1 -14 -1 -37.5v-68.5q0 -75 0.5 -114t2.5 -59q12 -3 31.5 -5.5t47.5 -2.5l-17 -25l-98 4l-99 -4l-17 25q27 0 45.5 2t31.5 6q1 12 1.5 25.5t1 33t1 47t0.5 67.5v56t-0.5 39.5t-1.5 29t-2 23.5
q-7 9 -25.5 18.5t-46.5 9.5z" />
    <glyph glyph-name="n" unicode="n" horiz-adv-x="601" 
d="M50 401q34 0 56.5 5.5t35.5 14.5t18 20t5 21l19 -15q-3 -15 -5 -43.5t-2 -58.5q10 15 24 30t34.5 28t48 21t63.5 8q70 0 107.5 -31.5t37.5 -100.5q0 -57 0.5 -99t1 -74t1 -55.5t1.5 -42.5q14 -3 35.5 -5.5t41.5 -2.5l-17 -25l-99 4l-95 -4l-18 25q20 0 41 2.5t34 5.5
q1 35 2.5 94t1.5 155q0 52 -22.5 83.5t-80.5 31.5q-45 0 -78 -23t-54 -64q-1 -24 -1 -49.5v-57.5q0 -60 0.5 -102t1.5 -68q12 -3 33 -5.5t44 -2.5l-17 -25l-95 4l-99 -4l-17 25q23 0 44.5 2.5t32.5 5.5q2 26 3 65.5t1 102.5q0 70 -1 103.5t-3 47.5q-7 11 -25 20.5t-47 9.5z
" />
    <glyph glyph-name="o" unicode="o" horiz-adv-x="546" 
d="M48 210q0 52 16 93.5t45.5 70t71 43.5t92.5 15t92.5 -15t71 -43.5t45.5 -70t16 -93.5q0 -105 -56.5 -167t-168.5 -62q-113 0 -169 62t-56 167zM123 210q0 -98 39 -148.5t111 -50.5t111 50.5t39 148.5q0 94 -41 143t-109 49t-109 -49t-41 -143z" />
    <glyph glyph-name="p" unicode="p" horiz-adv-x="553" 
d="M18 -200q28 0 48 2.5t32 5.5q1 18 1.5 40t1 53t1 74t0.5 103q0 119 -1.5 195.5t-2.5 90.5q-11 6 -28.5 10t-42.5 4l8 23q51 0 80 16.5t34 42.5l18 -13q-3 -13 -5 -37.5t-2 -53.5q10 12 24.5 25.5t33.5 24.5t43.5 18.5t56.5 7.5q46 0 81.5 -15.5t58.5 -43.5t35 -66.5
t12 -84.5q0 -54 -14 -98.5t-41 -76t-67.5 -49t-92.5 -17.5q-39 0 -69.5 11.5t-47.5 25.5q0 -87 0.5 -137t1.5 -73q19 -3 49.5 -5.5t58.5 -2.5l-17 -25l-120 4l-111 -4zM174 56q24 -20 50 -31.5t64 -11.5q71 0 106.5 52.5t35.5 152.5q0 83 -34.5 131.5t-94.5 48.5
q-45 0 -77 -23.5t-52 -52.5z" />
    <glyph glyph-name="q" unicode="q" horiz-adv-x="517" 
d="M454 517q-2 -29 -3 -70.5t-2 -92.5t-1.5 -108t-0.5 -115q0 -75 1 -129t2.5 -91.5t3.5 -62t4 -40.5q17 -3 42.5 -5.5t48.5 -2.5l-17 -25l-113 4l-136 -4l-17 25q30 0 61.5 2.5t50.5 5.5q1 5 1.5 28t1 56.5t0.5 73.5v80q-7 -8 -19 -19t-30 -21t-41.5 -17.5t-54.5 -7.5
q-35 0 -68.5 11.5t-60 37t-43 67.5t-16.5 103q0 56 15 99.5t42 73t63.5 44.5t79.5 15q30 0 52 -5.5t38.5 -14t27.5 -18t19 -17.5q11 19 23 60t20 96zM380 332q-20 27 -49 48.5t-73 21.5q-27 0 -51.5 -11.5t-43 -35.5t-29.5 -62t-11 -91q0 -94 32 -140t91 -46q50 0 80.5 21.5
t53.5 48.5v246z" />
    <glyph glyph-name="r" unicode="r" horiz-adv-x="418" 
d="M53 401q33 0 54.5 5.5t34 14t18 19.5t5.5 22l19 -15q-2 -5 -3 -17t-1.5 -27.5t-1 -33t-0.5 -33.5q4 9 13.5 25t26 32t40 27.5t55.5 11.5q42 0 61 -20.5t19 -52.5q0 -35 -19 -52t-44 -17q-17 0 -26 6t-11 12q8 5 16.5 14t8.5 28q0 40 -40 40q-19 0 -34 -9t-26 -21t-18 -25
t-10 -21q-1 -18 -2 -43t-1 -73q0 -69 1 -114.5t3 -54.5q20 -3 49.5 -5.5t58.5 -2.5l-17 -25l-125 4l-102 -4l-17 25q27 0 48 2.5t32 5.5q2 13 3 55.5t1 112.5q0 35 -0.5 60.5t-1 43.5t-1 30.5t-1.5 20.5q-8 8 -25.5 17t-46.5 9z" />
    <glyph glyph-name="s" unicode="s" horiz-adv-x="409" 
d="M137 118q-7 -3 -13.5 -13.5t-6.5 -29.5q0 -34 20 -50.5t65 -16.5q48 0 72 17t24 55q0 31 -17.5 49.5t-43.5 31t-57 23t-57 25.5t-43.5 39.5t-17.5 64.5q0 54 36 86.5t111 32.5q39 0 66.5 -8t45 -21t25.5 -30.5t8 -36.5q0 -27 -12.5 -40.5t-34.5 -13.5q-14 0 -22 4.5
t-11 9.5q6 6 12 16.5t6 26.5q0 26 -19 45.5t-66 19.5q-50 0 -72.5 -22.5t-22.5 -57.5q0 -32 18 -51t45 -32t59 -23.5t59 -25.5t45 -38.5t18 -61.5q0 -51 -38 -81t-119 -30q-76 0 -111 26t-35 71q0 27 13.5 43.5t37.5 16.5q18 0 25 -8.5t8 -11.5z" />
    <glyph glyph-name="t" unicode="t" horiz-adv-x="348" 
d="M21 415q27 0 48.5 2t31.5 4q3 8 6.5 25.5t6.5 39.5t5 45.5t3 43.5l52 -31l-1 -123q23 -2 65 -4t90 -2l-15 -31q-45 0 -82 -2.5t-57 -4.5q-2 -44 -3 -125.5t-1 -181.5q0 -29 13 -39.5t37 -10.5q29 0 51.5 10.5t36.5 19.5l10 -27q-7 -6 -16.5 -13t-24 -13.5t-34.5 -11
t-47 -4.5q-45 0 -70 20.5t-25 76.5q0 107 -0.5 183t-1.5 116q-21 5 -46.5 6t-44.5 1z" />
    <glyph glyph-name="u" unicode="u" horiz-adv-x="597" 
d="M38 409q47 0 83.5 6t53.5 13l8 -8q-3 -17 -4.5 -53t-3 -79.5t-2 -88t-0.5 -79.5q0 -99 90 -99q38 0 64.5 16.5t43 41t23.5 52t7 49.5v198q-8 2 -28.5 5t-60.5 3l13 23q38 0 77.5 6t63.5 13l7 -8q-2 -14 -3 -39.5t-1.5 -57t-1 -66t-1 -65.5t-0.5 -55.5v-36.5
q0 -42 10.5 -60.5t33.5 -18.5q24 0 35.5 19t11.5 52q11 0 16.5 -7t5.5 -25q0 -14 -4.5 -28t-14.5 -25t-26 -18.5t-40 -7.5q-41 0 -64 26.5t-23 86.5l-3 1q-7 -18 -19 -38.5t-31.5 -37t-47.5 -27.5t-68 -11q-63 0 -99 31.5t-36 91.5q0 48 2 100.5t2 95.5q0 23 -0.5 44
t-1.5 38q-11 2 -32 3t-45 1z" />
    <glyph glyph-name="v" unicode="v" horiz-adv-x="505" 
d="M261 -35q-5 8 -15.5 13.5t-24.5 5.5q-35 76 -62.5 146t-47.5 124t-31.5 88t-12.5 38q-3 10 -24.5 15t-59.5 5l11 27q17 -2 47 -4.5t65 -2.5q30 0 58 2t48 5l15 -27q-42 0 -64.5 -3t-22.5 -11q0 -11 12 -50t30 -90t40 -106.5t42 -100.5q2 13 4 25t8 28q1 4 9.5 24.5
t20 50.5t24.5 64.5t24 66t18 55.5t7 33q0 3 -3 6t-12 4.5t-25 2.5t-42 1l15 27q16 -2 43 -4.5t59 -2.5q29 0 52 2t36 5l15 -27q-45 0 -65 -5t-24 -14z" />
    <glyph glyph-name="w" unicode="w" horiz-adv-x="745" 
d="M-7 427q20 -3 49.5 -5t64.5 -2q41 0 67.5 2.5t40.5 4.5l15 -24l15 24q13 -2 41.5 -4.5t73.5 -2.5q44 0 70 2.5t37 4.5l15 -27q-48 0 -63.5 -3.5t-15.5 -13.5q0 -16 29 -101.5t90 -240.5q0 17 1.5 26.5t4.5 18.5q1 3 9 23.5t19 49.5t23 63t22.5 65.5t17.5 56.5t7 36
q0 6 -2.5 9.5t-11 6t-24 3.5t-40.5 1l15 27q14 -2 39.5 -4.5t56.5 -2.5q27 0 50 2t37 5l16 -27q-39 0 -56.5 -3t-25.5 -8l-160 -424q-9 8 -21.5 13.5t-23.5 5.5q-29 70 -54.5 140.5t-42.5 120.5l-116 -280q-7 8 -18 13.5t-22 5.5q-26 58 -50 116t-44.5 110.5t-37.5 97.5
t-28 78q-8 6 -31.5 10t-52.5 4zM267 46q0 5 1 14.5t5 19.5q7 17 18.5 43.5t24 56t24.5 58.5t21 52q-4 12 -9 25.5l-10 27t-10 25.5t-8 20q-15 5 -37 8.5t-57 3.5q-48 0 -68 -3.5t-20 -11.5t6.5 -30t17 -52t23.5 -65t27 -70t27.5 -67t23.5 -55z" />
    <glyph glyph-name="x" unicode="x" horiz-adv-x="536" 
d="M18 21q35 0 52.5 5t27.5 16l144 164l-134 169q-9 11 -32.5 18t-56.5 7l15 27q15 -2 40.5 -4.5t55.5 -2.5q22 0 49.5 1.5t52.5 5.5l15 -26q-41 -1 -56 -4.5t-15 -8.5q0 -4 8.5 -17.5t22.5 -33t32.5 -44t38.5 -49.5q46 54 78 91.5t32 47.5q0 8 -20 13t-49 5l15 26
q17 -2 40.5 -4.5t45.5 -2.5q16 0 37.5 1.5t42.5 5.5l13 -26q-30 0 -49 -4.5t-30 -16.5l-140 -154l150 -186q10 -12 28 -15.5t46 -3.5l-15 -25l-87 4l-103 -4l-21 25q43 0 60.5 2.5t17.5 10.5q0 4 -10 19t-26 36.5t-36 47t-40 50.5q-23 -27 -44 -52t-37 -45.5t-25 -35
t-9 -19.5q0 -7 14 -10.5t59 -3.5l-18 -25l-87 4l-76 -4z" />
    <glyph glyph-name="y" unicode="y" horiz-adv-x="499" 
d="M-12 427q15 -2 44 -4.5t67 -2.5t67.5 2.5t43.5 4.5l15 -26q-52 0 -70 -4t-18 -12q0 -14 32.5 -101t94.5 -233q0 9 0.5 17t2.5 12q7 18 17.5 45.5t22.5 58.5t24 63t21.5 59.5t15.5 48t6 28.5q0 10 -15 14t-62 4l20 26q27 -4 50 -5.5t43 -1.5t45 1.5t45 5.5l11 -26
q-35 0 -57.5 -4.5t-26.5 -12.5l-191 -487q-23 -60 -58 -95t-92 -35q-40 0 -66.5 18.5t-26.5 54.5q0 26 14 40t34 14q13 0 21 -5t12 -12q-8 -6 -13 -14.5t-5 -20.5q0 -17 11 -27t34 -10q12 0 25 4t26.5 17t27.5 36.5t28 61.5l21 56l-171 397q-5 13 -25 18.5t-60 5.5z" />
    <glyph glyph-name="z" unicode="z" horiz-adv-x="493" 
d="M55 19q16 17 45.5 50.5t63.5 74t69.5 83.5t64 78.5t47 59t18.5 25.5h-228q-30 0 -41.5 -17t-11.5 -71l-21 -9l-18 125l11 14q19 -2 43.5 -4.5t51.5 -4t54.5 -2.5t52.5 -1q46 0 89 1.5t94 5.5l16 -26q-56 -66 -111 -131.5t-98 -117.5t-69.5 -85t-26.5 -35l200 3
q20 0 33.5 5.5t22.5 18t13.5 32.5t6.5 50l27 -19l-23 -130q-26 3 -74 5.5t-122 2.5q-71 0 -110 -1.5t-54 -2.5z" />
    <glyph glyph-name="braceleft" unicode="{" horiz-adv-x="412" 
d="M171 -147q0 -38 17 -56.5t62 -18.5q66 0 116 -12t71 -26l-25 -33q-12 7 -33.5 13t-49.5 10.5t-61 7t-68 2.5q-46 0 -70.5 21.5t-24.5 78.5q0 37 9 70t20.5 66t20.5 67.5t9 73.5q0 29 -10.5 51t-28 38t-39.5 25t-46 12v12q22 3 44 11.5t40 24.5t29 38t11 52q0 36 -9 68
t-20.5 63t-20.5 62t-9 66q0 48 25 74t70 26q54 0 91 4t62 10t38.5 11.5t20.5 8.5l25 -34q-24 -14 -74.5 -25t-112.5 -11q-38 0 -58.5 -15t-20.5 -59q0 -33 9.5 -63t20.5 -59.5t20.5 -60t9.5 -66.5q0 -30 -11 -52.5t-28.5 -39t-38.5 -26.5t-41 -14q20 -4 41 -14t38.5 -26.5
t28.5 -39t11 -52.5q0 -39 -9.5 -74.5t-20.5 -68.5t-20.5 -63t-9.5 -58z" />
    <glyph glyph-name="bar" unicode="|" horiz-adv-x="245" 
d="M145 -260h-45v1000h45v-1000z" />
    <glyph glyph-name="braceright" unicode="}" horiz-adv-x="412" 
d="M372 243q-24 -3 -46 -12t-39.5 -25t-28 -38t-10.5 -51q0 -39 9 -73.5t20.5 -67.5t20.5 -66t9 -70q0 -57 -24.5 -78.5t-70.5 -21.5q-35 0 -68 -2.5t-61 -7t-49.5 -10.5t-33.5 -13l-25 33q21 14 71 26t116 12q45 0 62 18.5t17 56.5q0 28 -9.5 58t-20.5 63t-20.5 68.5
t-9.5 74.5q0 30 11 52.5t28 39t38.5 26.5t41.5 14q-20 4 -41.5 14t-38.5 26.5t-28 39t-11 52.5q0 36 9.5 66.5t20.5 60t20.5 59.5t9.5 63q0 44 -20.5 59t-58.5 15q-62 0 -112.5 11t-74.5 25l25 34q7 -3 20.5 -8.5t38.5 -11.5t62 -10t91 -4q45 0 70 -26t25 -74q0 -35 -9 -66
t-20.5 -62t-20.5 -63t-9 -68q0 -30 11 -52t29 -38t40 -24.5t44 -11.5v-12z" />
    <glyph glyph-name="asciitilde" unicode="~" horiz-adv-x="391" 
d="M279 307q4 6 14 6q17 0 27.5 -15t10.5 -35q0 -30 -16.5 -47t-48.5 -17q-15 0 -34.5 4.5t-38.5 10t-36.5 10t-28.5 4.5q-14 0 -21.5 -8t-7.5 -22q0 -11 4 -19t9 -13q-2 -2 -5.5 -3.5t-9.5 -1.5q-15 0 -26 13t-11 36q0 29 16.5 46.5t45.5 17.5q13 0 32.5 -4.5t39 -9.5
t38 -9.5t30.5 -4.5q16 0 23.5 8.5t7.5 20.5q0 11 -4.5 19.5t-9.5 12.5z" />
    <glyph glyph-name="uni00A0" unicode="&#xa0;" horiz-adv-x="230" 
 />
    <glyph glyph-name="exclamdown" unicode="&#xa1;" horiz-adv-x="233" 
d="M153 406q0 -26 -17 -44t-43 -18t-43 18t-17 44t17 43t43 17t43 -17t17 -43zM142 -213q-11 8 -22 30.5t-11 58.5q0 50 4.5 99t10 92.5t10 79.5t4.5 60q0 25 -12 40t-33 15q-16 0 -22.5 -8.5t-6.5 -18.5q32 0 32 -37q0 -35 -10.5 -78.5t-22.5 -89.5t-22.5 -91.5
t-10.5 -83.5q0 -49 19.5 -68.5t48.5 -19.5q20 0 30 6.5t14 13.5z" />
    <glyph glyph-name="cent" unicode="&#xa2;" horiz-adv-x="558" 
d="M308 35q29 1 53.5 6.5t43.5 13.5t33 17t22 18q8 -8 8 -18q0 -11 -12.5 -24t-34 -24t-51.5 -19t-64 -9l-8 -150l-34 5l8 146q-42 4 -77.5 19.5t-61 42.5t-39.5 65.5t-14 87.5q0 52 15.5 93t43.5 70t68 45t88 18l9 160l34 -5l-8 -156q40 -3 68 -14t46 -27.5t26 -36t8 -39.5
q0 -34 -16.5 -50.5t-42.5 -16.5q-16 0 -22 6q4 6 7.5 18t3.5 29q0 38 -17.5 66t-62.5 34zM155 217q0 -83 32 -127.5t87 -52.5l20 370q-28 -2 -53 -13.5t-44 -34.5t-30.5 -58t-11.5 -84z" />
    <glyph glyph-name="sterling" unicode="&#xa3;" horiz-adv-x="546" 
d="M409 113q23 0 38 -17.5t15 -47.5q0 -42 -25.5 -64t-76.5 -22q-37 0 -66.5 8.5t-54.5 18t-48 18t-46 8.5q-8 -11 -23.5 -19.5t-34.5 -8.5q-27 0 -27 19q0 15 16 23.5t54 8.5q17 11 34 51.5t19 109.5h-78l9 32h69q1 70 14.5 117.5t36.5 76.5t54 41t68 12q57 0 83.5 -24
t26.5 -62q0 -32 -17 -50t-44 -18q-23 0 -33 10.5t-10 24.5q21 0 34 10.5t13 36.5q0 22 -13 36t-42 14q-22 0 -41 -10.5t-32.5 -36t-21.5 -69t-9 -109.5h147l-9 -32h-139q-3 -31 -12 -57.5t-21.5 -47.5t-27 -36.5t-27.5 -24.5q16 0 35.5 -4.5t42 -10.5t47.5 -10.5t52 -4.5
q37 0 52.5 15t15.5 38q0 17 -7.5 29t-15.5 17q2 4 8.5 7.5t17.5 3.5z" />
    <glyph glyph-name="currency" unicode="&#xa4;" horiz-adv-x="619" 
d="M80 458l37 35l78 -95q14 11 43.5 22.5t71.5 11.5t71 -11t43 -22l78 94l37 -35l-88 -81q10 -8 22 -22t21.5 -33.5t16 -44t6.5 -53.5t-6.5 -53t-16 -43.5t-21.5 -33.5t-22 -22l88 -81l-37 -35l-78 93q-14 -11 -43 -22t-71 -11t-72 10.5t-44 21.5l-77 -92l-37 35l86 80
q-10 9 -21 23t-20.5 33.5t-15.5 43.5t-6 53t6 53t16 43.5t21 33.5t22 22zM468 224q0 74 -41.5 118t-116.5 44t-116.5 -44t-41.5 -118t41.5 -118t116.5 -44t116.5 44t41.5 118z" />
    <glyph glyph-name="yen" unicode="&#xa5;" horiz-adv-x="682" 
d="M521 414q-6 -9 -19.5 -29.5t-30.5 -47.5t-36.5 -57t-38.5 -57h136l-7 -30h-146q-2 -10 -2.5 -24.5t-1.5 -31.5h139l-6 -30h-133q0 -21 1.5 -43t3.5 -34q17 -3 49 -6t64 -3l-6 -25l-142 4l-148 -4l-5 25q31 0 62.5 3t50.5 6q2 12 3.5 34t1.5 43h-143l-6 30h149
q-1 17 -1.5 31.5t-1.5 24.5h-157l-7 30h145q-35 47 -68.5 99t-54.5 90q-11 4 -34 7.5t-51 3.5l5 27q23 -2 56 -4.5t58 -2.5t58.5 2.5t56.5 4.5l5 -27q-36 0 -57.5 -3t-21.5 -8q0 -6 12 -28.5t30 -51.5t38.5 -59.5t37.5 -52.5q14 19 34 49.5t38.5 60t31.5 53.5t13 31
q0 3 -23.5 6t-54.5 3l5 27q18 -2 47 -4.5t52 -2.5t51 2.5t45 4.5l5 -27q-23 0 -46 -3t-35 -6z" />
    <glyph glyph-name="brokenbar" unicode="&#xa6;" horiz-adv-x="245" 
d="M145 333h-45v407h45v-407zM145 -260h-45v428h45v-428z" />
    <glyph glyph-name="section" unicode="&#xa7;" horiz-adv-x="613" 
d="M70 447q0 63 18 115t51 89.5t81 58t108 20.5q50 0 85.5 -10.5t57.5 -28.5t32 -40.5t10 -46.5q0 -45 -22 -63.5t-48 -18.5q-23 0 -33 11.5t-10 25.5q12 0 25 13t13 41q0 18 -6.5 34t-20.5 28.5t-35.5 20t-52.5 7.5q-32 0 -63.5 -14t-56.5 -42t-41 -70.5t-19 -99.5
q63 -7 130 -33t122.5 -75t91.5 -123.5t36 -177.5q0 -63 -18 -115t-51 -89.5t-81 -58t-108 -20.5q-50 0 -85.5 10.5t-57.5 28.5t-32 40.5t-10 46.5q0 45 22 63.5t48 18.5q23 0 33 -11.5t10 -25.5q-12 0 -25 -13t-13 -41q0 -18 6.5 -34t20.5 -28.5t35.5 -20t52.5 -7.5
q32 0 63 14t56 41.5t41 70t19 99.5q-63 7 -130 33t-122.5 75.5t-91 123.5t-35.5 178zM450 66q-2 91 -31 159t-74 114.5t-98.5 73t-103.5 35.5q1 -91 30.5 -158.5t74.5 -114t98.5 -73t103.5 -36.5z" />
    <glyph glyph-name="dieresis" unicode="&#xa8;" horiz-adv-x="474" 
d="M100 600q0 23 14.5 38t36.5 15q23 0 36.5 -15t13.5 -38t-13.5 -37t-36.5 -14q-22 0 -36.5 14t-14.5 37zM273 600q0 23 14.5 38t36.5 15q23 0 36.5 -15t13.5 -38t-13.5 -37t-36.5 -14q-22 0 -36.5 14t-14.5 37z" />
    <glyph glyph-name="copyright" unicode="&#xa9;" horiz-adv-x="970" 
d="M100 205q0 88 28 159.5t79 122t121.5 78t156.5 27.5q85 0 156 -27.5t122 -78t79 -122t28 -159.5t-28 -159.5t-79 -122t-122 -78t-156 -27.5q-86 0 -156.5 27.5t-121.5 78t-79 122t-28 159.5zM150 205q0 -77 24 -141t67.5 -109.5t105.5 -71t138 -25.5t138 25.5t105.5 71
t67.5 109.5t24 141t-24 141t-67.5 109.5t-105.5 71t-138 25.5t-138 -27t-105.5 -74t-67.5 -110.5t-24 -135.5zM264 205q0 51 15 93t44.5 71.5t74 46t103.5 16.5q54 0 91 -9.5t51 -18.5l31 -107l-23 -20q-3 17 -11.5 38.5t-25.5 41t-44.5 32.5t-68.5 13q-75 0 -118.5 -48.5
t-43.5 -148.5q0 -50 12.5 -85.5t34.5 -58t51.5 -33.5t63.5 -11q43 0 72 11.5t47.5 29t28 39t13.5 42.5l22 -18l-24 -98q-18 -14 -60 -28t-99 -14q-60 0 -104.5 16t-74 45.5t-44 71t-14.5 91.5z" />
    <glyph glyph-name="ordfeminine" unicode="&#xaa;" horiz-adv-x="305" 
d="M160 644q39 0 57 -18t18 -43v-119q0 -31 6.5 -38.5t17.5 -7.5q23 0 23 36q13 0 13 -16q0 -18 -10.5 -32.5t-38.5 -14.5q-23 0 -38 15t-15 50h-3q-4 -23 -22 -44t-56 -21q-29 0 -43 14t-14 37q0 34 25.5 52.5t79.5 18.5q9 0 17 -0.5t13 -1.5v58q0 32 -11 44.5t-40 12.5
q-45 0 -45 -29q0 -13 9 -17t21 -4q0 -36 -35 -36q-31 0 -31 35q0 26 25.5 47.5t76.5 21.5zM160 499q-32 0 -46 -13.5t-14 -35.5q0 -19 9 -25.5t22 -6.5q16 0 27 8t18 20t10.5 25.5t3.5 25.5q-5 1 -12.5 1.5t-17.5 0.5zM295 342q0 -29 -13.5 -44.5t-36.5 -15.5
q-8 0 -28.5 1.5t-44 3t-44.5 3t-28 1.5q-19 0 -31.5 -6.5t-18.5 -13.5q0 33 13.5 46.5t36.5 13.5q7 0 28 -1.5t44.5 -3t44 -3t28.5 -1.5q19 0 32 6.5t18 13.5z" />
    <glyph glyph-name="guillemotleft" unicode="&#xab;" horiz-adv-x="485" 
d="M40 225q22 7 44 21t39.5 31.5t28 38.5t10.5 44q0 15 -2.5 22.5t-4.5 12.5q4 4 11 7t16 3q26 0 35 -15.5t9 -34.5q0 -28 -13.5 -51t-34.5 -40.5t-46 -30.5t-47 -20q22 -8 47 -20.5t46 -30t34.5 -40.5t13.5 -51q0 -23 -10.5 -36.5t-33.5 -13.5q-9 0 -16 3t-11 7q2 4 4.5 13
t2.5 22q0 19 -8.5 39t-24.5 38t-38.5 33t-50.5 25v24zM219 225q22 7 44 21t39.5 31.5t28 38.5t10.5 44q0 15 -2.5 22.5t-4.5 12.5q4 4 11 7t16 3q26 0 35 -15.5t9 -34.5q0 -28 -13.5 -51t-34.5 -40.5t-46 -30.5t-47 -20q22 -8 47 -20.5t46 -30t34.5 -40.5t13.5 -51
q0 -23 -10.5 -36.5t-33.5 -13.5q-9 0 -16 3t-11 7q2 4 4.5 13t2.5 22q0 19 -8.5 39t-24.5 38t-38.5 33t-50.5 25v24z" />
    <glyph glyph-name="logicalnot" unicode="&#xac;" horiz-adv-x="577" 
d="M497 89h-75v175h-342v45h417v-220z" />
    <glyph glyph-name="uni00AD" unicode="&#xad;" horiz-adv-x="264" 
d="M214 202h-164v54h164v-54z" />
    <glyph glyph-name="registered" unicode="&#xae;" horiz-adv-x="585" 
d="M60 491q0 109 60 167.5t172 58.5t172.5 -58.5t60.5 -167.5t-60.5 -167.5t-172.5 -58.5t-172 58.5t-60 167.5zM90 491q0 -100 52 -150t150 -50t150.5 50t52.5 150t-52.5 150t-150.5 50t-150 -50t-52 -150zM168 626q11 -1 28 -2t32 -1q20 0 35 3.5t40 3.5q41 0 62.5 -18.5
t21.5 -51.5q0 -20 -8.5 -33.5t-20.5 -21.5t-25.5 -12t-23.5 -4v-1q28 0 41.5 -17.5t22.5 -38t18.5 -38t30.5 -17.5q6 0 10 1.5t6 3.5q0 -28 -36 -28q-31 0 -44.5 19.5t-22.5 43.5t-19 43.5t-34 19.5h-17v13q32 0 53.5 14t21.5 48q0 29 -12.5 42t-35.5 13q-11 0 -20 -2
t-14 -4q-2 -15 -3 -40t-1 -66q0 -55 1.5 -83.5t3.5 -34.5q5 -2 16 -4t30 -2l-9 -14l-61 2l-64 -2l-9 14q19 0 30.5 2t16.5 4q1 7 2 35.5t1 82.5q0 43 -1 68t-2 37q-7 2 -20.5 4.5t-28.5 2.5z" />
    <glyph glyph-name="macron" unicode="&#xaf;" horiz-adv-x="447" 
d="M347 543h-247v55h247v-55z" />
    <glyph glyph-name="degree" unicode="&#xb0;" horiz-adv-x="346" 
d="M60 569q0 55 31 87t82 32t82 -32t31 -87t-31 -87t-82 -32t-82 32t-31 87zM100 569q0 -38 20.5 -59t52.5 -21t52.5 21t20.5 59t-20.5 59t-52.5 21t-52.5 -21t-20.5 -59z" />
    <glyph glyph-name="plusminus" unicode="&#xb1;" horiz-adv-x="466" 
d="M210 417h46v-141h130v-44h-130v-141h-46v141h-130v44h130v141zM386 0h-306v41h306v-41z" />
    <glyph glyph-name="uni00B2" unicode="&#xb2;" horiz-adv-x="320" 
d="M143 729q65 0 92.5 -26.5t27.5 -68.5q0 -24 -7.5 -43.5t-21 -36.5t-31 -32.5t-37.5 -31.5l-70 -55h113q23 0 33.5 13.5t16.5 45.5l21 -14l-25 -85h-211l-14 23q10 7 30 23.5t46 39.5q25 22 43.5 40t31 35t19 36t6.5 43q0 32 -16 50.5t-50 18.5q-29 0 -42 -13.5t-13 -30.5
q0 -14 8 -20.5t20 -6.5q0 -17 -9.5 -27.5t-28.5 -10.5q-20 0 -31 11.5t-11 37.5q0 15 6.5 30.5t20 27.5t34 19.5t49.5 7.5z" />
    <glyph glyph-name="uni00B3" unicode="&#xb3;" horiz-adv-x="314" 
d="M143 729q60 0 84 -21.5t24 -51.5q0 -39 -23 -56t-66 -28l1 -5q5 1 9 1h8q42 0 63 -19.5t21 -54.5q0 -47 -34.5 -76t-98.5 -29q-49 0 -72.5 17t-23.5 45q0 20 10.5 31.5t27.5 11.5q14 0 20.5 -6.5t7.5 -13.5q-5 -2 -10.5 -8t-5.5 -18q0 -37 49 -37q34 0 55 22.5t21 60.5
q0 29 -14.5 43.5t-39.5 14.5q-17 0 -26 -4t-18 -4q-15 0 -15 16l47 20q32 14 45 29.5t13 43.5q0 24 -15.5 38.5t-46.5 14.5q-26 0 -40.5 -11.5t-14.5 -28.5q0 -21 23 -21q0 -15 -8 -25t-26 -10q-37 0 -37 42q0 34 27.5 55.5t78.5 21.5z" />
    <glyph glyph-name="acute" unicode="&#xb4;" horiz-adv-x="416" 
d="M100 504q58 32 92 66t51.5 63.5t22.5 50.5t5 27q22 0 33.5 -12t11.5 -32q0 -25 -15 -50.5t-41.5 -49.5t-63.5 -47t-81 -42z" />
    <glyph glyph-name="uni00B5" unicode="&#xb5;" horiz-adv-x="598" 
d="M41 409q48 0 83.5 6.5t50.5 12.5l8 -8q-3 -19 -6.5 -88t-3.5 -191q0 -69 24 -94.5t69 -25.5q39 0 65 17t41.5 42t22 52.5t6.5 47.5v198q-13 3 -33.5 5.5t-55.5 2.5l13 23q40 0 79.5 6.5t61.5 12.5l7 -8q-1 -22 -2.5 -55.5t-2.5 -74t-1.5 -86.5t-0.5 -93q0 -50 11 -70
t34 -20q25 0 35.5 20t10.5 51q10 0 16.5 -6.5t6.5 -21.5q0 -14 -4 -29t-14 -27t-26 -19.5t-40 -7.5q-42 0 -66.5 28t-24.5 87l-3 1q-5 -20 -16 -40.5t-29.5 -37t-45.5 -27.5t-63 -11q-30 0 -53.5 11.5t-33.5 23.5v-45q0 -30 2 -50.5t5 -36t5 -28.5t2 -27q0 -48 -36 -48
t-36 48q0 29 6.5 66.5t6.5 70.5q0 32 -6.5 71t-6.5 78q0 19 0.5 43.5t1.5 48.5t1.5 45.5t0.5 36.5v54t-1 39q-7 2 -26.5 3t-51.5 1z" />
    <glyph glyph-name="paragraph" unicode="&#xb6;" horiz-adv-x="621" 
d="M70 511q0 55 15 93t41.5 61.5t63.5 34t81 10.5q20 0 35.5 -1t23.5 -3q2 -17 4.5 -109t2.5 -272q-9 -4 -30.5 -8t-51.5 -4q-38 0 -71.5 12.5t-59 37t-40 61.5t-14.5 87zM94 -96q0 48 23.5 73t58.5 25q27 0 38 -15t11 -33q-26 0 -45.5 -17t-19.5 -55q0 -42 23.5 -64.5
t63.5 -22.5q28 0 52.5 9.5t43.5 31.5t30 58.5t11 91.5q0 170 -0.5 297.5t-1.5 215t-1.5 138t-1.5 65.5q14 -2 35.5 -3t39.5 -1q29 0 57.5 1.5t44.5 3.5l15 -27q-45 0 -77 -6t-46 -11q-2 -19 -3.5 -51t-3 -74t-2.5 -92t-1 -106q0 -52 0.5 -96t1.5 -85.5t1.5 -83t0.5 -89.5
q0 -103 -52 -159t-143 -56q-66 0 -109.5 34.5t-43.5 102.5z" />
    <glyph glyph-name="periodcentered" unicode="&#xb7;" horiz-adv-x="240" 
d="M60 238q0 26 17 44t43 18t43 -18t17 -44t-17 -43t-43 -17t-43 17t-17 43z" />
    <glyph glyph-name="cedilla" unicode="&#xb8;" horiz-adv-x="392" 
d="M217 -1q-10 -7 -20.5 -20t-10.5 -28q0 -16 16.5 -25.5t36.5 -20t36.5 -25t16.5 -39.5q0 -33 -24.5 -53.5t-74.5 -20.5q-41 0 -67 14.5t-26 34.5q0 9 3 15t6 8q8 -11 28 -22t51 -11q23 0 34.5 9.5t11.5 24.5t-12.5 24.5t-27.5 18.5t-27.5 21t-12.5 33q0 23 17 42t33 28z
" />
    <glyph glyph-name="uni00B9" unicode="&#xb9;" horiz-adv-x="267" 
d="M176 729q-2 -26 -4 -73.5t-2 -97.5q0 -53 1 -88t3 -49l73 -5l-15 -21h-180l-14 21l77 5q2 14 3 49t1 88q0 50 -1 82t-3 43q-9 -2 -31.5 -3.5t-53.5 -1.5l10 26q48 1 84 9t52 16z" />
    <glyph glyph-name="ordmasculine" unicode="&#xba;" horiz-adv-x="337" 
d="M169 644q63 0 95.5 -36t32.5 -90q0 -56 -34.5 -91.5t-94.5 -35.5q-57 0 -92.5 33t-35.5 96q0 52 33 88t96 36zM169 622q-38 0 -58.5 -27.5t-20.5 -72.5q0 -57 22.5 -81t55.5 -24q35 0 57 26t22 74q0 47 -20 76t-58 29zM297 342q0 -29 -13.5 -44.5t-36.5 -15.5
q-8 0 -30.5 1.5t-48 3t-48.5 3t-30 1.5q-19 0 -32 -6.5t-18 -13.5q0 33 13.5 46.5t36.5 13.5q7 0 30 -1.5t48.5 -3t48 -3t29.5 -1.5q20 0 32.5 6.5t18.5 13.5z" />
    <glyph glyph-name="guillemotright" unicode="&#xbb;" horiz-adv-x="485" 
d="M266 201q-28 -10 -50.5 -25t-38.5 -33t-24.5 -38t-8.5 -39q0 -13 2.5 -22t4.5 -13q-4 -4 -11 -7t-16 -3q-23 0 -33.5 13.5t-10.5 36.5q0 28 13.5 51t34.5 40.5t45.5 30t47.5 20.5q-23 7 -47.5 20t-45.5 30.5t-34.5 40.5t-13.5 51q0 19 9 34.5t35 15.5q9 0 16 -3t11 -7
q-2 -5 -4.5 -12.5t-2.5 -22.5q0 -23 10.5 -44t28 -38.5t39 -31.5t44.5 -21v-24zM445 201q-28 -10 -50.5 -25t-38.5 -33t-24.5 -38t-8.5 -39q0 -13 2.5 -22t4.5 -13q-4 -4 -11 -7t-16 -3q-23 0 -33.5 13.5t-10.5 36.5q0 28 13.5 51t34.5 40.5t45.5 30t47.5 20.5
q-23 7 -47.5 20t-45.5 30.5t-34.5 40.5t-13.5 51q0 19 9 34.5t35 15.5q9 0 16 -3t11 -7q-2 -5 -4.5 -12.5t-2.5 -22.5q0 -23 10.5 -44t28 -38.5t39 -31.5t44.5 -21v-24z" />
    <glyph glyph-name="onequarter" unicode="&#xbc;" horiz-adv-x="761" 
d="M126 -25l-29 27l537 657l29 -27zM226 649q-2 -26 -4 -73.5t-2 -97.5q0 -53 1 -88t3 -49l73 -5l-15 -21h-180l-14 21l77 5q2 14 3 49t1 88q0 50 -1 82t-3 43q-9 -2 -31.5 -3.5t-53.5 -1.5l10 26q48 1 84 9t52 16zM491 336q23 0 35 -16t12 -44q0 -26 -7 -48t-18.5 -41
t-25 -33.5t-25.5 -24.5h118v128l46 25v-153h24q12 0 20.5 11t13.5 43l17 -12l-21 -75h-54v-79l73 -5l-15 -21h-163l-14 21l73 5v79h-136l-14 27q10 9 21.5 22t21 29.5t15.5 36.5t6 41q0 29 -12 40t-26 11q0 11 8 22t27 11z" />
    <glyph glyph-name="onehalf" unicode="&#xbd;" horiz-adv-x="740" 
d="M126 -25l-29 27l537 657l29 -27zM226 649q-2 -26 -4 -73.5t-2 -97.5q0 -53 1 -88t3 -49l73 -5l-15 -21h-180l-14 21l77 5q2 14 3 49t1 88q0 50 -1 82t-3 43q-9 -2 -31.5 -3.5t-53.5 -1.5l10 26q48 1 84 9t52 16zM543 325q65 0 92.5 -26.5t27.5 -68.5q0 -24 -7.5 -43.5
t-21 -36.5t-31 -32.5t-37.5 -31.5l-70 -55h113q23 0 33.5 13.5t16.5 45.5l21 -14l-25 -85h-211l-14 23q10 7 30 23.5t46 39.5q25 22 43.5 40t31 35t19 36t6.5 43q0 32 -16 50.5t-50 18.5q-29 0 -42 -13.5t-13 -30.5q0 -14 8 -20.5t20 -6.5q0 -17 -9.5 -27.5t-28.5 -10.5
q-20 0 -31 11.5t-11 37.5q0 15 6.5 30.5t20 27.5t34 19.5t49.5 7.5z" />
    <glyph glyph-name="threequarters" unicode="&#xbe;" horiz-adv-x="751" 
d="M109 -25l-29 27l537 657l29 -27zM193 649q60 0 84 -21.5t24 -51.5q0 -39 -23 -56t-66 -28l1 -5q5 1 9 1h8q42 0 63 -19.5t21 -54.5q0 -47 -34.5 -76t-98.5 -29q-49 0 -72.5 17t-23.5 45q0 20 10.5 31.5t27.5 11.5q14 0 20.5 -6.5t7.5 -13.5q-5 -2 -10.5 -8t-5.5 -18
q0 -37 49 -37q34 0 55 22.5t21 60.5q0 29 -14.5 43.5t-39.5 14.5q-17 0 -26 -4t-18 -4q-15 0 -15 16l47 20q32 14 45 29.5t13 43.5q0 24 -15.5 38.5t-46.5 14.5q-26 0 -40.5 -11.5t-14.5 -28.5q0 -21 23 -21q0 -15 -8 -25t-26 -10q-37 0 -37 42q0 34 27.5 55.5t78.5 21.5z
M481 336q23 0 35 -16t12 -44q0 -26 -7 -48t-18.5 -41t-25 -33.5t-25.5 -24.5h118v128l46 25v-153h24q12 0 20.5 11t13.5 43l17 -12l-21 -75h-54v-79l73 -5l-15 -21h-163l-14 21l73 5v79h-136l-14 27q10 9 21.5 22t21 29.5t15.5 36.5t6 41q0 29 -12 40t-26 11q0 11 8 22
t27 11z" />
    <glyph glyph-name="questiondown" unicode="&#xbf;" horiz-adv-x="475" 
d="M178 406q0 26 17 43t43 17t43 -17t17 -43t-17 -44t-43 -18t-43 18t-17 44zM211 223q0 20 12 35.5t35 15.5q27 0 41.5 -18t14.5 -45q0 -34 -15.5 -58.5t-39 -44.5t-51 -38.5t-51 -41t-39 -51t-15.5 -68.5q0 -57 35.5 -89.5t106.5 -32.5q62 0 94.5 25.5t32.5 68.5
q0 32 -17.5 46t-46.5 14q0 21 12.5 39t43.5 18t51 -21.5t20 -61.5q0 -34 -12.5 -62.5t-38 -49.5t-65 -33t-92.5 -12q-90 0 -143.5 38.5t-53.5 110.5q0 41 16 70.5t40.5 51.5t53 39t53 34.5t40.5 38t16 49.5q0 33 -38 33z" />
    <glyph glyph-name="Agrave" unicode="&#xc0;" horiz-adv-x="683" 
d="M225 856q0 17 9.5 27.5t27.5 10.5q0 -11 6.5 -30t22.5 -41.5t41 -45t63 -40.5l-12 -27q-79 33 -118.5 71.5t-39.5 74.5zM-20 21q48 0 71 4t35 8q13 39 30 91t35.5 110t38 119.5t37.5 120l34 110.5t29 92q43 0 67.5 11t31.5 16q19 -58 39.5 -122t40 -128t38 -126.5
t35 -117.5t30.5 -100.5t24 -75.5q12 -4 36.5 -8t70.5 -4l-17 -25l-141 4l-141 -4l-17 25q51 0 77 4t38 8q-13 56 -34 132t-44 157q-17 1 -42.5 1.5t-60.5 0.5q-39 0 -64 -0.5t-41 -1.5q-25 -81 -47.5 -153.5t-40.5 -135.5q11 -5 36 -8.5t76 -3.5l-17 -25l-121 4l-105 -4z
M321 350q32 0 55 0.5t40 0.5q-26 89 -50.5 167.5t-40.5 125.5q-6 -2 -12 -2q-23 -76 -45 -148.5t-43 -141.5q14 -1 37.5 -1.5t58.5 -0.5z" />
    <glyph glyph-name="Aacute" unicode="&#xc1;" horiz-adv-x="683" 
d="M263 740q37 18 62.5 40.5t41.5 45t22.5 41.5t6.5 30q18 0 27.5 -10.5t9.5 -27.5q0 -36 -39.5 -74.5t-118.5 -71.5zM-20 21q48 0 71 4t35 8q13 39 30 91t35.5 110t38 119.5t37.5 120l34 110.5t29 92q43 0 67.5 11t31.5 16q19 -58 39.5 -122t40 -128t38 -126.5t35 -117.5
t30.5 -100.5t24 -75.5q12 -4 36.5 -8t70.5 -4l-17 -25l-141 4l-141 -4l-17 25q51 0 77 4t38 8q-13 56 -34 132t-44 157q-17 1 -42.5 1.5t-60.5 0.5q-39 0 -64 -0.5t-41 -1.5q-25 -81 -47.5 -153.5t-40.5 -135.5q11 -5 36 -8.5t76 -3.5l-17 -25l-121 4l-105 -4zM321 350
q32 0 55 0.5t40 0.5q-26 89 -50.5 167.5t-40.5 125.5q-6 -2 -12 -2q-23 -76 -45 -148.5t-43 -141.5q14 -1 37.5 -1.5t58.5 -0.5z" />
    <glyph glyph-name="Acircumflex" unicode="&#xc2;" horiz-adv-x="683" 
d="M199 767q19 0 37 11t33.5 28t28 37.5t20.5 39.5h32q7 -19 19.5 -39.5t28 -37.5t34 -28t38.5 -11q0 -42 -36 -42q-17 0 -32.5 12.5t-28.5 32t-23 43t-16 44.5q-7 -21 -17.5 -44.5t-23.5 -43t-28 -32t-31 -12.5q-18 0 -26.5 9.5t-8.5 32.5zM-20 21q48 0 71 4t35 8
q13 39 30 91t35.5 110t38 119.5t37.5 120l34 110.5t29 92q43 0 67.5 11t31.5 16q19 -58 39.5 -122t40 -128t38 -126.5t35 -117.5t30.5 -100.5t24 -75.5q12 -4 36.5 -8t70.5 -4l-17 -25l-141 4l-141 -4l-17 25q51 0 77 4t38 8q-13 56 -34 132t-44 157q-17 1 -42.5 1.5
t-60.5 0.5q-39 0 -64 -0.5t-41 -1.5q-25 -81 -47.5 -153.5t-40.5 -135.5q11 -5 36 -8.5t76 -3.5l-17 -25l-121 4l-105 -4zM321 350q32 0 55 0.5t40 0.5q-26 89 -50.5 167.5t-40.5 125.5q-6 -2 -12 -2q-23 -76 -45 -148.5t-43 -141.5q14 -1 37.5 -1.5t58.5 -0.5z" />
    <glyph glyph-name="Atilde" unicode="&#xc3;" horiz-adv-x="683" 
d="M414 861q4 6 14 6q17 0 27.5 -15t10.5 -35q0 -30 -16.5 -47t-48.5 -17q-15 0 -34.5 4.5t-38.5 10t-36.5 10t-28.5 4.5q-14 0 -21.5 -8t-7.5 -22q0 -11 4 -19t9 -13q-2 -2 -5.5 -3.5t-9.5 -1.5q-15 0 -26 13t-11 36q0 29 16.5 46.5t45.5 17.5q13 0 32.5 -4.5t39 -9.5
t38 -9.5t30.5 -4.5q16 0 23.5 8.5t7.5 20.5q0 11 -4.5 19.5t-9.5 12.5zM-3 -4l105 4l121 -4l17 25q-51 0 -76 3.5t-36 8.5q18 63 40.5 135.5t47.5 153.5q16 1 41 1.5t64 0.5q35 0 60.5 -0.5t42.5 -1.5q23 -81 44 -157t34 -132q-12 -4 -38 -8t-77 -4l17 -25l141 4l141 -4
l17 25q-46 0 -70.5 4t-36.5 8q-10 30 -24 75.5t-30.5 100.5t-35 117.5t-38 126.5t-40 128t-39.5 122q-7 -5 -31.5 -16t-67.5 -11q-13 -40 -29 -92l-34 -110.5t-37.5 -120t-38 -119.5t-35.5 -110t-30 -91q-12 -4 -35 -8t-71 -4zM321 350q-35 0 -58.5 0.5t-37.5 1.5
q21 69 43 141.5t45 148.5q6 0 12 2q16 -47 40.5 -125.5t50.5 -167.5q-17 0 -40 -0.5t-55 -0.5z" />
    <glyph glyph-name="Adieresis" unicode="&#xc4;" horiz-adv-x="683" 
d="M198 797q0 23 14.5 38t36.5 15q23 0 36.5 -15t13.5 -38t-13.5 -37t-36.5 -14q-22 0 -36.5 14t-14.5 37zM371 797q0 23 14.5 38t36.5 15q23 0 36.5 -15t13.5 -38t-13.5 -37t-36.5 -14q-22 0 -36.5 14t-14.5 37zM-20 21q48 0 71 4t35 8q13 39 30 91t35.5 110t38 119.5
t37.5 120l34 110.5t29 92q43 0 67.5 11t31.5 16q19 -58 39.5 -122t40 -128t38 -126.5t35 -117.5t30.5 -100.5t24 -75.5q12 -4 36.5 -8t70.5 -4l-17 -25l-141 4l-141 -4l-17 25q51 0 77 4t38 8q-13 56 -34 132t-44 157q-17 1 -42.5 1.5t-60.5 0.5q-39 0 -64 -0.5t-41 -1.5
q-25 -81 -47.5 -153.5t-40.5 -135.5q11 -5 36 -8.5t76 -3.5l-17 -25l-121 4l-105 -4zM321 350q32 0 55 0.5t40 0.5q-26 89 -50.5 167.5t-40.5 125.5q-6 -2 -12 -2q-23 -76 -45 -148.5t-43 -141.5q14 -1 37.5 -1.5t58.5 -0.5z" />
    <glyph glyph-name="Aring" unicode="&#xc5;" horiz-adv-x="683" 
d="M249 804q0 40 24.5 63t60.5 23t60.5 -23t24.5 -63t-24.5 -62t-60.5 -22t-60.5 22t-24.5 62zM284 804q0 -26 14.5 -40t35.5 -14t35.5 14t14.5 40t-14.5 41t-35.5 15t-35.5 -15t-14.5 -41zM-20 21q48 0 71 4t35 8q13 39 30 91t35.5 110t38 119.5t37.5 120l34 110.5t29 92
q43 0 67.5 11t31.5 16q19 -58 39.5 -122t40 -128t38 -126.5t35 -117.5t30.5 -100.5t24 -75.5q12 -4 36.5 -8t70.5 -4l-17 -25l-141 4l-141 -4l-17 25q51 0 77 4t38 8q-13 56 -34 132t-44 157q-17 1 -42.5 1.5t-60.5 0.5q-39 0 -64 -0.5t-41 -1.5q-25 -81 -47.5 -153.5
t-40.5 -135.5q11 -5 36 -8.5t76 -3.5l-17 -25l-121 4l-105 -4zM321 350q32 0 55 0.5t40 0.5q-26 89 -50.5 167.5t-40.5 125.5q-6 -2 -12 -2q-23 -76 -45 -148.5t-43 -141.5q14 -1 37.5 -1.5t58.5 -0.5z" />
    <glyph glyph-name="AE" unicode="&#xc6;" horiz-adv-x="896" 
d="M-20 21q42 0 69.5 4t36.5 8q106 291 165 450.5t73 196.5q13 -1 32.5 -1.5t42 -1t47.5 -1t49 -0.5q134 0 215 6.5t106 12.5l29 -157l-30 -23q-3 33 -8.5 56.5t-16 38.5t-27 22.5t-42.5 7.5l-182 2q-3 -31 -6.5 -103.5t-3.5 -184.5q29 -1 64 -2t80 -1q15 0 25.5 4.5t17 16
t11 31.5t7.5 52l23 -10q-3 -19 -6 -49.5t-3 -58.5q0 -27 1.5 -56.5t3.5 -46.5l-23 -10q-2 28 -4.5 47t-8.5 30.5t-16.5 16.5t-27.5 5q-45 0 -81.5 -1t-62.5 -2q0 -127 3.5 -196t7.5 -92l215 3q24 0 38.5 10.5t24 29.5t15.5 46.5t13 63.5l30 -22l-39 -182q-23 6 -97.5 12.5
t-198.5 6.5q-88 0 -134.5 -1t-57.5 -3l-17 25q43 0 73 4t42 8q4 22 7 91.5t3 197.5q-17 1 -45 1.5t-72 0.5t-70.5 -0.5t-41.5 -1.5q-26 -73 -51 -145t-49 -144q6 -4 32.5 -8t79.5 -4l-17 -25l-117 4l-109 -4zM239 352q14 -1 38.5 -1.5t62.5 -0.5q44 0 72 0.5t45 1.5
q0 115 -3 188t-6 96q-9 3 -34 7t-63 6q-29 -75 -57 -149t-55 -148z" />
    <glyph glyph-name="Ccedilla" unicode="&#xc7;" horiz-adv-x="712" 
d="M638 42q-8 -5 -26.5 -15t-47.5 -20t-68 -18t-89 -8q-12 -15 -12 -30q0 -16 16.5 -25.5t36.5 -20t36.5 -25t16.5 -39.5q0 -33 -24.5 -53.5t-74.5 -20.5q-41 0 -67 14.5t-26 34.5q0 9 3 15t6 8q8 -11 28 -22t51 -11q23 0 34.5 9.5t11.5 24.5t-12.5 24.5t-27.5 18.5
t-27.5 21t-12.5 33q0 12 5.5 23.5t13.5 20.5q-75 3 -137 25.5t-106.5 66.5t-69 109t-24.5 152q0 78 24 143t69.5 112t113 73t154.5 26q45 0 82 -5.5t64.5 -12.5t45.5 -14t26 -11l39 -145l-31 -24q-4 19 -16 49.5t-38.5 60t-70.5 51t-111 21.5q-55 0 -102.5 -20.5
t-82.5 -61.5t-55 -104t-20 -147t22.5 -143t59 -96t83.5 -53.5t97 -16.5q62 0 105.5 17t72.5 44t45 59.5t23 63.5l28 -22z" />
    <glyph glyph-name="Egrave" unicode="&#xc8;" horiz-adv-x="600" 
d="M210 856q0 17 9.5 27.5t27.5 10.5q0 -11 6.5 -30t22.5 -41.5t41 -45t63 -40.5l-12 -27q-79 33 -118.5 71.5t-39.5 74.5zM45 680q31 -2 67 -3t87 -1q79 0 131.5 2t88 4.5t58.5 6t43 6.5l29 -157l-30 -23q-4 36 -9.5 60t-17 38.5t-29 20.5t-45.5 6l-175 2
q-1 -14 -2.5 -35.5t-3.5 -55.5t-3 -82t-1 -115q23 -1 59.5 -2t84.5 -1q16 0 26 4.5t17 16t11 31.5t7 52l23 -10q-4 -28 -6.5 -53.5t-2.5 -54.5q0 -31 1.5 -55t3.5 -48l-23 -10q-4 55 -14 77t-43 22q-45 0 -81.5 -1t-62.5 -2q0 -66 1 -112.5t2.5 -80t3.5 -56t4 -39.5l219 3
q23 0 37 12t23 32t15 47.5t12 58.5l30 -22l-39 -182q-23 4 -48.5 7.5t-60 6t-80 4t-107.5 1.5q-72 0 -116 -1t-76 -3l-17 25q48 0 74.5 4t40.5 8q4 40 7 112.5t3 194.5q0 127 -3.5 196.5t-5.5 99.5q-18 6 -45 11.5t-77 5.5z" />
    <glyph glyph-name="Eacute" unicode="&#xc9;" horiz-adv-x="600" 
d="M248 740q37 18 62.5 40.5t41.5 45t22.5 41.5t6.5 30q18 0 27.5 -10.5t9.5 -27.5q0 -36 -39.5 -74.5t-118.5 -71.5zM45 680q31 -2 67 -3t87 -1q79 0 131.5 2t88 4.5t58.5 6t43 6.5l29 -157l-30 -23q-4 36 -9.5 60t-17 38.5t-29 20.5t-45.5 6l-175 2q-1 -14 -2.5 -35.5
t-3.5 -55.5t-3 -82t-1 -115q23 -1 59.5 -2t84.5 -1q16 0 26 4.5t17 16t11 31.5t7 52l23 -10q-4 -28 -6.5 -53.5t-2.5 -54.5q0 -31 1.5 -55t3.5 -48l-23 -10q-4 55 -14 77t-43 22q-45 0 -81.5 -1t-62.5 -2q0 -66 1 -112.5t2.5 -80t3.5 -56t4 -39.5l219 3q23 0 37 12t23 32
t15 47.5t12 58.5l30 -22l-39 -182q-23 4 -48.5 7.5t-60 6t-80 4t-107.5 1.5q-72 0 -116 -1t-76 -3l-17 25q48 0 74.5 4t40.5 8q4 40 7 112.5t3 194.5q0 127 -3.5 196.5t-5.5 99.5q-18 6 -45 11.5t-77 5.5z" />
    <glyph glyph-name="Ecircumflex" unicode="&#xca;" horiz-adv-x="600" 
d="M184 767q19 0 37 11t33.5 28t28 37.5t20.5 39.5h32q7 -19 19.5 -39.5t28 -37.5t34 -28t38.5 -11q0 -42 -36 -42q-17 0 -32.5 12.5t-28.5 32t-23 43t-16 44.5q-7 -21 -17.5 -44.5t-23.5 -43t-28 -32t-31 -12.5q-18 0 -26.5 9.5t-8.5 32.5zM45 680q31 -2 67 -3t87 -1
q79 0 131.5 2t88 4.5t58.5 6t43 6.5l29 -157l-30 -23q-4 36 -9.5 60t-17 38.5t-29 20.5t-45.5 6l-175 2q-1 -14 -2.5 -35.5t-3.5 -55.5t-3 -82t-1 -115q23 -1 59.5 -2t84.5 -1q16 0 26 4.5t17 16t11 31.5t7 52l23 -10q-4 -28 -6.5 -53.5t-2.5 -54.5q0 -31 1.5 -55t3.5 -48
l-23 -10q-4 55 -14 77t-43 22q-45 0 -81.5 -1t-62.5 -2q0 -66 1 -112.5t2.5 -80t3.5 -56t4 -39.5l219 3q23 0 37 12t23 32t15 47.5t12 58.5l30 -22l-39 -182q-23 4 -48.5 7.5t-60 6t-80 4t-107.5 1.5q-72 0 -116 -1t-76 -3l-17 25q48 0 74.5 4t40.5 8q4 40 7 112.5t3 194.5
q0 127 -3.5 196.5t-5.5 99.5q-18 6 -45 11.5t-77 5.5z" />
    <glyph glyph-name="Edieresis" unicode="&#xcb;" horiz-adv-x="600" 
d="M183 797q0 23 14.5 38t36.5 15q23 0 36.5 -15t13.5 -38t-13.5 -37t-36.5 -14q-22 0 -36.5 14t-14.5 37zM356 797q0 23 14.5 38t36.5 15q23 0 36.5 -15t13.5 -38t-13.5 -37t-36.5 -14q-22 0 -36.5 14t-14.5 37zM45 680q31 -2 67 -3t87 -1q79 0 131.5 2t88 4.5t58.5 6
t43 6.5l29 -157l-30 -23q-4 36 -9.5 60t-17 38.5t-29 20.5t-45.5 6l-175 2q-1 -14 -2.5 -35.5t-3.5 -55.5t-3 -82t-1 -115q23 -1 59.5 -2t84.5 -1q16 0 26 4.5t17 16t11 31.5t7 52l23 -10q-4 -28 -6.5 -53.5t-2.5 -54.5q0 -31 1.5 -55t3.5 -48l-23 -10q-4 55 -14 77t-43 22
q-45 0 -81.5 -1t-62.5 -2q0 -66 1 -112.5t2.5 -80t3.5 -56t4 -39.5l219 3q23 0 37 12t23 32t15 47.5t12 58.5l30 -22l-39 -182q-23 4 -48.5 7.5t-60 6t-80 4t-107.5 1.5q-72 0 -116 -1t-76 -3l-17 25q48 0 74.5 4t40.5 8q4 40 7 112.5t3 194.5q0 127 -3.5 196.5t-5.5 99.5
q-18 6 -45 11.5t-77 5.5z" />
    <glyph glyph-name="Igrave" unicode="&#xcc;" horiz-adv-x="394" 
d="M87 856q0 17 9.5 27.5t27.5 10.5q0 -11 6.5 -30t22.5 -41.5t41 -45t63 -40.5l-12 -27q-79 33 -118.5 71.5t-39.5 74.5zM45 680q22 -2 60 -3t92 -1q32 0 55 0.5t40 1t30 1t27 1.5l15 -27q-57 0 -84 -7t-38 -10q-3 -16 -5 -48t-2.5 -74.5t-1 -92.5t-0.5 -101
q0 -66 1.5 -114t3 -82t3 -56t2.5 -35q9 -3 33.5 -7.5t81.5 -4.5l-17 -25l-148 4l-140 -4l-17 25q48 0 77 4.5t38 7.5q1 12 2.5 32.5t3 54.5t3 82.5t1.5 117.5q0 51 -0.5 101t-1.5 92.5t-3 74.5t-4 48q-5 1 -13.5 4t-22.5 6t-35 5t-51 2z" />
    <glyph glyph-name="Iacute" unicode="&#xcd;" horiz-adv-x="394" 
d="M125 740q37 18 62.5 40.5t41.5 45t22.5 41.5t6.5 30q18 0 27.5 -10.5t9.5 -27.5q0 -36 -39.5 -74.5t-118.5 -71.5zM45 680q22 -2 60 -3t92 -1q32 0 55 0.5t40 1t30 1t27 1.5l15 -27q-57 0 -84 -7t-38 -10q-3 -16 -5 -48t-2.5 -74.5t-1 -92.5t-0.5 -101q0 -66 1.5 -114
t3 -82t3 -56t2.5 -35q9 -3 33.5 -7.5t81.5 -4.5l-17 -25l-148 4l-140 -4l-17 25q48 0 77 4.5t38 7.5q1 12 2.5 32.5t3 54.5t3 82.5t1.5 117.5q0 51 -0.5 101t-1.5 92.5t-3 74.5t-4 48q-5 1 -13.5 4t-22.5 6t-35 5t-51 2z" />
    <glyph glyph-name="Icircumflex" unicode="&#xce;" horiz-adv-x="394" 
d="M61 767q19 0 37 11t33.5 28t28 37.5t20.5 39.5h32q7 -19 19.5 -39.5t28 -37.5t34 -28t38.5 -11q0 -42 -36 -42q-17 0 -32.5 12.5t-28.5 32t-23 43t-16 44.5q-7 -21 -17.5 -44.5t-23.5 -43t-28 -32t-31 -12.5q-18 0 -26.5 9.5t-8.5 32.5zM45 680q22 -2 60 -3t92 -1
q32 0 55 0.5t40 1t30 1t27 1.5l15 -27q-57 0 -84 -7t-38 -10q-3 -16 -5 -48t-2.5 -74.5t-1 -92.5t-0.5 -101q0 -66 1.5 -114t3 -82t3 -56t2.5 -35q9 -3 33.5 -7.5t81.5 -4.5l-17 -25l-148 4l-140 -4l-17 25q48 0 77 4.5t38 7.5q1 12 2.5 32.5t3 54.5t3 82.5t1.5 117.5
q0 51 -0.5 101t-1.5 92.5t-3 74.5t-4 48q-5 1 -13.5 4t-22.5 6t-35 5t-51 2z" />
    <glyph glyph-name="Idieresis" unicode="&#xcf;" horiz-adv-x="394" 
d="M60 797q0 23 14.5 38t36.5 15q23 0 36.5 -15t13.5 -38t-13.5 -37t-36.5 -14q-22 0 -36.5 14t-14.5 37zM233 797q0 23 14.5 38t36.5 15q23 0 36.5 -15t13.5 -38t-13.5 -37t-36.5 -14q-22 0 -36.5 14t-14.5 37zM45 680q22 -2 60 -3t92 -1q32 0 55 0.5t40 1t30 1t27 1.5
l15 -27q-57 0 -84 -7t-38 -10q-3 -16 -5 -48t-2.5 -74.5t-1 -92.5t-0.5 -101q0 -66 1.5 -114t3 -82t3 -56t2.5 -35q9 -3 33.5 -7.5t81.5 -4.5l-17 -25l-148 4l-140 -4l-17 25q48 0 77 4.5t38 7.5q1 12 2.5 32.5t3 54.5t3 82.5t1.5 117.5q0 51 -0.5 101t-1.5 92.5t-3 74.5
t-4 48q-5 1 -13.5 4t-22.5 6t-35 5t-51 2z" />
    <glyph glyph-name="Eth" unicode="&#xd0;" horiz-adv-x="749" 
d="M41 319v34h120q0 44 -1 86t-2.5 78.5t-3 67t-2.5 51.5q-10 5 -40.5 11t-81.5 6l15 27q20 -2 56.5 -3t74.5 -1q23 0 42.5 2t37.5 4t36.5 4t38.5 2q93 0 162.5 -24.5t116.5 -70t70.5 -110t23.5 -144.5q0 -91 -26 -157.5t-72.5 -109.5t-110.5 -64t-140 -21q-32 0 -54 2
t-40.5 4.5t-37 4.5t-42.5 2q-34 0 -70 -1t-58 -3l-17 25q45 0 74.5 4t40.5 8q3 30 6 100t4 186h-120zM453 353v-34h-220q0 -116 3 -185t5 -95q11 -7 37 -13.5t64 -6.5q56 0 105 18.5t85.5 57t57.5 98.5t21 143q0 72 -20.5 130.5t-57.5 100t-89 64t-116 22.5q-32 0 -55 -4.5
t-33 -9.5q-1 -21 -2.5 -52t-2.5 -68t-1.5 -79t-0.5 -87h220z" />
    <glyph glyph-name="Ntilde" unicode="&#xd1;" horiz-adv-x="839" 
d="M509 861q4 6 14 6q17 0 27.5 -15t10.5 -35q0 -30 -16.5 -47t-48.5 -17q-15 0 -34.5 4.5t-38.5 10t-36.5 10t-28.5 4.5q-14 0 -21.5 -8t-7.5 -22q0 -11 4 -19t9 -13q-2 -2 -5.5 -3.5t-9.5 -1.5q-15 0 -26 13t-11 36q0 29 16.5 46.5t45.5 17.5q13 0 32.5 -4.5t39 -9.5
t38 -9.5t30.5 -4.5q16 0 23.5 8.5t7.5 20.5q0 11 -4.5 19.5t-9.5 12.5zM30 653q39 0 73.5 -5t48.5 -14q3 -29 5 -104.5t2 -190.5q0 -132 -2.5 -205.5t-5.5 -100.5q-19 -7 -48 -9.5t-67 -2.5l17 -25l124 4l127 -4l17 25q-41 0 -66.5 3t-48.5 9q-4 34 -6.5 112t-2.5 188
q0 96 2 170t4 121l423 -624q28 0 44.5 -1.5t26.5 -3.5q-1 10 -3 40t-3.5 77.5t-3 111t-1.5 140.5q0 101 3 167.5t8 104.5q15 7 47.5 12t74.5 5l-15 27q-35 -2 -67 -3t-68 -1q-33 0 -68.5 1t-64.5 3l-15 -27q44 0 76 -5.5t46 -11.5q2 -32 3.5 -102t1.5 -170q0 -32 -0.5 -62.5
t-1 -60.5t-1.5 -61t-2 -65q-8 11 -34 49.5t-72.5 107.5t-114.5 170t-159 238q-17 -2 -41 -3t-53 -1q-21 0 -56.5 1t-67.5 3z" />
    <glyph glyph-name="Ograve" unicode="&#xd2;" horiz-adv-x="792" 
d="M286 856q0 17 9.5 27.5t27.5 10.5q0 -11 6.5 -30t22.5 -41.5t41 -45t63 -40.5l-12 -27q-79 33 -118.5 71.5t-39.5 74.5zM45 326q0 76 23 142t67.5 115t110 77t150.5 28q84 0 149.5 -25.5t110 -71t68 -108.5t23.5 -139q0 -93 -28 -161.5t-75.5 -113t-111.5 -66.5t-136 -22
q-75 0 -139 20.5t-111.5 63.5t-74 107.5t-26.5 153.5zM136 325q0 -82 20 -140.5t55 -96t82.5 -55t102.5 -17.5q57 0 104.5 19t82 59t54 101t19.5 145q0 75 -19 134t-53.5 99.5t-82 62t-105.5 21.5q-53 0 -100 -19.5t-82.5 -60t-56.5 -103t-21 -149.5z" />
    <glyph glyph-name="Oacute" unicode="&#xd3;" horiz-adv-x="792" 
d="M324 740q37 18 62.5 40.5t41.5 45t22.5 41.5t6.5 30q18 0 27.5 -10.5t9.5 -27.5q0 -36 -39.5 -74.5t-118.5 -71.5zM45 326q0 76 23 142t67.5 115t110 77t150.5 28q84 0 149.5 -25.5t110 -71t68 -108.5t23.5 -139q0 -93 -28 -161.5t-75.5 -113t-111.5 -66.5t-136 -22
q-75 0 -139 20.5t-111.5 63.5t-74 107.5t-26.5 153.5zM136 325q0 -82 20 -140.5t55 -96t82.5 -55t102.5 -17.5q57 0 104.5 19t82 59t54 101t19.5 145q0 75 -19 134t-53.5 99.5t-82 62t-105.5 21.5q-53 0 -100 -19.5t-82.5 -60t-56.5 -103t-21 -149.5z" />
    <glyph glyph-name="Ocircumflex" unicode="&#xd4;" horiz-adv-x="792" 
d="M260 767q19 0 37 11t33.5 28t28 37.5t20.5 39.5h32q7 -19 19.5 -39.5t28 -37.5t34 -28t38.5 -11q0 -42 -36 -42q-17 0 -32.5 12.5t-28.5 32t-23 43t-16 44.5q-7 -21 -17.5 -44.5t-23.5 -43t-28 -32t-31 -12.5q-18 0 -26.5 9.5t-8.5 32.5zM45 326q0 76 23 142t67.5 115
t110 77t150.5 28q84 0 149.5 -25.5t110 -71t68 -108.5t23.5 -139q0 -93 -28 -161.5t-75.5 -113t-111.5 -66.5t-136 -22q-75 0 -139 20.5t-111.5 63.5t-74 107.5t-26.5 153.5zM136 325q0 -82 20 -140.5t55 -96t82.5 -55t102.5 -17.5q57 0 104.5 19t82 59t54 101t19.5 145
q0 75 -19 134t-53.5 99.5t-82 62t-105.5 21.5q-53 0 -100 -19.5t-82.5 -60t-56.5 -103t-21 -149.5z" />
    <glyph glyph-name="Otilde" unicode="&#xd5;" horiz-adv-x="792" 
d="M475 861q4 6 14 6q17 0 27.5 -15t10.5 -35q0 -30 -16.5 -47t-48.5 -17q-15 0 -34.5 4.5t-38.5 10t-36.5 10t-28.5 4.5q-14 0 -21.5 -8t-7.5 -22q0 -11 4 -19t9 -13q-2 -2 -5.5 -3.5t-9.5 -1.5q-15 0 -26 13t-11 36q0 29 16.5 46.5t45.5 17.5q13 0 32.5 -4.5t39 -9.5
t38 -9.5t30.5 -4.5q16 0 23.5 8.5t7.5 20.5q0 11 -4.5 19.5t-9.5 12.5zM45 326q0 -89 26.5 -153.5t74 -107.5t111.5 -63.5t139 -20.5q72 0 136 22t111.5 66.5t75.5 113t28 161.5q0 76 -23.5 139t-68 108.5t-110 71t-149.5 25.5q-85 0 -150.5 -28t-110 -77t-67.5 -115
t-23 -142zM136 325q0 87 21 149.5t56.5 103t82.5 60t100 19.5q58 0 105.5 -21.5t82 -62t53.5 -99.5t19 -134q0 -84 -19.5 -145t-54 -101t-82 -59t-104.5 -19q-55 0 -102.5 17.5t-82.5 55t-55 96t-20 140.5z" />
    <glyph glyph-name="Odieresis" unicode="&#xd6;" horiz-adv-x="792" 
d="M259 797q0 23 14.5 38t36.5 15q23 0 36.5 -15t13.5 -38t-13.5 -37t-36.5 -14q-22 0 -36.5 14t-14.5 37zM432 797q0 23 14.5 38t36.5 15q23 0 36.5 -15t13.5 -38t-13.5 -37t-36.5 -14q-22 0 -36.5 14t-14.5 37zM45 326q0 76 23 142t67.5 115t110 77t150.5 28
q84 0 149.5 -25.5t110 -71t68 -108.5t23.5 -139q0 -93 -28 -161.5t-75.5 -113t-111.5 -66.5t-136 -22q-75 0 -139 20.5t-111.5 63.5t-74 107.5t-26.5 153.5zM136 325q0 -82 20 -140.5t55 -96t82.5 -55t102.5 -17.5q57 0 104.5 19t82 59t54 101t19.5 145q0 75 -19 134
t-53.5 99.5t-82 62t-105.5 21.5q-53 0 -100 -19.5t-82.5 -60t-56.5 -103t-21 -149.5z" />
    <glyph glyph-name="multiply" unicode="&#xd7;" horiz-adv-x="458" 
d="M229 260l119 132l30 -30l-121 -133l121 -133l-30 -30l-119 131l-119 -131l-30 30l120 133l-120 133l30 30z" />
    <glyph glyph-name="Oslash" unicode="&#xd8;" horiz-adv-x="792" 
d="M595 639q75 -44 113.5 -120t38.5 -175q0 -94 -28 -162.5t-75.5 -113t-111.5 -66t-136 -21.5q-85 0 -151 25l-47 -85h-49l57 102q-74 39 -117.5 113.5t-43.5 189.5q0 76 23 142t67.5 115t110 77t150.5 28q91 0 160 -30l50 90h49zM534 618q-29 19 -64 29t-74 10
q-53 0 -100.5 -19.5t-83 -60t-56 -103t-20.5 -149.5q0 -93 26 -155.5t70 -98.5zM267 47q58 -31 129 -31q57 0 104.5 19t82 59t54 101t19.5 145t-23 146.5t-65 103.5z" />
    <glyph glyph-name="Ugrave" unicode="&#xd9;" horiz-adv-x="745" 
d="M280 856q0 17 9.5 27.5t27.5 10.5q0 -11 6.5 -30t22.5 -41.5t41 -45t63 -40.5l-12 -27q-79 33 -118.5 71.5t-39.5 74.5zM5 680q23 -2 61.5 -3t89.5 -1t91.5 1t66.5 3l15 -27q-16 0 -34 -1t-34.5 -3t-30.5 -5.5t-23 -7.5q0 -11 -1 -38t-2 -75t-2 -118.5t-1 -169.5
q0 -59 11.5 -100t34 -66.5t56 -36.5t78.5 -11q61 0 101 13.5t62.5 43t31.5 75t9 109.5q0 51 -0.5 106t-1.5 106t-2 93.5t-2 68.5q-15 6 -47 11.5t-75 5.5l15 27q20 -2 54 -3t78 -1q43 0 78 1t58 3l15 -27q-40 0 -72.5 -4.5t-49.5 -12.5q-1 -20 -2 -51.5t-2 -76.5
t-1.5 -105.5t-0.5 -138.5q0 -72 -10 -125t-38.5 -88.5t-78.5 -52.5t-129 -17q-70 0 -118 13t-78 42.5t-43 76t-13 113.5q0 190 -3.5 289.5t-3.5 120.5q-15 7 -47.5 12t-74.5 5z" />
    <glyph glyph-name="Uacute" unicode="&#xda;" horiz-adv-x="745" 
d="M318 740q37 18 62.5 40.5t41.5 45t22.5 41.5t6.5 30q18 0 27.5 -10.5t9.5 -27.5q0 -36 -39.5 -74.5t-118.5 -71.5zM5 680q23 -2 61.5 -3t89.5 -1t91.5 1t66.5 3l15 -27q-16 0 -34 -1t-34.5 -3t-30.5 -5.5t-23 -7.5q0 -11 -1 -38t-2 -75t-2 -118.5t-1 -169.5
q0 -59 11.5 -100t34 -66.5t56 -36.5t78.5 -11q61 0 101 13.5t62.5 43t31.5 75t9 109.5q0 51 -0.5 106t-1.5 106t-2 93.5t-2 68.5q-15 6 -47 11.5t-75 5.5l15 27q20 -2 54 -3t78 -1q43 0 78 1t58 3l15 -27q-40 0 -72.5 -4.5t-49.5 -12.5q-1 -20 -2 -51.5t-2 -76.5
t-1.5 -105.5t-0.5 -138.5q0 -72 -10 -125t-38.5 -88.5t-78.5 -52.5t-129 -17q-70 0 -118 13t-78 42.5t-43 76t-13 113.5q0 190 -3.5 289.5t-3.5 120.5q-15 7 -47.5 12t-74.5 5z" />
    <glyph glyph-name="Ucircumflex" unicode="&#xdb;" horiz-adv-x="745" 
d="M254 767q19 0 37 11t33.5 28t28 37.5t20.5 39.5h32q7 -19 19.5 -39.5t28 -37.5t34 -28t38.5 -11q0 -42 -36 -42q-17 0 -32.5 12.5t-28.5 32t-23 43t-16 44.5q-7 -21 -17.5 -44.5t-23.5 -43t-28 -32t-31 -12.5q-18 0 -26.5 9.5t-8.5 32.5zM5 680q23 -2 61.5 -3t89.5 -1
t91.5 1t66.5 3l15 -27q-16 0 -34 -1t-34.5 -3t-30.5 -5.5t-23 -7.5q0 -11 -1 -38t-2 -75t-2 -118.5t-1 -169.5q0 -59 11.5 -100t34 -66.5t56 -36.5t78.5 -11q61 0 101 13.5t62.5 43t31.5 75t9 109.5q0 51 -0.5 106t-1.5 106t-2 93.5t-2 68.5q-15 6 -47 11.5t-75 5.5l15 27
q20 -2 54 -3t78 -1q43 0 78 1t58 3l15 -27q-40 0 -72.5 -4.5t-49.5 -12.5q-1 -20 -2 -51.5t-2 -76.5t-1.5 -105.5t-0.5 -138.5q0 -72 -10 -125t-38.5 -88.5t-78.5 -52.5t-129 -17q-70 0 -118 13t-78 42.5t-43 76t-13 113.5q0 190 -3.5 289.5t-3.5 120.5q-15 7 -47.5 12
t-74.5 5z" />
    <glyph glyph-name="Udieresis" unicode="&#xdc;" horiz-adv-x="745" 
d="M253 797q0 23 14.5 38t36.5 15q23 0 36.5 -15t13.5 -38t-13.5 -37t-36.5 -14q-22 0 -36.5 14t-14.5 37zM426 797q0 23 14.5 38t36.5 15q23 0 36.5 -15t13.5 -38t-13.5 -37t-36.5 -14q-22 0 -36.5 14t-14.5 37zM5 680q23 -2 61.5 -3t89.5 -1t91.5 1t66.5 3l15 -27
q-16 0 -34 -1t-34.5 -3t-30.5 -5.5t-23 -7.5q0 -11 -1 -38t-2 -75t-2 -118.5t-1 -169.5q0 -59 11.5 -100t34 -66.5t56 -36.5t78.5 -11q61 0 101 13.5t62.5 43t31.5 75t9 109.5q0 51 -0.5 106t-1.5 106t-2 93.5t-2 68.5q-15 6 -47 11.5t-75 5.5l15 27q20 -2 54 -3t78 -1
q43 0 78 1t58 3l15 -27q-40 0 -72.5 -4.5t-49.5 -12.5q-1 -20 -2 -51.5t-2 -76.5t-1.5 -105.5t-0.5 -138.5q0 -72 -10 -125t-38.5 -88.5t-78.5 -52.5t-129 -17q-70 0 -118 13t-78 42.5t-43 76t-13 113.5q0 190 -3.5 289.5t-3.5 120.5q-15 7 -47.5 12t-74.5 5z" />
    <glyph glyph-name="Thorn" unicode="&#xde;" horiz-adv-x="587" 
d="M45 680q21 -2 61.5 -3t86.5 -1q54 0 95.5 1t60.5 3l15 -27q-45 0 -77 -6t-45 -11q-2 -25 -4 -59.5t-2 -57.5q12 4 38.5 7.5t60.5 3.5q58 0 100 -14t69 -38t40 -56.5t13 -69.5q0 -55 -19.5 -91.5t-51 -58.5t-72 -31t-82.5 -9h-56l8 26h42q32 0 59.5 9t47.5 28t31 48t11 69
q0 71 -39 112t-111 41q-28 0 -52 -4.5t-38 -9.5q-1 -18 -1.5 -55.5t-0.5 -85.5q0 -138 3.5 -213.5t6.5 -93.5q11 -4 40 -8t75 -4l-17 -25l-148 4l-140 -4l-17 25q45 0 74.5 4t40.5 8q3 18 6.5 93.5t3.5 213.5q0 119 -3 194.5t-6 101.5q-13 5 -44.5 11t-77.5 6z" />
    <glyph glyph-name="germandbls" unicode="&#xdf;" horiz-adv-x="558" 
d="M35 -4l-17 25q27 0 50.5 3t35.5 5q2 21 3 94t1 198v53q-11 2 -34 3.5t-51 1.5l8 22l76 9q0 13 -0.5 30.5l-1 35t-1 34t-0.5 29.5q0 51 15 87.5t40 59.5t58.5 33.5t70.5 10.5q44 0 75.5 -11t51.5 -30.5t29.5 -45t9.5 -53.5q0 -48 -21 -83.5t-46 -62t-46 -45t-21 -31.5
q0 -10 16 -23t40 -28.5t51.5 -35t51.5 -43.5t40 -53.5t16 -64.5q0 -72 -46.5 -105.5t-128.5 -33.5q-60 0 -95 22.5t-35 71.5q0 34 16 49.5t36 15.5q15 0 23 -6.5t10 -13.5q-10 -3 -20 -15.5t-10 -34.5q0 -60 77 -60q49 0 75 27.5t26 75.5q0 32 -13.5 57.5t-33.5 47t-44 40
t-44 36.5t-33.5 35.5t-13.5 38.5q0 20 16 39.5t35.5 44.5t35.5 59t16 82q0 49 -25.5 79.5t-76.5 30.5q-61 0 -87.5 -38t-26.5 -113q0 -47 3.5 -110t3.5 -141q0 -137 2 -211.5t4 -93.5l-51 4z" />
    <glyph glyph-name="agrave" unicode="&#xe0;" horiz-adv-x="496" 
d="M299 465q-44 19 -81 42t-63.5 47t-41.5 49.5t-15 50.5q0 20 11.5 32t33.5 12q0 -6 5 -27t22.5 -50.5t51.5 -63.5t92 -66zM174 311q0 -25 -13.5 -41t-42.5 -16q-23 0 -36.5 13t-13.5 43q0 22 11.5 44t34 39t55.5 28t76 11q70 0 99 -31t29 -79v-222q0 -45 10.5 -62.5
t29.5 -17.5t29.5 14t10.5 56q25 0 25 -35q0 -30 -17.5 -52t-62.5 -22q-41 0 -63.5 29t-22.5 86l-4 1q-5 -16 -13 -36t-24 -38t-41.5 -30t-63.5 -12q-55 0 -81.5 25t-26.5 66q0 60 51 91t139 31q23 0 36.5 -1t23.5 -3v107q0 58 -21.5 81.5t-79.5 23.5q-40 0 -64.5 -15.5
t-24.5 -38.5q0 -25 16.5 -31t39.5 -6zM129 77q0 -28 15.5 -42t41.5 -14q29 0 52 12.5t38.5 33.5t23.5 47.5t8 54.5q-6 1 -20.5 2.5t-34.5 1.5q-64 0 -94 -26t-30 -70z" />
    <glyph glyph-name="aacute" unicode="&#xe1;" horiz-adv-x="496" 
d="M133 504q58 32 92 66t51.5 63.5t22.5 50.5t5 27q22 0 33.5 -12t11.5 -32q0 -25 -15 -50.5t-41.5 -49.5t-63.5 -47t-81 -42zM174 311q0 -25 -13.5 -41t-42.5 -16q-23 0 -36.5 13t-13.5 43q0 22 11.5 44t34 39t55.5 28t76 11q70 0 99 -31t29 -79v-222q0 -45 10.5 -62.5
t29.5 -17.5t29.5 14t10.5 56q25 0 25 -35q0 -30 -17.5 -52t-62.5 -22q-41 0 -63.5 29t-22.5 86l-4 1q-5 -16 -13 -36t-24 -38t-41.5 -30t-63.5 -12q-55 0 -81.5 25t-26.5 66q0 60 51 91t139 31q23 0 36.5 -1t23.5 -3v107q0 58 -21.5 81.5t-79.5 23.5q-40 0 -64.5 -15.5
t-24.5 -38.5q0 -25 16.5 -31t39.5 -6zM129 77q0 -28 15.5 -42t41.5 -14q29 0 52 12.5t38.5 33.5t23.5 47.5t8 54.5q-6 1 -20.5 2.5t-34.5 1.5q-64 0 -94 -26t-30 -70z" />
    <glyph glyph-name="acircumflex" unicode="&#xe2;" horiz-adv-x="496" 
d="M249 710q9 -25 23.5 -52t33.5 -49.5t41.5 -37t48.5 -14.5q0 -47 -41 -47q-20 0 -38.5 16.5t-34.5 42t-28.5 55.5t-20.5 58q-9 -28 -22 -58t-29 -55.5t-34 -42t-37 -16.5q-41 0 -41 47q24 0 46.5 14.5t41.5 37t34.5 49.5t24.5 52h32zM174 311q0 -25 -13.5 -41t-42.5 -16
q-23 0 -36.5 13t-13.5 43q0 22 11.5 44t34 39t55.5 28t76 11q70 0 99 -31t29 -79v-222q0 -45 10.5 -62.5t29.5 -17.5t29.5 14t10.5 56q25 0 25 -35q0 -30 -17.5 -52t-62.5 -22q-41 0 -63.5 29t-22.5 86l-4 1q-5 -16 -13 -36t-24 -38t-41.5 -30t-63.5 -12q-55 0 -81.5 25
t-26.5 66q0 60 51 91t139 31q23 0 36.5 -1t23.5 -3v107q0 58 -21.5 81.5t-79.5 23.5q-40 0 -64.5 -15.5t-24.5 -38.5q0 -25 16.5 -31t39.5 -6zM129 77q0 -28 15.5 -42t41.5 -14q29 0 52 12.5t38.5 33.5t23.5 47.5t8 54.5q-6 1 -20.5 2.5t-34.5 1.5q-64 0 -94 -26t-30 -70z
" />
    <glyph glyph-name="atilde" unicode="&#xe3;" horiz-adv-x="496" 
d="M307 669q4 6 14 6q17 0 27.5 -15t10.5 -35q0 -30 -16.5 -47t-48.5 -17q-15 0 -34.5 4.5t-38.5 10t-36.5 10t-28.5 4.5q-14 0 -21.5 -8t-7.5 -22q0 -11 4 -19t9 -13q-2 -2 -5.5 -3.5t-9.5 -1.5q-15 0 -26 13t-11 36q0 29 16.5 46.5t45.5 17.5q13 0 32.5 -4.5t39 -9.5
t38 -9.5t30.5 -4.5q16 0 23.5 8.5t7.5 20.5q0 11 -4.5 19.5t-9.5 12.5zM174 311q0 -25 -13.5 -41t-42.5 -16q-23 0 -36.5 13t-13.5 43q0 22 11.5 44t34 39t55.5 28t76 11q70 0 99 -31t29 -79v-222q0 -45 10.5 -62.5t29.5 -17.5t29.5 14t10.5 56q25 0 25 -35q0 -30 -17.5 -52
t-62.5 -22q-41 0 -63.5 29t-22.5 86l-4 1q-5 -16 -13 -36t-24 -38t-41.5 -30t-63.5 -12q-55 0 -81.5 25t-26.5 66q0 60 51 91t139 31q23 0 36.5 -1t23.5 -3v107q0 58 -21.5 81.5t-79.5 23.5q-40 0 -64.5 -15.5t-24.5 -38.5q0 -25 16.5 -31t39.5 -6zM129 77q0 -28 15.5 -42
t41.5 -14q29 0 52 12.5t38.5 33.5t23.5 47.5t8 54.5q-6 1 -20.5 2.5t-34.5 1.5q-64 0 -94 -26t-30 -70z" />
    <glyph glyph-name="adieresis" unicode="&#xe4;" horiz-adv-x="496" 
d="M96 600q0 23 14.5 38t36.5 15q23 0 36.5 -15t13.5 -38t-13.5 -37t-36.5 -14q-22 0 -36.5 14t-14.5 37zM269 600q0 23 14.5 38t36.5 15q23 0 36.5 -15t13.5 -38t-13.5 -37t-36.5 -14q-22 0 -36.5 14t-14.5 37zM174 311q0 -25 -13.5 -41t-42.5 -16q-23 0 -36.5 13t-13.5 43
q0 22 11.5 44t34 39t55.5 28t76 11q70 0 99 -31t29 -79v-222q0 -45 10.5 -62.5t29.5 -17.5t29.5 14t10.5 56q25 0 25 -35q0 -30 -17.5 -52t-62.5 -22q-41 0 -63.5 29t-22.5 86l-4 1q-5 -16 -13 -36t-24 -38t-41.5 -30t-63.5 -12q-55 0 -81.5 25t-26.5 66q0 60 51 91t139 31
q23 0 36.5 -1t23.5 -3v107q0 58 -21.5 81.5t-79.5 23.5q-40 0 -64.5 -15.5t-24.5 -38.5q0 -25 16.5 -31t39.5 -6zM129 77q0 -28 15.5 -42t41.5 -14q29 0 52 12.5t38.5 33.5t23.5 47.5t8 54.5q-6 1 -20.5 2.5t-34.5 1.5q-64 0 -94 -26t-30 -70z" />
    <glyph glyph-name="aring" unicode="&#xe5;" horiz-adv-x="496" 
d="M148 612q0 40 24.5 63t60.5 23t60.5 -23t24.5 -63t-24.5 -62t-60.5 -22t-60.5 22t-24.5 62zM183 612q0 -26 14.5 -40t35.5 -14t35.5 14t14.5 40t-14.5 41t-35.5 15t-35.5 -15t-14.5 -41zM174 311q0 -25 -13.5 -41t-42.5 -16q-23 0 -36.5 13t-13.5 43q0 22 11.5 44t34 39
t55.5 28t76 11q70 0 99 -31t29 -79v-222q0 -45 10.5 -62.5t29.5 -17.5t29.5 14t10.5 56q25 0 25 -35q0 -30 -17.5 -52t-62.5 -22q-41 0 -63.5 29t-22.5 86l-4 1q-5 -16 -13 -36t-24 -38t-41.5 -30t-63.5 -12q-55 0 -81.5 25t-26.5 66q0 60 51 91t139 31q23 0 36.5 -1
t23.5 -3v107q0 58 -21.5 81.5t-79.5 23.5q-40 0 -64.5 -15.5t-24.5 -38.5q0 -25 16.5 -31t39.5 -6zM129 77q0 -28 15.5 -42t41.5 -14q29 0 52 12.5t38.5 33.5t23.5 47.5t8 54.5q-6 1 -20.5 2.5t-34.5 1.5q-64 0 -94 -26t-30 -70z" />
    <glyph glyph-name="ae" unicode="&#xe6;" horiz-adv-x="727" 
d="M174 311q0 -26 -14 -41.5t-39 -15.5q-23 0 -38 12t-15 45q0 21 11.5 43t34 39t55.5 28t76 11q28 0 49 -6t35.5 -15t22.5 -19.5t11 -20.5q6 10 19 20.5t31.5 19.5t42.5 15t54 6q45 0 77 -11.5t52 -31t29 -46t9 -56.5t-16 -43t-42 -13h-246q0 -61 12.5 -101t34 -64
t50 -33.5t60.5 -9.5q48 0 85 15.5t54 30.5l7 -28q-8 -10 -23 -20.5t-35 -19.5t-45.5 -14.5t-55.5 -5.5q-53 0 -89 15t-59.5 35.5t-35 40.5t-14.5 30l-5 1q-3 -14 -11.5 -35t-25.5 -40.5t-44 -33t-66 -13.5q-54 0 -81.5 24t-27.5 67q0 60 51.5 91t139.5 31q20 0 35.5 -1
t23.5 -3v107q0 58 -22 81.5t-80 23.5q-45 0 -66.5 -17t-21.5 -36q0 -23 13.5 -30.5t42.5 -7.5zM540 258q61 1 61 54q0 41 -21.5 65.5t-66.5 24.5q-29 0 -53.5 -11.5t-42.5 -31t-29 -47t-13 -58.5zM308 169q-8 2 -23 3t-38 1q-57 0 -87.5 -25.5t-30.5 -67.5q0 -59 60 -59
q30 0 52 13.5t37 35t22.5 47.5t7.5 52z" />
    <glyph glyph-name="ccedilla" unicode="&#xe7;" horiz-adv-x="476" 
d="M272 23q35 0 61.5 7t44.5 16t28.5 18t15.5 13l7 -28q-5 -6 -16.5 -16.5t-30.5 -22t-46.5 -20t-63.5 -9.5q-12 -15 -12 -30q0 -16 16.5 -25.5t36.5 -20t36.5 -25t16.5 -39.5q0 -33 -24.5 -53.5t-74.5 -20.5q-41 0 -67 14.5t-26 34.5q0 9 3 15t6 8q8 -11 28 -22t51 -11
q23 0 34.5 9.5t11.5 24.5t-12.5 24.5t-27.5 18.5t-27.5 21t-12.5 33q0 12 5.5 23.5t13.5 20.5q-41 2 -77 16.5t-63 43t-43 71t-16 100.5q0 46 14.5 86t43 70t69 47t93.5 17q47 0 78.5 -10.5t51 -27t27.5 -37t8 -39.5q0 -29 -14.5 -46t-40.5 -17q-21 0 -30.5 10t-9.5 20
q8 4 16.5 13t8.5 32q0 13 -4.5 26.5t-15.5 24t-30.5 17.5t-49.5 7q-64 0 -102 -49t-38 -140q0 -53 12.5 -90t33 -60t47.5 -33t56 -10z" />
    <glyph glyph-name="egrave" unicode="&#xe8;" horiz-adv-x="477" 
d="M326 465q-44 19 -81 42t-63.5 47t-41.5 49.5t-15 50.5q0 20 11.5 32t33.5 12q0 -6 5 -27t22.5 -50.5t51.5 -63.5t92 -66zM48 213q0 49 14.5 89.5t42 69.5t66.5 44.5t89 15.5q46 0 77.5 -11.5t51.5 -31t29 -46t9 -55.5q0 -57 -59 -57h-245q0 -109 40.5 -158.5t110.5 -49.5
q31 0 55.5 5.5t42.5 13t29.5 15t17.5 12.5l7 -28q-5 -4 -16.5 -14t-31 -20t-47.5 -18t-65 -8q-49 0 -89 15t-68.5 44t-44.5 72.5t-16 100.5zM291 258q29 1 44.5 13.5t15.5 40.5q0 38 -20 64t-69 26q-28 0 -52.5 -11.5t-42.5 -31.5t-29.5 -47t-12.5 -58z" />
    <glyph glyph-name="eacute" unicode="&#xe9;" horiz-adv-x="477" 
d="M160 504q58 32 92 66t51.5 63.5t22.5 50.5t5 27q22 0 33.5 -12t11.5 -32q0 -25 -15 -50.5t-41.5 -49.5t-63.5 -47t-81 -42zM48 213q0 49 14.5 89.5t42 69.5t66.5 44.5t89 15.5q46 0 77.5 -11.5t51.5 -31t29 -46t9 -55.5q0 -57 -59 -57h-245q0 -109 40.5 -158.5
t110.5 -49.5q31 0 55.5 5.5t42.5 13t29.5 15t17.5 12.5l7 -28q-5 -4 -16.5 -14t-31 -20t-47.5 -18t-65 -8q-49 0 -89 15t-68.5 44t-44.5 72.5t-16 100.5zM291 258q29 1 44.5 13.5t15.5 40.5q0 38 -20 64t-69 26q-28 0 -52.5 -11.5t-42.5 -31.5t-29.5 -47t-12.5 -58z" />
    <glyph glyph-name="ecircumflex" unicode="&#xea;" horiz-adv-x="477" 
d="M276 710q9 -25 23.5 -52t33.5 -49.5t41.5 -37t48.5 -14.5q0 -47 -41 -47q-20 0 -38.5 16.5t-34.5 42t-28.5 55.5t-20.5 58q-9 -28 -22 -58t-29 -55.5t-34 -42t-37 -16.5q-41 0 -41 47q24 0 46.5 14.5t41.5 37t34.5 49.5t24.5 52h32zM48 213q0 49 14.5 89.5t42 69.5
t66.5 44.5t89 15.5q46 0 77.5 -11.5t51.5 -31t29 -46t9 -55.5q0 -57 -59 -57h-245q0 -109 40.5 -158.5t110.5 -49.5q31 0 55.5 5.5t42.5 13t29.5 15t17.5 12.5l7 -28q-5 -4 -16.5 -14t-31 -20t-47.5 -18t-65 -8q-49 0 -89 15t-68.5 44t-44.5 72.5t-16 100.5zM291 258
q29 1 44.5 13.5t15.5 40.5q0 38 -20 64t-69 26q-28 0 -52.5 -11.5t-42.5 -31.5t-29.5 -47t-12.5 -58z" />
    <glyph glyph-name="edieresis" unicode="&#xeb;" horiz-adv-x="477" 
d="M123 600q0 23 14.5 38t36.5 15q23 0 36.5 -15t13.5 -38t-13.5 -37t-36.5 -14q-22 0 -36.5 14t-14.5 37zM296 600q0 23 14.5 38t36.5 15q23 0 36.5 -15t13.5 -38t-13.5 -37t-36.5 -14q-22 0 -36.5 14t-14.5 37zM48 213q0 49 14.5 89.5t42 69.5t66.5 44.5t89 15.5
q46 0 77.5 -11.5t51.5 -31t29 -46t9 -55.5q0 -57 -59 -57h-245q0 -109 40.5 -158.5t110.5 -49.5q31 0 55.5 5.5t42.5 13t29.5 15t17.5 12.5l7 -28q-5 -4 -16.5 -14t-31 -20t-47.5 -18t-65 -8q-49 0 -89 15t-68.5 44t-44.5 72.5t-16 100.5zM291 258q29 1 44.5 13.5t15.5 40.5
q0 38 -20 64t-69 26q-28 0 -52.5 -11.5t-42.5 -31.5t-29.5 -47t-12.5 -58z" />
    <glyph glyph-name="igrave" unicode="&#xec;" horiz-adv-x="305" 
d="M225 478q-44 19 -81 42t-63.5 47t-41.5 49.5t-15 50.5q0 20 11.5 32t33.5 12q0 -6 5 -27t22.5 -50.5t51.5 -63.5t92 -66zM59 401q31 0 54.5 6.5t39 16t23.5 20t8 18.5l18 -14q-3 -30 -8 -89.5t-5 -156.5q0 -38 1 -66.5t2 -49t2 -34.5t2 -23q8 -2 28 -5t51 -3l-17 -25
l-99 4l-104 -4l-17 25q30 0 48.5 2.5t30.5 5.5q1 11 2.5 25t2.5 34t1.5 48t0.5 66q0 66 -1 103t-3 54q-6 5 -23 12t-49 7z" />
    <glyph glyph-name="iacute" unicode="&#xed;" horiz-adv-x="305" 
d="M49 504q58 32 92 66t51.5 63.5t22.5 50.5t5 27q22 0 33.5 -12t11.5 -32q0 -25 -15 -50.5t-41.5 -49.5t-63.5 -47t-81 -42zM59 401q31 0 54.5 6.5t39 16t23.5 20t8 18.5l18 -14q-3 -30 -8 -89.5t-5 -156.5q0 -38 1 -66.5t2 -49t2 -34.5t2 -23q8 -2 28 -5t51 -3l-17 -25
l-99 4l-104 -4l-17 25q30 0 48.5 2.5t30.5 5.5q1 11 2.5 25t2.5 34t1.5 48t0.5 66q0 66 -1 103t-3 54q-6 5 -23 12t-49 7z" />
    <glyph glyph-name="icircumflex" unicode="&#xee;" horiz-adv-x="305" 
d="M165 710q9 -25 23.5 -52t33.5 -49.5t41.5 -37t48.5 -14.5q0 -47 -41 -47q-20 0 -38.5 16.5t-34.5 42t-28.5 55.5t-20.5 58q-9 -28 -22 -58t-29 -55.5t-34 -42t-37 -16.5q-41 0 -41 47q24 0 46.5 14.5t41.5 37t34.5 49.5t24.5 52h32zM59 401q31 0 54.5 6.5t39 16t23.5 20
t8 18.5l18 -14q-3 -30 -8 -89.5t-5 -156.5q0 -38 1 -66.5t2 -49t2 -34.5t2 -23q8 -2 28 -5t51 -3l-17 -25l-99 4l-104 -4l-17 25q30 0 48.5 2.5t30.5 5.5q1 11 2.5 25t2.5 34t1.5 48t0.5 66q0 66 -1 103t-3 54q-6 5 -23 12t-49 7z" />
    <glyph glyph-name="idieresis" unicode="&#xef;" horiz-adv-x="305" 
d="M12 600q0 23 14.5 38t36.5 15q23 0 36.5 -15t13.5 -38t-13.5 -37t-36.5 -14q-22 0 -36.5 14t-14.5 37zM185 600q0 23 14.5 38t36.5 15q23 0 36.5 -15t13.5 -38t-13.5 -37t-36.5 -14q-22 0 -36.5 14t-14.5 37zM59 401q31 0 54.5 6.5t39 16t23.5 20t8 18.5l18 -14
q-3 -30 -8 -89.5t-5 -156.5q0 -38 1 -66.5t2 -49t2 -34.5t2 -23q8 -2 28 -5t51 -3l-17 -25l-99 4l-104 -4l-17 25q30 0 48.5 2.5t30.5 5.5q1 11 2.5 25t2.5 34t1.5 48t0.5 66q0 66 -1 103t-3 54q-6 5 -23 12t-49 7z" />
    <glyph glyph-name="eth" unicode="&#xf0;" horiz-adv-x="544" 
d="M48 207q0 51 16 92.5t45.5 71t70.5 45.5t92 16q48 0 77.5 -11t40.5 -23q-22 55 -49.5 97.5t-57.5 74.5l-155 -64l-10 34l138 57q-31 29 -61.5 49t-56.5 34l40 42q79 -41 141 -99l127 53l11 -34l-111 -46q72 -78 111 -173.5t39 -196.5q0 -113 -56 -179t-168 -66
q-51 0 -92 15.5t-70.5 44.5t-45.5 71t-16 95zM122 207q0 -98 42 -142t108 -44q69 0 109.5 48t40.5 142t-42 142t-108 48t-108 -50t-42 -144z" />
    <glyph glyph-name="ntilde" unicode="&#xf1;" horiz-adv-x="601" 
d="M384 656q4 6 14 6q17 0 27.5 -15t10.5 -35q0 -30 -16.5 -47t-48.5 -17q-15 0 -34.5 4.5t-38.5 10t-36.5 10t-28.5 4.5q-14 0 -21.5 -8t-7.5 -22q0 -11 4 -19t9 -13q-2 -2 -5.5 -3.5t-9.5 -1.5q-15 0 -26 13t-11 36q0 29 16.5 46.5t45.5 17.5q13 0 32.5 -4.5t39 -9.5
t38 -9.5t30.5 -4.5q16 0 23.5 8.5t7.5 20.5q0 11 -4.5 19.5t-9.5 12.5zM50 401q34 0 56.5 5.5t35.5 14.5t18 20t5 21l19 -15q-3 -15 -5 -43.5t-2 -58.5q10 15 24 30t34.5 28t48 21t63.5 8q70 0 107.5 -31.5t37.5 -100.5q0 -57 0.5 -99t1 -74t1 -55.5t1.5 -42.5
q14 -3 35.5 -5.5t41.5 -2.5l-17 -25l-99 4l-95 -4l-18 25q20 0 41 2.5t34 5.5q1 35 2.5 94t1.5 155q0 52 -22.5 83.5t-80.5 31.5q-45 0 -78 -23t-54 -64q-1 -24 -1 -49.5v-57.5q0 -60 0.5 -102t1.5 -68q12 -3 33 -5.5t44 -2.5l-17 -25l-95 4l-99 -4l-17 25q23 0 44.5 2.5
t32.5 5.5q2 26 3 65.5t1 102.5q0 70 -1 103.5t-3 47.5q-7 11 -25 20.5t-47 9.5z" />
    <glyph glyph-name="ograve" unicode="&#xf2;" horiz-adv-x="546" 
d="M339 465q-44 19 -81 42t-63.5 47t-41.5 49.5t-15 50.5q0 20 11.5 32t33.5 12q0 -6 5 -27t22.5 -50.5t51.5 -63.5t92 -66zM48 210q0 52 16 93.5t45.5 70t71 43.5t92.5 15t92.5 -15t71 -43.5t45.5 -70t16 -93.5q0 -105 -56.5 -167t-168.5 -62q-113 0 -169 62t-56 167z
M123 210q0 -98 39 -148.5t111 -50.5t111 50.5t39 148.5q0 94 -41 143t-109 49t-109 -49t-41 -143z" />
    <glyph glyph-name="oacute" unicode="&#xf3;" horiz-adv-x="546" 
d="M173 504q58 32 92 66t51.5 63.5t22.5 50.5t5 27q22 0 33.5 -12t11.5 -32q0 -25 -15 -50.5t-41.5 -49.5t-63.5 -47t-81 -42zM48 210q0 52 16 93.5t45.5 70t71 43.5t92.5 15t92.5 -15t71 -43.5t45.5 -70t16 -93.5q0 -105 -56.5 -167t-168.5 -62q-113 0 -169 62t-56 167z
M123 210q0 -98 39 -148.5t111 -50.5t111 50.5t39 148.5q0 94 -41 143t-109 49t-109 -49t-41 -143z" />
    <glyph glyph-name="ocircumflex" unicode="&#xf4;" horiz-adv-x="546" 
d="M289 710q9 -25 23.5 -52t33.5 -49.5t41.5 -37t48.5 -14.5q0 -47 -41 -47q-20 0 -38.5 16.5t-34.5 42t-28.5 55.5t-20.5 58q-9 -28 -22 -58t-29 -55.5t-34 -42t-37 -16.5q-41 0 -41 47q24 0 46.5 14.5t41.5 37t34.5 49.5t24.5 52h32zM48 210q0 52 16 93.5t45.5 70t71 43.5
t92.5 15t92.5 -15t71 -43.5t45.5 -70t16 -93.5q0 -105 -56.5 -167t-168.5 -62q-113 0 -169 62t-56 167zM123 210q0 -98 39 -148.5t111 -50.5t111 50.5t39 148.5q0 94 -41 143t-109 49t-109 -49t-41 -143z" />
    <glyph glyph-name="otilde" unicode="&#xf5;" horiz-adv-x="546" 
d="M356 656q4 6 14 6q17 0 27.5 -15t10.5 -35q0 -30 -16.5 -47t-48.5 -17q-15 0 -34.5 4.5t-38.5 10t-36.5 10t-28.5 4.5q-14 0 -21.5 -8t-7.5 -22q0 -11 4 -19t9 -13q-2 -2 -5.5 -3.5t-9.5 -1.5q-15 0 -26 13t-11 36q0 29 16.5 46.5t45.5 17.5q13 0 32.5 -4.5t39 -9.5
t38 -9.5t30.5 -4.5q16 0 23.5 8.5t7.5 20.5q0 11 -4.5 19.5t-9.5 12.5zM48 210q0 52 16 93.5t45.5 70t71 43.5t92.5 15t92.5 -15t71 -43.5t45.5 -70t16 -93.5q0 -105 -56.5 -167t-168.5 -62q-113 0 -169 62t-56 167zM123 210q0 -98 39 -148.5t111 -50.5t111 50.5t39 148.5
q0 94 -41 143t-109 49t-109 -49t-41 -143z" />
    <glyph glyph-name="odieresis" unicode="&#xf6;" horiz-adv-x="546" 
d="M136 600q0 23 14.5 38t36.5 15q23 0 36.5 -15t13.5 -38t-13.5 -37t-36.5 -14q-22 0 -36.5 14t-14.5 37zM309 600q0 23 14.5 38t36.5 15q23 0 36.5 -15t13.5 -38t-13.5 -37t-36.5 -14q-22 0 -36.5 14t-14.5 37zM48 210q0 52 16 93.5t45.5 70t71 43.5t92.5 15t92.5 -15
t71 -43.5t45.5 -70t16 -93.5q0 -105 -56.5 -167t-168.5 -62q-113 0 -169 62t-56 167zM123 210q0 -98 39 -148.5t111 -50.5t111 50.5t39 148.5q0 94 -41 143t-109 49t-109 -49t-41 -143z" />
    <glyph glyph-name="divide" unicode="&#xf7;" horiz-adv-x="490" 
d="M200 356q0 20 12.5 32.5t32.5 12.5t32.5 -12.5t12.5 -32.5t-12.5 -32.5t-32.5 -12.5t-32.5 12.5t-12.5 32.5zM410 252h-330v-46h330v46zM200 102q0 20 12.5 32.5t32.5 12.5t32.5 -12.5t12.5 -32.5t-12.5 -32.5t-32.5 -12.5t-32.5 12.5t-12.5 32.5z" />
    <glyph glyph-name="oslash" unicode="&#xf8;" horiz-adv-x="544" 
d="M402 400q45 -27 69.5 -74.5t24.5 -114.5q0 -107 -56.5 -168.5t-167.5 -61.5q-52 0 -94 14l-41 -74h-43l50 90q-96 55 -96 195q0 51 16 92.5t45.5 71t70.5 46t92 16.5q55 0 96 -16l42 76h43zM349 381q-33 21 -77 21q-33 0 -60.5 -14t-47.5 -39.5t-31 -61.5t-11 -81
q0 -54 12.5 -91t33.5 -61zM197 30q32 -19 75 -19q31 0 58.5 11.5t47.5 36t32 62.5t12 90q0 48 -11.5 84.5t-32.5 60.5z" />
    <glyph glyph-name="ugrave" unicode="&#xf9;" horiz-adv-x="597" 
d="M354 465q-44 19 -81 42t-63.5 47t-41.5 49.5t-15 50.5q0 20 11.5 32t33.5 12q0 -6 5 -27t22.5 -50.5t51.5 -63.5t92 -66zM38 409q47 0 83.5 6t53.5 13l8 -8q-3 -17 -4.5 -53t-3 -79.5t-2 -88t-0.5 -79.5q0 -99 90 -99q38 0 64.5 16.5t43 41t23.5 52t7 49.5v198
q-8 2 -28.5 5t-60.5 3l13 23q38 0 77.5 6t63.5 13l7 -8q-2 -14 -3 -39.5t-1.5 -57t-1 -66t-1 -65.5t-0.5 -55.5v-36.5q0 -42 10.5 -60.5t33.5 -18.5q24 0 35.5 19t11.5 52q11 0 16.5 -7t5.5 -25q0 -14 -4.5 -28t-14.5 -25t-26 -18.5t-40 -7.5q-41 0 -64 26.5t-23 86.5l-3 1
q-7 -18 -19 -38.5t-31.5 -37t-47.5 -27.5t-68 -11q-63 0 -99 31.5t-36 91.5q0 48 2 100.5t2 95.5q0 23 -0.5 44t-1.5 38q-11 2 -32 3t-45 1z" />
    <glyph glyph-name="uacute" unicode="&#xfa;" horiz-adv-x="597" 
d="M188 504q58 32 92 66t51.5 63.5t22.5 50.5t5 27q22 0 33.5 -12t11.5 -32q0 -25 -15 -50.5t-41.5 -49.5t-63.5 -47t-81 -42zM38 409q47 0 83.5 6t53.5 13l8 -8q-3 -17 -4.5 -53t-3 -79.5t-2 -88t-0.5 -79.5q0 -99 90 -99q38 0 64.5 16.5t43 41t23.5 52t7 49.5v198
q-8 2 -28.5 5t-60.5 3l13 23q38 0 77.5 6t63.5 13l7 -8q-2 -14 -3 -39.5t-1.5 -57t-1 -66t-1 -65.5t-0.5 -55.5v-36.5q0 -42 10.5 -60.5t33.5 -18.5q24 0 35.5 19t11.5 52q11 0 16.5 -7t5.5 -25q0 -14 -4.5 -28t-14.5 -25t-26 -18.5t-40 -7.5q-41 0 -64 26.5t-23 86.5l-3 1
q-7 -18 -19 -38.5t-31.5 -37t-47.5 -27.5t-68 -11q-63 0 -99 31.5t-36 91.5q0 48 2 100.5t2 95.5q0 23 -0.5 44t-1.5 38q-11 2 -32 3t-45 1z" />
    <glyph glyph-name="ucircumflex" unicode="&#xfb;" horiz-adv-x="597" 
d="M304 710q9 -25 23.5 -52t33.5 -49.5t41.5 -37t48.5 -14.5q0 -47 -41 -47q-20 0 -38.5 16.5t-34.5 42t-28.5 55.5t-20.5 58q-9 -28 -22 -58t-29 -55.5t-34 -42t-37 -16.5q-41 0 -41 47q24 0 46.5 14.5t41.5 37t34.5 49.5t24.5 52h32zM38 409q47 0 83.5 6t53.5 13l8 -8
q-3 -17 -4.5 -53t-3 -79.5t-2 -88t-0.5 -79.5q0 -99 90 -99q38 0 64.5 16.5t43 41t23.5 52t7 49.5v198q-8 2 -28.5 5t-60.5 3l13 23q38 0 77.5 6t63.5 13l7 -8q-2 -14 -3 -39.5t-1.5 -57t-1 -66t-1 -65.5t-0.5 -55.5v-36.5q0 -42 10.5 -60.5t33.5 -18.5q24 0 35.5 19
t11.5 52q11 0 16.5 -7t5.5 -25q0 -14 -4.5 -28t-14.5 -25t-26 -18.5t-40 -7.5q-41 0 -64 26.5t-23 86.5l-3 1q-7 -18 -19 -38.5t-31.5 -37t-47.5 -27.5t-68 -11q-63 0 -99 31.5t-36 91.5q0 48 2 100.5t2 95.5q0 23 -0.5 44t-1.5 38q-11 2 -32 3t-45 1z" />
    <glyph glyph-name="udieresis" unicode="&#xfc;" horiz-adv-x="597" 
d="M151 600q0 23 14.5 38t36.5 15q23 0 36.5 -15t13.5 -38t-13.5 -37t-36.5 -14q-22 0 -36.5 14t-14.5 37zM324 600q0 23 14.5 38t36.5 15q23 0 36.5 -15t13.5 -38t-13.5 -37t-36.5 -14q-22 0 -36.5 14t-14.5 37zM38 409q47 0 83.5 6t53.5 13l8 -8q-3 -17 -4.5 -53t-3 -79.5
t-2 -88t-0.5 -79.5q0 -99 90 -99q38 0 64.5 16.5t43 41t23.5 52t7 49.5v198q-8 2 -28.5 5t-60.5 3l13 23q38 0 77.5 6t63.5 13l7 -8q-2 -14 -3 -39.5t-1.5 -57t-1 -66t-1 -65.5t-0.5 -55.5v-36.5q0 -42 10.5 -60.5t33.5 -18.5q24 0 35.5 19t11.5 52q11 0 16.5 -7t5.5 -25
q0 -14 -4.5 -28t-14.5 -25t-26 -18.5t-40 -7.5q-41 0 -64 26.5t-23 86.5l-3 1q-7 -18 -19 -38.5t-31.5 -37t-47.5 -27.5t-68 -11q-63 0 -99 31.5t-36 91.5q0 48 2 100.5t2 95.5q0 23 -0.5 44t-1.5 38q-11 2 -32 3t-45 1z" />
    <glyph glyph-name="thorn" unicode="&#xfe;" horiz-adv-x="561" 
d="M26 -200q32 0 52 3t28 5q2 48 4.5 170t2.5 301q0 143 -3 243t-6 138q-13 5 -36.5 11t-49.5 6l10 22q54 0 90 7.5t49 15.5l19 -15q-1 -23 -2 -59t-2 -80t-1.5 -95t-0.5 -104q9 10 23 21t32 20.5t40.5 15.5t48.5 6q92 0 140.5 -57t48.5 -158q0 -57 -16 -101t-44 -74
t-66.5 -45.5t-83.5 -15.5q-44 0 -76 12.5t-46 24.5q0 -86 0.5 -139.5t1.5 -70.5q17 -2 46.5 -5t61.5 -3l-17 -25l-129 4l-102 -4zM182 56q6 -5 15.5 -12.5t24 -14t33 -11.5t41.5 -5q67 0 104.5 50t37.5 155q0 89 -36.5 134.5t-93.5 45.5q-22 0 -41 -7t-35.5 -17.5t-29.5 -24
t-22 -26.5z" />
    <glyph glyph-name="ydieresis" unicode="&#xff;" horiz-adv-x="499" 
d="M116 600q0 23 14.5 38t36.5 15q23 0 36.5 -15t13.5 -38t-13.5 -37t-36.5 -14q-22 0 -36.5 14t-14.5 37zM289 600q0 23 14.5 38t36.5 15q23 0 36.5 -15t13.5 -38t-13.5 -37t-36.5 -14q-22 0 -36.5 14t-14.5 37zM-12 427q15 -2 44 -4.5t67 -2.5t67.5 2.5t43.5 4.5l15 -26
q-52 0 -70 -4t-18 -12q0 -14 32.5 -101t94.5 -233q0 9 0.5 17t2.5 12q7 18 17.5 45.5t22.5 58.5t24 63t21.5 59.5t15.5 48t6 28.5q0 10 -15 14t-62 4l20 26q27 -4 50 -5.5t43 -1.5t45 1.5t45 5.5l11 -26q-35 0 -57.5 -4.5t-26.5 -12.5l-191 -487q-23 -60 -58 -95t-92 -35
q-40 0 -66.5 18.5t-26.5 54.5q0 26 14 40t34 14q13 0 21 -5t12 -12q-8 -6 -13 -14.5t-5 -20.5q0 -17 11 -27t34 -10q12 0 25 4t26.5 17t27.5 36.5t28 61.5l21 56l-171 397q-5 13 -25 18.5t-60 5.5z" />
    <glyph glyph-name="Amacron" unicode="&#x100;" horiz-adv-x="683" 
d="M457 766h-247v55h247v-55zM-20 21q48 0 71 4t35 8q13 39 30 91t35.5 110t38 119.5t37.5 120l34 110.5t29 92q43 0 67.5 11t31.5 16q19 -58 39.5 -122t40 -128t38 -126.5t35 -117.5t30.5 -100.5t24 -75.5q12 -4 36.5 -8t70.5 -4l-17 -25l-141 4l-141 -4l-17 25q51 0 77 4
t38 8q-13 56 -34 132t-44 157q-17 1 -42.5 1.5t-60.5 0.5q-39 0 -64 -0.5t-41 -1.5q-25 -81 -47.5 -153.5t-40.5 -135.5q11 -5 36 -8.5t76 -3.5l-17 -25l-121 4l-105 -4zM321 350q32 0 55 0.5t40 0.5q-26 89 -50.5 167.5t-40.5 125.5q-6 -2 -12 -2q-23 -76 -45 -148.5
t-43 -141.5q14 -1 37.5 -1.5t58.5 -0.5z" />
    <glyph glyph-name="amacron" unicode="&#x101;" horiz-adv-x="496" 
d="M356 543h-247v55h247v-55zM174 311q0 -25 -13.5 -41t-42.5 -16q-23 0 -36.5 13t-13.5 43q0 22 11.5 44t34 39t55.5 28t76 11q70 0 99 -31t29 -79v-222q0 -45 10.5 -62.5t29.5 -17.5t29.5 14t10.5 56q25 0 25 -35q0 -30 -17.5 -52t-62.5 -22q-41 0 -63.5 29t-22.5 86l-4 1
q-5 -16 -13 -36t-24 -38t-41.5 -30t-63.5 -12q-55 0 -81.5 25t-26.5 66q0 60 51 91t139 31q23 0 36.5 -1t23.5 -3v107q0 58 -21.5 81.5t-79.5 23.5q-40 0 -64.5 -15.5t-24.5 -38.5q0 -25 16.5 -31t39.5 -6zM129 77q0 -28 15.5 -42t41.5 -14q29 0 52 12.5t38.5 33.5
t23.5 47.5t8 54.5q-6 1 -20.5 2.5t-34.5 1.5q-64 0 -94 -26t-30 -70z" />
    <glyph glyph-name="Abreve" unicode="&#x102;" horiz-adv-x="683" 
d="M456 868q0 -57 -29.5 -95.5t-91.5 -38.5t-91.5 38t-29.5 96l22 9q1 -16 7 -33t17 -31.5t29.5 -23.5t45.5 -9t45.5 9t29.5 23.5t16.5 31.5t7.5 33zM-3 -4l105 4l121 -4l17 25q-51 0 -76 3.5t-36 8.5q18 63 40.5 135.5t47.5 153.5q16 1 41 1.5t64 0.5q35 0 60.5 -0.5
t42.5 -1.5q23 -81 44 -157t34 -132q-12 -4 -38 -8t-77 -4l17 -25l141 4l141 -4l17 25q-46 0 -70.5 4t-36.5 8q-10 30 -24 75.5t-30.5 100.5t-35 117.5t-38 126.5t-40 128t-39.5 122q-7 -5 -31.5 -16t-67.5 -11q-13 -40 -29 -92l-34 -110.5t-37.5 -120t-38 -119.5t-35.5 -110
t-30 -91q-12 -4 -35 -8t-71 -4zM321 350q-35 0 -58.5 0.5t-37.5 1.5q21 69 43 141.5t45 148.5q6 0 12 2q16 -47 40.5 -125.5t50.5 -167.5q-17 0 -40 -0.5t-55 -0.5z" />
    <glyph glyph-name="abreve" unicode="&#x103;" horiz-adv-x="496" 
d="M364 648q0 -30 -6.5 -57.5t-22 -47.5t-40.5 -32t-62 -12t-62 11.5t-40.5 32t-22 47.5t-6.5 58l20 9q1 -16 6.5 -35.5t17.5 -36.5t33 -28.5t54 -11.5t54 11.5t33 28.5t17 36.5t7 35.5zM174 311q0 -25 -13.5 -41t-42.5 -16q-23 0 -36.5 13t-13.5 43q0 22 11.5 44t34 39
t55.5 28t76 11q70 0 99 -31t29 -79v-222q0 -45 10.5 -62.5t29.5 -17.5t29.5 14t10.5 56q25 0 25 -35q0 -30 -17.5 -52t-62.5 -22q-41 0 -63.5 29t-22.5 86l-4 1q-5 -16 -13 -36t-24 -38t-41.5 -30t-63.5 -12q-55 0 -81.5 25t-26.5 66q0 60 51 91t139 31q23 0 36.5 -1
t23.5 -3v107q0 58 -21.5 81.5t-79.5 23.5q-40 0 -64.5 -15.5t-24.5 -38.5q0 -25 16.5 -31t39.5 -6zM129 77q0 -28 15.5 -42t41.5 -14q29 0 52 12.5t38.5 33.5t23.5 47.5t8 54.5q-6 1 -20.5 2.5t-34.5 1.5q-64 0 -94 -26t-30 -70z" />
    <glyph glyph-name="Aogonek" unicode="&#x104;" horiz-adv-x="683" 
d="M595 -1q-12 -10 -25 -25t-24 -34t-18.5 -42t-7.5 -48t10.5 -35t28.5 -10q20 0 33 10t18 20q3 -2 6.5 -7t3.5 -13q0 -23 -22 -38t-66 -15q-39 0 -60.5 17.5t-21.5 55.5q0 27 10.5 51.5t27 45t36.5 37.5t38 31h-17l-141 -4l-17 25q51 0 77 4t38 8q-13 56 -34 132t-44 157
q-17 1 -42.5 1.5t-60.5 0.5q-39 0 -64 -0.5t-41 -1.5q-25 -81 -47.5 -153.5t-40.5 -135.5q11 -5 36 -8.5t76 -3.5l-17 -25l-121 4l-105 -4l-17 25q48 0 71 4t35 8q13 39 30 91t35.5 110t38 119.5t37.5 120l34 110.5t29 92q43 0 67.5 11t31.5 16q19 -58 39.5 -122t40 -128
t38 -126.5t35 -117.5t30.5 -100.5t24 -75.5q12 -4 36.5 -8t70.5 -4l-17 -25zM321 350q32 0 55 0.5t40 0.5q-26 89 -50.5 167.5t-40.5 125.5q-6 -2 -12 -2q-23 -76 -45 -148.5t-43 -141.5q14 -1 37.5 -1.5t58.5 -0.5z" />
    <glyph glyph-name="aogonek" unicode="&#x105;" horiz-adv-x="496" 
d="M466 -165q3 -2 6.5 -7t3.5 -13q0 -23 -21.5 -38t-61.5 -15q-87 0 -87 73q0 23 8.5 43.5t22.5 39t30.5 34.5t33.5 29h-3q-41 0 -63.5 29t-22.5 86l-4 1q-5 -16 -13 -36t-24 -38t-41.5 -30t-63.5 -12q-55 0 -81.5 25t-26.5 66q0 60 51 91t139 31q23 0 36.5 -1t23.5 -3v107
q0 58 -21.5 81.5t-79.5 23.5q-40 0 -64.5 -15.5t-24.5 -38.5q0 -25 16.5 -31t39.5 -6q0 -25 -13.5 -41t-42.5 -16q-23 0 -36.5 13t-13.5 43q0 22 11.5 44t34 39t55.5 28t76 11q70 0 99 -31t29 -79v-222q0 -45 10.5 -62.5t29.5 -17.5t29.5 14t10.5 56q25 0 25 -35
q0 -20 -7.5 -37t-24.5 -27q-12 -11 -24 -26.5t-22.5 -34t-17 -40t-6.5 -45.5q0 -21 10 -30.5t26 -9.5q21 0 35 10t19 20zM186 21q29 0 52 12.5t38.5 33.5t23.5 47.5t8 54.5q-6 1 -20.5 2.5t-34.5 1.5q-64 0 -94 -26t-30 -70q0 -28 15.5 -42t41.5 -14z" />
    <glyph glyph-name="Cacute" unicode="&#x106;" horiz-adv-x="712" 
d="M323 740q37 18 62.5 40.5t41.5 45t22.5 41.5t6.5 30q18 0 27.5 -10.5t9.5 -27.5q0 -36 -39.5 -74.5t-118.5 -71.5zM632 476q-4 19 -16 49.5t-38.5 60t-70.5 51t-111 21.5q-55 0 -102.5 -20.5t-82.5 -61.5t-55 -104t-20 -147t22.5 -143t59 -96t83.5 -53.5t97 -16.5
q62 0 105.5 17t72.5 44t45 59.5t23 63.5l28 -22l-34 -136q-8 -5 -27 -15.5t-48.5 -20.5t-70 -17.5t-91.5 -7.5q-79 0 -144.5 21.5t-112.5 65.5t-73 110t-26 156q0 78 24 143t69.5 112t113 73t154.5 26q45 0 82 -5.5t64.5 -12.5t45.5 -14t26 -11l39 -145z" />
    <glyph glyph-name="cacute" unicode="&#x107;" horiz-adv-x="476" 
d="M161 504q58 32 92 66t51.5 63.5t22.5 50.5t5 27q22 0 33.5 -12t11.5 -32q0 -25 -15 -50.5t-41.5 -49.5t-63.5 -47t-81 -42zM429 49q-5 -6 -17 -17t-32.5 -22.5t-49.5 -20t-68 -8.5q-44 0 -82.5 13.5t-68 41.5t-46.5 71.5t-17 104.5q0 46 14.5 86t43 70t69 47t93.5 17
q47 0 78.5 -10.5t51 -27t27.5 -37t8 -39.5q0 -29 -14.5 -46t-40.5 -17q-21 0 -30.5 10t-9.5 20q8 4 16.5 13t8.5 32q0 13 -4.5 26.5t-15.5 24t-30.5 17.5t-49.5 7q-64 0 -102 -49t-38 -140q0 -53 12.5 -90t33 -60t47.5 -33t56 -10q35 0 61.5 7t44.5 16t28.5 18t15.5 13z" />
    <glyph glyph-name="Ccircumflex" unicode="&#x108;" horiz-adv-x="712" 
d="M259 767q19 0 37 11t33.5 28t28 37.5t20.5 39.5h32q7 -19 19.5 -39.5t28 -37.5t34 -28t38.5 -11q0 -42 -36 -42q-17 0 -32.5 12.5t-28.5 32t-23 43t-16 44.5q-7 -21 -17.5 -44.5t-23.5 -43t-28 -32t-31 -12.5q-18 0 -26.5 9.5t-8.5 32.5zM632 476q-4 19 -16 49.5
t-38.5 60t-70.5 51t-111 21.5q-55 0 -102.5 -20.5t-82.5 -61.5t-55 -104t-20 -147t22.5 -143t59 -96t83.5 -53.5t97 -16.5q62 0 105.5 17t72.5 44t45 59.5t23 63.5l28 -22l-34 -136q-8 -5 -27 -15.5t-48.5 -20.5t-70 -17.5t-91.5 -7.5q-79 0 -144.5 21.5t-112.5 65.5
t-73 110t-26 156q0 78 24 143t69.5 112t113 73t154.5 26q45 0 82 -5.5t64.5 -12.5t45.5 -14t26 -11l39 -145z" />
    <glyph glyph-name="ccircumflex" unicode="&#x109;" horiz-adv-x="476" 
d="M277 710q9 -25 23.5 -52t33.5 -49.5t41.5 -37t48.5 -14.5q0 -47 -41 -47q-20 0 -38.5 16.5t-34.5 42t-28.5 55.5t-20.5 58q-9 -28 -22 -58t-29 -55.5t-34 -42t-37 -16.5q-41 0 -41 47q24 0 46.5 14.5t41.5 37t34.5 49.5t24.5 52h32zM429 49q-5 -6 -17 -17t-32.5 -22.5
t-49.5 -20t-68 -8.5q-44 0 -82.5 13.5t-68 41.5t-46.5 71.5t-17 104.5q0 46 14.5 86t43 70t69 47t93.5 17q47 0 78.5 -10.5t51 -27t27.5 -37t8 -39.5q0 -29 -14.5 -46t-40.5 -17q-21 0 -30.5 10t-9.5 20q8 4 16.5 13t8.5 32q0 13 -4.5 26.5t-15.5 24t-30.5 17.5t-49.5 7
q-64 0 -102 -49t-38 -140q0 -53 12.5 -90t33 -60t47.5 -33t56 -10q35 0 61.5 7t44.5 16t28.5 18t15.5 13z" />
    <glyph glyph-name="Cdotaccent" unicode="&#x10a;" horiz-adv-x="712" 
d="M344 797q0 23 14.5 38t36.5 15q23 0 36.5 -15t13.5 -38t-13.5 -37t-36.5 -14q-22 0 -36.5 14t-14.5 37zM632 476q-4 19 -16 49.5t-38.5 60t-70.5 51t-111 21.5q-55 0 -102.5 -20.5t-82.5 -61.5t-55 -104t-20 -147t22.5 -143t59 -96t83.5 -53.5t97 -16.5q62 0 105.5 17
t72.5 44t45 59.5t23 63.5l28 -22l-34 -136q-8 -5 -27 -15.5t-48.5 -20.5t-70 -17.5t-91.5 -7.5q-79 0 -144.5 21.5t-112.5 65.5t-73 110t-26 156q0 78 24 143t69.5 112t113 73t154.5 26q45 0 82 -5.5t64.5 -12.5t45.5 -14t26 -11l39 -145z" />
    <glyph glyph-name="cdotaccent" unicode="&#x10b;" horiz-adv-x="476" 
d="M210 610q0 23 14.5 38t36.5 15q23 0 36.5 -15t13.5 -38t-13.5 -37t-36.5 -14q-22 0 -36.5 14t-14.5 37zM429 49q-5 -6 -17 -17t-32.5 -22.5t-49.5 -20t-68 -8.5q-44 0 -82.5 13.5t-68 41.5t-46.5 71.5t-17 104.5q0 46 14.5 86t43 70t69 47t93.5 17q47 0 78.5 -10.5
t51 -27t27.5 -37t8 -39.5q0 -29 -14.5 -46t-40.5 -17q-21 0 -30.5 10t-9.5 20q8 4 16.5 13t8.5 32q0 13 -4.5 26.5t-15.5 24t-30.5 17.5t-49.5 7q-64 0 -102 -49t-38 -140q0 -53 12.5 -90t33 -60t47.5 -33t56 -10q35 0 61.5 7t44.5 16t28.5 18t15.5 13z" />
    <glyph glyph-name="Ccaron" unicode="&#x10c;" horiz-adv-x="712" 
d="M378 725q-8 19 -20.5 39.5t-28 37.5t-33.5 28t-37 11q0 23 8.5 32.5t26.5 9.5q16 0 31 -12.5t28 -32t23.5 -43t17.5 -44.5q6 21 16 44.5t23 43t28.5 32t32.5 12.5q36 0 36 -42q-20 0 -38.5 -11t-34 -28t-28 -37.5t-19.5 -39.5h-32zM632 476q-4 19 -16 49.5t-38.5 60
t-70.5 51t-111 21.5q-55 0 -102.5 -20.5t-82.5 -61.5t-55 -104t-20 -147t22.5 -143t59 -96t83.5 -53.5t97 -16.5q62 0 105.5 17t72.5 44t45 59.5t23 63.5l28 -22l-34 -136q-8 -5 -27 -15.5t-48.5 -20.5t-70 -17.5t-91.5 -7.5q-79 0 -144.5 21.5t-112.5 65.5t-73 110t-26 156
q0 78 24 143t69.5 112t113 73t154.5 26q45 0 82 -5.5t64.5 -12.5t45.5 -14t26 -11l39 -145z" />
    <glyph glyph-name="ccaron" unicode="&#x10d;" horiz-adv-x="476" 
d="M245 497q-9 25 -24.5 52t-34.5 49.5t-41.5 37t-46.5 14.5q0 47 41 47q20 0 39 -16.5t34.5 -42t28 -55.5t20.5 -58q8 28 20.5 58t28.5 55.5t34.5 42t38.5 16.5q41 0 41 -47q-26 0 -48.5 -14.5t-41.5 -37t-33.5 -49.5t-23.5 -52h-32zM429 49q-5 -6 -17 -17t-32.5 -22.5
t-49.5 -20t-68 -8.5q-44 0 -82.5 13.5t-68 41.5t-46.5 71.5t-17 104.5q0 46 14.5 86t43 70t69 47t93.5 17q47 0 78.5 -10.5t51 -27t27.5 -37t8 -39.5q0 -29 -14.5 -46t-40.5 -17q-21 0 -30.5 10t-9.5 20q8 4 16.5 13t8.5 32q0 13 -4.5 26.5t-15.5 24t-30.5 17.5t-49.5 7
q-64 0 -102 -49t-38 -140q0 -53 12.5 -90t33 -60t47.5 -33t56 -10q35 0 61.5 7t44.5 16t28.5 18t15.5 13z" />
    <glyph glyph-name="Dcaron" unicode="&#x10e;" horiz-adv-x="749" 
d="M328 725q-8 19 -20.5 39.5t-28 37.5t-33.5 28t-37 11q0 23 8.5 32.5t26.5 9.5q16 0 31 -12.5t28 -32t23.5 -43t17.5 -44.5q6 21 16 44.5t23 43t28.5 32t32.5 12.5q36 0 36 -42q-20 0 -38.5 -11t-34 -28t-28 -37.5t-19.5 -39.5h-32zM45 680q25 -2 56.5 -3t66.5 -1
q28 0 48 2t38 4t37 4t46 2q90 0 159 -24.5t115 -70.5t69.5 -112t23.5 -148q0 -89 -26 -154t-73 -108t-112 -63.5t-143 -20.5q-29 0 -49 2t-38 4.5t-37 4.5t-45 2q-34 0 -70 -1.5t-58 -2.5l-17 25q48 0 73 3.5t42 8.5q2 21 3.5 48t3 63.5t2.5 83.5t1 108q0 71 -1 121.5
t-2.5 86t-3 57t-2.5 35.5q-5 2 -13.5 5t-22.5 5.5t-35 4.5t-51 2zM233 334q0 -57 0.5 -102t2 -80t2.5 -62.5t3 -50.5q15 -8 40 -14t63 -6q128 0 198.5 77.5t70.5 237.5q0 157 -75.5 238t-208.5 81q-32 0 -53 -4t-36 -10q0 -15 -1.5 -38.5t-2.5 -59.5t-2 -86.5t-1 -120.5z
" />
    <glyph glyph-name="dcaron" unicode="&#x10f;" horiz-adv-x="595" 
d="M302 699q65 -1 100 8t42 15l15 -15q-1 -11 -2 -26.5t-2 -43t-2 -70t-1.5 -106.5t-1 -153t-0.5 -209q0 -46 12 -62t32 -16q13 0 21.5 5t13.5 12.5t7.5 15.5t3.5 14q18 0 18 -23t-19 -43.5t-60 -20.5q-47 0 -68 26.5t-21 64.5h-4q-4 -8 -13.5 -23t-28 -30t-47.5 -26.5
t-71 -11.5q-33 0 -64.5 11.5t-57 38t-41 70t-15.5 108.5q0 54 14.5 96t41 70t62.5 42.5t79 14.5q33 0 57 -7t40.5 -16t26 -18t14.5 -13q0 109 -0.5 181.5t-2.5 102.5q-14 5 -36 9.5t-57 4.5zM495 475q4 16 8.5 40t8 52t6 59t2.5 62q28 0 49 4t31 8q-3 -36 -10 -71t-16 -67
t-19.5 -58t-19.5 -44zM383 324q-4 7 -13.5 20.5t-25.5 26t-38 22t-50 9.5t-52.5 -12t-42.5 -36t-28 -60.5t-10 -85.5q0 -50 10.5 -85.5t28 -58t41 -33t49.5 -10.5q28 0 49.5 9t37.5 21.5t26.5 27.5t15.5 27q1 26 1.5 84.5t0.5 133.5z" />
    <glyph glyph-name="Dcroat" unicode="&#x110;" horiz-adv-x="749" 
d="M41 319v34h120q0 44 -1 86t-2.5 78.5t-3 67t-2.5 51.5q-10 5 -40.5 11t-81.5 6l15 27q20 -2 56.5 -3t74.5 -1q23 0 42.5 2t37.5 4t36.5 4t38.5 2q93 0 162.5 -24.5t116.5 -70t70.5 -110t23.5 -144.5q0 -91 -26 -157.5t-72.5 -109.5t-110.5 -64t-140 -21q-32 0 -54 2
t-40.5 4.5t-37 4.5t-42.5 2q-34 0 -70 -1t-58 -3l-17 25q45 0 74.5 4t40.5 8q3 30 6 100t4 186h-120zM453 353v-34h-220q0 -116 3 -185t5 -95q11 -7 37 -13.5t64 -6.5q56 0 105 18.5t85.5 57t57.5 98.5t21 143q0 72 -20.5 130.5t-57.5 100t-89 64t-116 22.5q-32 0 -55 -4.5
t-33 -9.5q-1 -21 -2.5 -52t-2.5 -68t-1.5 -79t-0.5 -87h220z" />
    <glyph glyph-name="dcroat" unicode="&#x111;" horiz-adv-x="571" 
d="M48 209q0 54 14.5 96t41 70t62.5 42.5t79 14.5q27 0 50 -5t40.5 -13t29.5 -17.5t18 -18.5v144h-141v30h140q0 32 -0.5 62.5t-1.5 47.5q-11 5 -36 9.5t-57 4.5l15 23q66 0 100 7.5t42 15.5l15 -15q-1 -11 -2.5 -49t-2.5 -106h104v-30h-105q-2 -69 -2.5 -172t-0.5 -251
q0 -46 11.5 -62t32.5 -16q23 0 33.5 15t12.5 32q18 0 18 -22q0 -25 -19.5 -45t-62.5 -20q-23 0 -39 7.5t-26.5 20.5t-15.5 29.5t-5 33.5h-4q-6 -15 -18.5 -31t-31.5 -29.5t-44.5 -22t-56.5 -8.5q-37 0 -71 12t-59.5 39t-41 70.5t-15.5 106.5zM123 210q0 -50 10 -86t28 -59
t42.5 -33.5t52.5 -10.5q25 0 46 8t36.5 20.5t26.5 27.5t16 29q0 18 0.5 43.5t1 54t0.5 59v57.5q0 7 -9 21t-25.5 27.5t-40 23.5t-52.5 10q-28 0 -52.5 -12t-42.5 -36t-28 -60t-10 -84z" />
    <glyph glyph-name="Emacron" unicode="&#x112;" horiz-adv-x="600" 
d="M442 766h-247v55h247v-55zM45 680q31 -2 67 -3t87 -1q79 0 131.5 2t88 4.5t58.5 6t43 6.5l29 -157l-30 -23q-4 36 -9.5 60t-17 38.5t-29 20.5t-45.5 6l-175 2q-1 -14 -2.5 -35.5t-3.5 -55.5t-3 -82t-1 -115q23 -1 59.5 -2t84.5 -1q16 0 26 4.5t17 16t11 31.5t7 52l23 -10
q-4 -28 -6.5 -53.5t-2.5 -54.5q0 -31 1.5 -55t3.5 -48l-23 -10q-4 55 -14 77t-43 22q-45 0 -81.5 -1t-62.5 -2q0 -66 1 -112.5t2.5 -80t3.5 -56t4 -39.5l219 3q23 0 37 12t23 32t15 47.5t12 58.5l30 -22l-39 -182q-23 4 -48.5 7.5t-60 6t-80 4t-107.5 1.5q-72 0 -116 -1
t-76 -3l-17 25q48 0 74.5 4t40.5 8q4 40 7 112.5t3 194.5q0 127 -3.5 196.5t-5.5 99.5q-18 6 -45 11.5t-77 5.5z" />
    <glyph glyph-name="emacron" unicode="&#x113;" horiz-adv-x="477" 
d="M383 543h-247v55h247v-55zM48 213q0 49 14.5 89.5t42 69.5t66.5 44.5t89 15.5q46 0 77.5 -11.5t51.5 -31t29 -46t9 -55.5q0 -57 -59 -57h-245q0 -109 40.5 -158.5t110.5 -49.5q31 0 55.5 5.5t42.5 13t29.5 15t17.5 12.5l7 -28q-5 -4 -16.5 -14t-31 -20t-47.5 -18t-65 -8
q-49 0 -89 15t-68.5 44t-44.5 72.5t-16 100.5zM291 258q29 1 44.5 13.5t15.5 40.5q0 38 -20 64t-69 26q-28 0 -52.5 -11.5t-42.5 -31.5t-29.5 -47t-12.5 -58z" />
    <glyph glyph-name="Ebreve" unicode="&#x114;" horiz-adv-x="600" 
d="M441 868q0 -57 -29.5 -95.5t-91.5 -38.5t-91.5 38t-29.5 96l22 9q1 -16 7 -33t17 -31.5t29.5 -23.5t45.5 -9t45.5 9t29.5 23.5t16.5 31.5t7.5 33zM30 653q50 0 77 -5.5t45 -11.5q2 -30 5.5 -99.5t3.5 -196.5q0 -122 -3 -194.5t-7 -112.5q-14 -4 -40.5 -8t-74.5 -4l17 -25
q32 2 76 3t116 1q62 0 107.5 -1.5t80 -4t60 -6t48.5 -7.5l39 182l-30 22q-6 -31 -12 -58.5t-15 -47.5t-23 -32t-37 -12l-219 -3q-2 17 -4 39.5t-3.5 56t-2.5 80t-1 112.5q26 1 62.5 2t81.5 1q33 0 43 -22t14 -77l23 10q-2 24 -3.5 48t-1.5 55q0 29 2.5 54.5t6.5 53.5l-23 10
q-3 -32 -7 -52t-11 -31.5t-17 -16t-26 -4.5q-48 0 -84.5 1t-59.5 2q0 67 1 115t3 82t3.5 55.5t2.5 35.5l175 -2q28 0 45.5 -6t29 -20.5t17 -38.5t9.5 -60l30 23l-29 157q-20 -3 -43 -6.5t-58.5 -6t-88 -4.5t-131.5 -2q-51 0 -87 1t-67 3z" />
    <glyph glyph-name="ebreve" unicode="&#x115;" horiz-adv-x="477" 
d="M391 648q0 -30 -6.5 -57.5t-22 -47.5t-40.5 -32t-62 -12t-62 11.5t-40.5 32t-22 47.5t-6.5 58l20 9q1 -16 6.5 -35.5t17.5 -36.5t33 -28.5t54 -11.5t54 11.5t33 28.5t17 36.5t7 35.5zM48 213q0 49 14.5 89.5t42 69.5t66.5 44.5t89 15.5q46 0 77.5 -11.5t51.5 -31t29 -46
t9 -55.5q0 -57 -59 -57h-245q0 -109 40.5 -158.5t110.5 -49.5q31 0 55.5 5.5t42.5 13t29.5 15t17.5 12.5l7 -28q-5 -4 -16.5 -14t-31 -20t-47.5 -18t-65 -8q-49 0 -89 15t-68.5 44t-44.5 72.5t-16 100.5zM291 258q29 1 44.5 13.5t15.5 40.5q0 38 -20 64t-69 26
q-28 0 -52.5 -11.5t-42.5 -31.5t-29.5 -47t-12.5 -58z" />
    <glyph glyph-name="Edotaccent" unicode="&#x116;" horiz-adv-x="600" 
d="M269 797q0 23 14.5 38t36.5 15q23 0 36.5 -15t13.5 -38t-13.5 -37t-36.5 -14q-22 0 -36.5 14t-14.5 37zM45 680q31 -2 67 -3t87 -1q79 0 131.5 2t88 4.5t58.5 6t43 6.5l29 -157l-30 -23q-4 36 -9.5 60t-17 38.5t-29 20.5t-45.5 6l-175 2q-1 -14 -2.5 -35.5t-3.5 -55.5
t-3 -82t-1 -115q23 -1 59.5 -2t84.5 -1q16 0 26 4.5t17 16t11 31.5t7 52l23 -10q-4 -28 -6.5 -53.5t-2.5 -54.5q0 -31 1.5 -55t3.5 -48l-23 -10q-4 55 -14 77t-43 22q-45 0 -81.5 -1t-62.5 -2q0 -66 1 -112.5t2.5 -80t3.5 -56t4 -39.5l219 3q23 0 37 12t23 32t15 47.5
t12 58.5l30 -22l-39 -182q-23 4 -48.5 7.5t-60 6t-80 4t-107.5 1.5q-72 0 -116 -1t-76 -3l-17 25q48 0 74.5 4t40.5 8q4 40 7 112.5t3 194.5q0 127 -3.5 196.5t-5.5 99.5q-18 6 -45 11.5t-77 5.5z" />
    <glyph glyph-name="edotaccent" unicode="&#x117;" horiz-adv-x="477" 
d="M209 610q0 23 14.5 38t36.5 15q23 0 36.5 -15t13.5 -38t-13.5 -37t-36.5 -14q-22 0 -36.5 14t-14.5 37zM48 213q0 49 14.5 89.5t42 69.5t66.5 44.5t89 15.5q46 0 77.5 -11.5t51.5 -31t29 -46t9 -55.5q0 -57 -59 -57h-245q0 -109 40.5 -158.5t110.5 -49.5q31 0 55.5 5.5
t42.5 13t29.5 15t17.5 12.5l7 -28q-5 -4 -16.5 -14t-31 -20t-47.5 -18t-65 -8q-49 0 -89 15t-68.5 44t-44.5 72.5t-16 100.5zM291 258q29 1 44.5 13.5t15.5 40.5q0 38 -20 64t-69 26q-28 0 -52.5 -11.5t-42.5 -31.5t-29.5 -47t-12.5 -58z" />
    <glyph glyph-name="Eogonek" unicode="&#x118;" horiz-adv-x="600" 
d="M498 -12q-22 -22 -42.5 -57.5t-20.5 -80.5q0 -25 10.5 -35t28.5 -10q20 0 33 10t18 20q3 -2 6.5 -7t3.5 -13q0 -23 -22 -38t-66 -15q-39 0 -60.5 17.5t-21.5 55.5q0 25 9 48t24 42.5t33 36t36 30.5q-38 4 -90.5 6t-131.5 2q-72 0 -116 -1t-76 -3l-17 25q48 0 74.5 4
t40.5 8q4 40 7 112.5t3 194.5q0 127 -3.5 196.5t-5.5 99.5q-18 6 -45 11.5t-77 5.5l15 27q31 -2 67 -3t87 -1q79 0 131.5 2t88 4.5t58.5 6t43 6.5l29 -157l-30 -23q-4 36 -9.5 60t-17 38.5t-29 20.5t-45.5 6l-175 2q-1 -14 -2.5 -35.5t-3.5 -55.5t-3 -82t-1 -115
q23 -1 59.5 -2t84.5 -1q16 0 26 4.5t17 16t11 31.5t7 52l23 -10q-4 -28 -6.5 -53.5t-2.5 -54.5q0 -31 1.5 -55t3.5 -48l-23 -10q-4 55 -14 77t-43 22q-45 0 -81.5 -1t-62.5 -2q0 -66 1 -112.5t2.5 -80t3.5 -56t4 -39.5l219 3q23 0 37 12t23 32t15 47.5t12 58.5l30 -22
l-39 -182q-11 2 -21 3.5t-22 3.5z" />
    <glyph glyph-name="eogonek" unicode="&#x119;" horiz-adv-x="475" 
d="M426 41q-7 -7 -27 -26t-41.5 -45t-38 -57t-16.5 -63q0 -21 10 -30.5t27 -9.5q21 0 34.5 10t18.5 20q3 -2 6.5 -7t3.5 -13q0 -23 -22.5 -38t-67.5 -15q-38 0 -59 17.5t-21 55.5q0 24 11 46t27 41t35 35t36 30q-33 -11 -76 -11q-49 0 -89 15t-68.5 44t-44.5 72.5t-16 100.5
q0 49 14.5 89.5t42 69.5t66.5 44.5t89 15.5q46 0 77.5 -11.5t51.5 -31t29 -46t9 -55.5q0 -57 -59 -57h-245q0 -109 40.5 -158.5t110.5 -49.5q31 0 55.5 5.5t42.5 13t29.5 15t17.5 12.5zM262 402q-28 0 -52.5 -11.5t-42.5 -31.5t-29.5 -47t-12.5 -58l166 4q29 1 44.5 13.5
t15.5 40.5q0 38 -20 64t-69 26z" />
    <glyph glyph-name="Ecaron" unicode="&#x11a;" horiz-adv-x="600" 
d="M303 725q-8 19 -20.5 39.5t-28 37.5t-33.5 28t-37 11q0 23 8.5 32.5t26.5 9.5q16 0 31 -12.5t28 -32t23.5 -43t17.5 -44.5q6 21 16 44.5t23 43t28.5 32t32.5 12.5q36 0 36 -42q-20 0 -38.5 -11t-34 -28t-28 -37.5t-19.5 -39.5h-32zM45 680q31 -2 67 -3t87 -1
q79 0 131.5 2t88 4.5t58.5 6t43 6.5l29 -157l-30 -23q-4 36 -9.5 60t-17 38.5t-29 20.5t-45.5 6l-175 2q-1 -14 -2.5 -35.5t-3.5 -55.5t-3 -82t-1 -115q23 -1 59.5 -2t84.5 -1q16 0 26 4.5t17 16t11 31.5t7 52l23 -10q-4 -28 -6.5 -53.5t-2.5 -54.5q0 -31 1.5 -55t3.5 -48
l-23 -10q-4 55 -14 77t-43 22q-45 0 -81.5 -1t-62.5 -2q0 -66 1 -112.5t2.5 -80t3.5 -56t4 -39.5l219 3q23 0 37 12t23 32t15 47.5t12 58.5l30 -22l-39 -182q-23 4 -48.5 7.5t-60 6t-80 4t-107.5 1.5q-72 0 -116 -1t-76 -3l-17 25q48 0 74.5 4t40.5 8q4 40 7 112.5t3 194.5
q0 127 -3.5 196.5t-5.5 99.5q-18 6 -45 11.5t-77 5.5z" />
    <glyph glyph-name="ecaron" unicode="&#x11b;" horiz-adv-x="477" 
d="M244 497q-9 25 -24.5 52t-34.5 49.5t-41.5 37t-46.5 14.5q0 47 41 47q20 0 39 -16.5t34.5 -42t28 -55.5t20.5 -58q8 28 20.5 58t28.5 55.5t34.5 42t38.5 16.5q41 0 41 -47q-26 0 -48.5 -14.5t-41.5 -37t-33.5 -49.5t-23.5 -52h-32zM48 213q0 49 14.5 89.5t42 69.5
t66.5 44.5t89 15.5q46 0 77.5 -11.5t51.5 -31t29 -46t9 -55.5q0 -57 -59 -57h-245q0 -109 40.5 -158.5t110.5 -49.5q31 0 55.5 5.5t42.5 13t29.5 15t17.5 12.5l7 -28q-5 -4 -16.5 -14t-31 -20t-47.5 -18t-65 -8q-49 0 -89 15t-68.5 44t-44.5 72.5t-16 100.5zM291 258
q29 1 44.5 13.5t15.5 40.5q0 38 -20 64t-69 26q-28 0 -52.5 -11.5t-42.5 -31.5t-29.5 -47t-12.5 -58z" />
    <glyph glyph-name="Gcircumflex" unicode="&#x11c;" horiz-adv-x="776" 
d="M252 767q19 0 37 11t33.5 28t28 37.5t20.5 39.5h32q7 -19 19.5 -39.5t28 -37.5t34 -28t38.5 -11q0 -42 -36 -42q-17 0 -32.5 12.5t-28.5 32t-23 43t-16 44.5q-7 -21 -17.5 -44.5t-23.5 -43t-28 -32t-31 -12.5q-18 0 -26.5 9.5t-8.5 32.5zM632 476q-5 24 -19 55.5
t-41 59.5t-70.5 47.5t-107.5 19.5q-50 0 -96.5 -19.5t-82.5 -59t-57.5 -100.5t-21.5 -143t19.5 -142t53.5 -99.5t80.5 -59t100.5 -19.5q93 0 141.5 35.5t48.5 88.5q0 51 -1 74t-2 36q-17 5 -51 11.5t-72 6.5l13 27q25 -1 66.5 -2.5t81.5 -1.5q48 0 81 1.5l55 2.5l15 -27
q-34 0 -64.5 -6.5t-45.5 -11.5q-2 -14 -3 -37.5t-1 -76.5q0 -62 2 -100t3 -56l-22 -16q0 32 -7.5 56t-25.5 24q-12 0 -27.5 -10t-40.5 -21.5t-61.5 -21.5t-90.5 -10q-65 0 -125.5 19.5t-107.5 62.5t-75.5 110t-28.5 163q0 76 24 140.5t69 111.5t110.5 73.5t149.5 26.5
q49 0 87 -5t65.5 -12t45.5 -14.5t28 -11.5l39 -145z" />
    <glyph glyph-name="gcircumflex" unicode="&#x11d;" horiz-adv-x="458" 
d="M125 553q-18 0 -26.5 9.5t-8.5 32.5q19 0 37 11t33.5 28t28 37.5t20.5 39.5h32q7 -19 19.5 -39.5t28 -37.5t34 -28t38.5 -11q0 -42 -36 -42q-17 0 -32.5 12.5t-28.5 32t-23 43t-16 44.5q-7 -21 -17.5 -44.5t-23.5 -43t-28 -32t-31 -12.5zM400 427q3 1 9 6t6 17
q0 11 -6.5 18t-20.5 7q-18 0 -32 -15.5t-14 -47.5q0 -22 4.5 -36t9.5 -26.5t9.5 -27.5t4.5 -39q0 -32 -10.5 -56.5t-27 -41.5t-37.5 -28t-41 -17q-18 -5 -41 -12.5t-43.5 -16.5t-34 -20t-13.5 -23q0 -8 5.5 -13.5t19.5 -9.5t39.5 -6t66.5 -2q49 0 82 -9t52.5 -25t27.5 -37
t8 -46q0 -71 -51.5 -112t-145.5 -41q-83 0 -130.5 30t-47.5 94q0 37 17 54.5t38 17.5q14 0 21 -5t9 -10q-5 -3 -14 -15.5t-9 -42.5q0 -41 30.5 -65t93.5 -24q60 0 92.5 26t32.5 77q0 22 -6 38t-21 26.5t-40.5 15t-64.5 4.5q-93 0 -132.5 16t-39.5 46q0 19 12.5 33t33 24.5
t47 17t54.5 10.5v4q-16 0 -40 6.5t-46.5 23t-39 45t-16.5 73.5q0 31 10.5 57.5t30.5 46t48 30.5t64 11q25 0 44 -4.5t33 -11t23 -13.5t14 -12q-2 7 -4 16.5t-2 22.5q0 38 24.5 60.5t57.5 22.5q30 0 43.5 -14.5t13.5 -34.5t-11 -33t-29 -13q-16 0 -20 9zM219 166q35 0 61 33
t26 88q0 51 -24 84.5t-69 33.5q-39 0 -64 -30t-25 -85q0 -64 27.5 -94.5t67.5 -29.5z" />
    <glyph glyph-name="Gbreve" unicode="&#x11e;" horiz-adv-x="776" 
d="M509 868q0 -57 -29.5 -95.5t-91.5 -38.5t-91.5 38t-29.5 96l22 9q1 -16 7 -33t17 -31.5t29.5 -23.5t45.5 -9t45.5 9t29.5 23.5t16.5 31.5t7.5 33zM663 500l-39 145q-10 4 -28 11.5t-45.5 14.5t-65.5 12t-87 5q-84 0 -149.5 -26.5t-110.5 -73.5t-69 -111.5t-24 -140.5
q0 -96 28.5 -163t75.5 -110t107.5 -62.5t125.5 -19.5q54 0 90.5 10t61.5 21.5t40.5 21.5t27.5 10q18 0 25.5 -24t7.5 -56l22 16q-1 18 -3 56t-2 100q0 53 1 76.5t3 37.5q15 5 45.5 11.5t64.5 6.5l-15 27l-55 -2.5t-81 -1.5q-40 0 -81.5 1.5t-66.5 2.5l-13 -27q38 0 72 -6.5
t51 -11.5q1 -13 2 -36t1 -74q0 -53 -48.5 -88.5t-141.5 -35.5q-54 0 -100.5 19.5t-80.5 59t-53.5 99.5t-19.5 142t21.5 143t57.5 100.5t82.5 59t96.5 19.5q64 0 107.5 -19.5t70.5 -47.5t41 -59.5t19 -55.5z" />
    <glyph glyph-name="gbreve" unicode="&#x11f;" horiz-adv-x="458" 
d="M215 499q-37 0 -62 11.5t-40.5 32t-22 47.5t-6.5 58l20 9q1 -16 6.5 -35.5t17.5 -36.5t33 -28.5t54 -11.5t54 11.5t33 28.5t17 36.5t7 35.5l20 -9q0 -30 -6.5 -57.5t-22 -47.5t-40.5 -32t-62 -12zM400 427q3 1 9 6t6 17q0 11 -6.5 18t-20.5 7q-18 0 -32 -15.5t-14 -47.5
q0 -22 4.5 -36t9.5 -26.5t9.5 -27.5t4.5 -39q0 -32 -10.5 -56.5t-27 -41.5t-37.5 -28t-41 -17q-18 -5 -41 -12.5t-43.5 -16.5t-34 -20t-13.5 -23q0 -8 5.5 -13.5t19.5 -9.5t39.5 -6t66.5 -2q49 0 82 -9t52.5 -25t27.5 -37t8 -46q0 -71 -51.5 -112t-145.5 -41
q-83 0 -130.5 30t-47.5 94q0 37 17 54.5t38 17.5q14 0 21 -5t9 -10q-5 -3 -14 -15.5t-9 -42.5q0 -41 30.5 -65t93.5 -24q60 0 92.5 26t32.5 77q0 22 -6 38t-21 26.5t-40.5 15t-64.5 4.5q-93 0 -132.5 16t-39.5 46q0 19 12.5 33t33 24.5t47 17t54.5 10.5v4q-16 0 -40 6.5
t-46.5 23t-39 45t-16.5 73.5q0 31 10.5 57.5t30.5 46t48 30.5t64 11q25 0 44 -4.5t33 -11t23 -13.5t14 -12q-2 7 -4 16.5t-2 22.5q0 38 24.5 60.5t57.5 22.5q30 0 43.5 -14.5t13.5 -34.5t-11 -33t-29 -13q-16 0 -20 9zM219 166q35 0 61 33t26 88q0 51 -24 84.5t-69 33.5
q-39 0 -64 -30t-25 -85q0 -64 27.5 -94.5t67.5 -29.5z" />
    <glyph glyph-name="Gdotaccent" unicode="&#x120;" horiz-adv-x="776" 
d="M337 797q0 23 14.5 38t36.5 15q23 0 36.5 -15t13.5 -38t-13.5 -37t-36.5 -14q-22 0 -36.5 14t-14.5 37zM632 476q-5 24 -19 55.5t-41 59.5t-70.5 47.5t-107.5 19.5q-50 0 -96.5 -19.5t-82.5 -59t-57.5 -100.5t-21.5 -143t19.5 -142t53.5 -99.5t80.5 -59t100.5 -19.5
q93 0 141.5 35.5t48.5 88.5q0 51 -1 74t-2 36q-17 5 -51 11.5t-72 6.5l13 27q25 -1 66.5 -2.5t81.5 -1.5q48 0 81 1.5l55 2.5l15 -27q-34 0 -64.5 -6.5t-45.5 -11.5q-2 -14 -3 -37.5t-1 -76.5q0 -62 2 -100t3 -56l-22 -16q0 32 -7.5 56t-25.5 24q-12 0 -27.5 -10
t-40.5 -21.5t-61.5 -21.5t-90.5 -10q-65 0 -125.5 19.5t-107.5 62.5t-75.5 110t-28.5 163q0 76 24 140.5t69 111.5t110.5 73.5t149.5 26.5q49 0 87 -5t65.5 -12t45.5 -14.5t28 -11.5l39 -145z" />
    <glyph glyph-name="gdotaccent" unicode="&#x121;" horiz-adv-x="458" 
d="M215 559q-22 0 -36.5 14t-14.5 37t14.5 38t36.5 15q23 0 36.5 -15t13.5 -38t-13.5 -37t-36.5 -14zM400 427q3 1 9 6t6 17q0 11 -6.5 18t-20.5 7q-18 0 -32 -15.5t-14 -47.5q0 -22 4.5 -36t9.5 -26.5t9.5 -27.5t4.5 -39q0 -32 -10.5 -56.5t-27 -41.5t-37.5 -28t-41 -17
q-18 -5 -41 -12.5t-43.5 -16.5t-34 -20t-13.5 -23q0 -8 5.5 -13.5t19.5 -9.5t39.5 -6t66.5 -2q49 0 82 -9t52.5 -25t27.5 -37t8 -46q0 -71 -51.5 -112t-145.5 -41q-83 0 -130.5 30t-47.5 94q0 37 17 54.5t38 17.5q14 0 21 -5t9 -10q-5 -3 -14 -15.5t-9 -42.5q0 -41 30.5 -65
t93.5 -24q60 0 92.5 26t32.5 77q0 22 -6 38t-21 26.5t-40.5 15t-64.5 4.5q-93 0 -132.5 16t-39.5 46q0 19 12.5 33t33 24.5t47 17t54.5 10.5v4q-16 0 -40 6.5t-46.5 23t-39 45t-16.5 73.5q0 31 10.5 57.5t30.5 46t48 30.5t64 11q25 0 44 -4.5t33 -11t23 -13.5t14 -12
q-2 7 -4 16.5t-2 22.5q0 38 24.5 60.5t57.5 22.5q30 0 43.5 -14.5t13.5 -34.5t-11 -33t-29 -13q-16 0 -20 9zM219 166q35 0 61 33t26 88q0 51 -24 84.5t-69 33.5q-39 0 -64 -30t-25 -85q0 -64 27.5 -94.5t67.5 -29.5z" />
    <glyph glyph-name="Gcommaaccent" unicode="&#x122;" horiz-adv-x="776" 
d="M632 476q-5 24 -19 55.5t-41 59.5t-70.5 47.5t-107.5 19.5q-50 0 -96.5 -19.5t-82.5 -59t-57.5 -100.5t-21.5 -143t19.5 -142t53.5 -99.5t80.5 -59t100.5 -19.5q93 0 141.5 35.5t48.5 88.5q0 51 -1 74t-2 36q-17 5 -51 11.5t-72 6.5l13 27q25 -1 66.5 -2.5t81.5 -1.5
q48 0 81 1.5l55 2.5l15 -27q-34 0 -64.5 -6.5t-45.5 -11.5q-2 -14 -3 -37.5t-1 -76.5q0 -62 2 -100t3 -56l-22 -16q0 32 -7.5 56t-25.5 24q-12 0 -27.5 -10t-40.5 -21.5t-61.5 -21.5t-90.5 -10q-65 0 -125.5 19.5t-107.5 62.5t-75.5 110t-28.5 163q0 76 24 140.5t69 111.5
t110.5 73.5t149.5 26.5q49 0 87 -5t65.5 -12t45.5 -14.5t28 -11.5l39 -145zM329 -124q0 26 14.5 41t41.5 15q28 0 44.5 -20.5t16.5 -55.5q0 -38 -11 -63t-27 -39.5t-35.5 -20.5t-35.5 -6l-8 20q15 0 30 5.5t27 16.5t19.5 29t7.5 42q-4 -5 -12.5 -10t-22.5 -5
q-22 0 -35.5 13.5t-13.5 37.5z" />
    <glyph glyph-name="gcommaaccent" unicode="&#x123;" horiz-adv-x="458" 
d="M218 488q-28 0 -44.5 20.5t-16.5 55.5q0 38 11 63t27 39.5t35 20.5t36 6l8 -20q-15 0 -30 -5.5t-27 -16.5t-19.5 -29t-7.5 -42q4 5 12.5 10t22.5 5q22 0 35.5 -13.5t13.5 -37.5q0 -26 -14.5 -41t-41.5 -15zM400 427q3 1 9 6t6 17q0 11 -6.5 18t-20.5 7q-18 0 -32 -15.5
t-14 -47.5q0 -22 4.5 -36t9.5 -26.5t9.5 -27.5t4.5 -39q0 -32 -10.5 -56.5t-27 -41.5t-37.5 -28t-41 -17q-18 -5 -41 -12.5t-43.5 -16.5t-34 -20t-13.5 -23q0 -8 5.5 -13.5t19.5 -9.5t39.5 -6t66.5 -2q49 0 82 -9t52.5 -25t27.5 -37t8 -46q0 -71 -51.5 -112t-145.5 -41
q-83 0 -130.5 30t-47.5 94q0 37 17 54.5t38 17.5q14 0 21 -5t9 -10q-5 -3 -14 -15.5t-9 -42.5q0 -41 30.5 -65t93.5 -24q60 0 92.5 26t32.5 77q0 22 -6 38t-21 26.5t-40.5 15t-64.5 4.5q-93 0 -132.5 16t-39.5 46q0 19 12.5 33t33 24.5t47 17t54.5 10.5v4q-16 0 -40 6.5
t-46.5 23t-39 45t-16.5 73.5q0 31 10.5 57.5t30.5 46t48 30.5t64 11q25 0 44 -4.5t33 -11t23 -13.5t14 -12q-2 7 -4 16.5t-2 22.5q0 38 24.5 60.5t57.5 22.5q30 0 43.5 -14.5t13.5 -34.5t-11 -33t-29 -13q-16 0 -20 9zM219 166q35 0 61 33t26 88q0 51 -24 84.5t-69 33.5
q-39 0 -64 -30t-25 -85q0 -64 27.5 -94.5t67.5 -29.5z" />
    <glyph glyph-name="Hcircumflex" unicode="&#x124;" horiz-adv-x="848" 
d="M288 767q19 0 37 11t33.5 28t28 37.5t20.5 39.5h32q7 -19 19.5 -39.5t28 -37.5t34 -28t38.5 -11q0 -42 -36 -42q-17 0 -32.5 12.5t-28.5 32t-23 43t-16 44.5q-7 -21 -17.5 -44.5t-23.5 -43t-28 -32t-31 -12.5q-18 0 -26.5 9.5t-8.5 32.5zM45 680q19 -2 55.5 -3t95.5 -1
q60 0 93.5 1t59.5 3l15 -27q-48 0 -76.5 -5.5t-45.5 -11.5q-1 -14 -2.5 -34t-3 -57.5t-2.5 -97t-1 -150.5q6 12 14.5 24.5t20 23t27 17.5t36.5 7q28 0 51.5 -3t46.5 -6t47 -6t51 -3q36 0 56.5 7.5t31.5 18.5q0 64 -1 108t-2.5 73.5t-3 47.5l-2.5 30q-8 3 -18 6t-24.5 5.5
t-33.5 4t-46 1.5l15 27q23 -2 57 -3t91 -1q31 0 54.5 0.5t41.5 1t32 1t28 1.5l15 -27q-46 0 -76 -6t-46 -11q-1 -13 -2.5 -31t-3 -50t-2.5 -83.5t-1 -131.5q0 -66 0.5 -113.5t2 -83t3 -61.5t4.5 -49q14 -5 42 -8.5t73 -3.5l-17 -25l-148 4l-140 -4l-17 25q25 0 43 1t31 2.5
t22.5 4t18.5 4.5q2 38 6 122t4 221q-3 -7 -10 -19t-19 -23.5t-29.5 -20t-42.5 -8.5q-29 0 -53.5 3t-47 6l-45 6t-47.5 3q-22 0 -37 -3t-25 -7t-16 -9t-10 -8q0 -69 1 -115t2.5 -75t3.5 -46t3 -27q13 -5 38.5 -8.5t76.5 -3.5l-17 -25l-148 4l-140 -4l-17 25q52 0 76 4t39 8
q1 12 3 29.5t3.5 51t2.5 87.5t1 139q0 77 -1 128t-2.5 83.5t-3 51.5t-2.5 33q-11 5 -40 11t-82 6z" />
    <glyph glyph-name="hcircumflex" unicode="&#x125;" horiz-adv-x="589" 
d="M9 767q19 0 37 11t33.5 28t28 37.5t20.5 39.5h32q7 -19 19.5 -39.5t28 -37.5t34 -28t38.5 -11q0 -42 -36 -42q-17 0 -32.5 12.5t-28.5 32t-23 43t-16 44.5q-7 -21 -17.5 -44.5t-23.5 -43t-28 -32t-31 -12.5q-18 0 -26.5 9.5t-8.5 32.5zM33 699q61 0 90.5 9t39.5 14
l19 -15q-2 -19 -3 -44t-2.5 -64.5t-2 -97t-0.5 -141.5q7 7 19 19.5t31 24t44.5 20t59.5 8.5q83 0 117 -34.5t34 -95.5q0 -78 0.5 -126.5t1 -78t1.5 -44t1 -24.5q29 -8 78 -8l-17 -25l-99 4l-100 -4l-17 25q19 0 31.5 0.5t21 2t14.5 2.5t11 3q1 10 1.5 24t1 40t1 69.5
t0.5 112.5q0 60 -25.5 89t-79.5 29q-25 0 -46 -9t-37.5 -22t-28.5 -27.5t-19 -24.5v-185.5t1 -95.5q8 -2 27.5 -5t54.5 -3l-17 -25l-105 4l-94 -4l-18 25q31 0 51 3t28 5q1 16 1.5 38t1 53t1 73.5t0.5 100.5q0 85 -1 144.5t-2 101.5t-2.5 70t-2.5 49q-14 5 -35 11t-45 6z
" />
    <glyph glyph-name="Hbar" unicode="&#x126;" horiz-adv-x="848" 
d="M696 636q-1 -16 -2.5 -39.5t-3.5 -72.5h128v-34h-129q-1 -29 -1.5 -65.5t-0.5 -84.5q0 -66 0.5 -113.5t2 -83t3 -61.5t4.5 -49q14 -5 42 -8.5t73 -3.5l-17 -25l-148 4l-140 -4l-17 25q25 0 43 1t31 2.5t22.5 4t18.5 4.5q2 38 6 122t4 221q-3 -7 -10 -19t-19 -23.5
t-29.5 -20t-42.5 -8.5q-29 0 -53.5 3t-47 6l-45 6t-47.5 3q-22 0 -37 -3t-25 -7t-16 -9t-10 -8q0 -69 1 -115t2.5 -75t3.5 -46t3 -27q13 -5 38.5 -8.5t76.5 -3.5l-17 -25l-148 4l-140 -4l-17 25q52 0 76 4t39 8q1 12 3 29.5t3.5 51t2.5 87.5t1 139q0 48 -0.5 84.5t-0.5 65.5
h-130v34h129q-2 47 -3.5 71t-3.5 41q-11 5 -40 11t-82 6l15 27q19 -2 55.5 -3t95.5 -1q60 0 93.5 1t59.5 3l15 -27q-48 0 -76.5 -5.5t-45.5 -11.5q-1 -15 -2.5 -39.5t-3.5 -72.5h377q-2 47 -4 71.5t-3 40.5q-8 3 -18 6t-24.5 5.5t-33.5 4t-46 1.5l15 27q23 -2 57 -3t91 -1
q31 0 54.5 0.5t41.5 1t32 1t28 1.5l15 -27q-46 0 -76 -6t-46 -11zM615 377v62t-1 51h-379q-1 -35 -1.5 -82.5t-0.5 -110.5q6 12 14.5 24.5t20 23t27 17.5t36.5 7q28 0 51.5 -3t46.5 -6t47 -6t51 -3q36 0 56.5 7.5t31.5 18.5z" />
    <glyph glyph-name="hbar" unicode="&#x127;" horiz-adv-x="589" 
d="M33 699q51 0 84.5 7.5t45.5 15.5l19 -15q-2 -15 -3.5 -55t-3.5 -100h165v-30h-165q0 -26 -0.5 -71t-0.5 -91q8 12 22.5 24.5t34.5 23t44.5 17.5t52.5 7q83 0 117 -34.5t34 -95.5q0 -128 1 -194t3 -79q10 -2 30 -5t48 -3l-17 -25l-99 4l-100 -4l-17 25q32 0 51.5 3t26.5 5
q2 14 3 74.5t1 171.5q0 60 -25.5 89t-79.5 29q-27 0 -49.5 -8.5t-39 -22t-27.5 -29t-15 -29.5q0 -121 0.5 -189t0.5 -86q10 -2 31.5 -5t50.5 -3l-17 -25l-105 4l-94 -4l-18 25q28 0 48.5 3t30.5 5q2 25 3 93.5t1 171.5v69t-0.5 64t-1 54.5t-0.5 40.5h-80v30h80
q-1 42 -2.5 69.5t-3.5 37.5q-14 5 -36.5 11t-43.5 6z" />
    <glyph glyph-name="Imacron" unicode="&#x12a;" horiz-adv-x="394" 
d="M319 766h-247v55h247v-55zM45 680q22 -2 60 -3t92 -1q32 0 55 0.5t40 1t30 1t27 1.5l15 -27q-57 0 -84 -7t-38 -10q-3 -16 -5 -48t-2.5 -74.5t-1 -92.5t-0.5 -101q0 -66 1.5 -114t3 -82t3 -56t2.5 -35q9 -3 33.5 -7.5t81.5 -4.5l-17 -25l-148 4l-140 -4l-17 25
q48 0 77 4.5t38 7.5q1 12 2.5 32.5t3 54.5t3 82.5t1.5 117.5q0 51 -0.5 101t-1.5 92.5t-3 74.5t-4 48q-5 1 -13.5 4t-22.5 6t-35 5t-51 2z" />
    <glyph glyph-name="imacron" unicode="&#x12b;" horiz-adv-x="305" 
d="M272 543h-247v55h247v-55zM59 401q31 0 54.5 6.5t39 16t23.5 20t8 18.5l18 -14q-3 -30 -8 -89.5t-5 -156.5q0 -38 1 -66.5t2 -49t2 -34.5t2 -23q8 -2 28 -5t51 -3l-17 -25l-99 4l-104 -4l-17 25q30 0 48.5 2.5t30.5 5.5q1 11 2.5 25t2.5 34t1.5 48t0.5 66q0 66 -1 103
t-3 54q-6 5 -23 12t-49 7z" />
    <glyph glyph-name="Ibreve" unicode="&#x12c;" horiz-adv-x="394" 
d="M318 868q0 -57 -29.5 -95.5t-91.5 -38.5t-91.5 38t-29.5 96l22 9q1 -16 7 -33t17 -31.5t29.5 -23.5t45.5 -9t45.5 9t29.5 23.5t16.5 31.5t7.5 33zM30 653q30 0 51 -2t35 -5t22.5 -6t13.5 -4q2 -16 4 -48t3 -74.5t1.5 -92.5t0.5 -101q0 -69 -1.5 -117.5t-3 -82.5t-3 -54.5
t-2.5 -32.5q-9 -3 -38 -7.5t-77 -4.5l17 -25l140 4l148 -4l17 25q-57 0 -81.5 4.5t-33.5 7.5q-1 13 -2.5 35t-3 56t-3 82t-1.5 114q0 51 0.5 101t1 92.5t2.5 74.5t5 48q11 3 38 10t84 7l-15 27q-14 -1 -27 -1.5t-30 -1t-40 -1t-55 -0.5q-54 0 -92 1t-60 3z" />
    <glyph glyph-name="ibreve" unicode="&#x12d;" horiz-adv-x="305" 
d="M280 648q0 -30 -6.5 -57.5t-22 -47.5t-40.5 -32t-62 -12t-62 11.5t-40.5 32t-22 47.5t-6.5 58l20 9q1 -16 6.5 -35.5t17.5 -36.5t33 -28.5t54 -11.5t54 11.5t33 28.5t17 36.5t7 35.5zM59 401q31 0 54.5 6.5t39 16t23.5 20t8 18.5l18 -14q-3 -30 -8 -89.5t-5 -156.5
q0 -38 1 -66.5t2 -49t2 -34.5t2 -23q8 -2 28 -5t51 -3l-17 -25l-99 4l-104 -4l-17 25q30 0 48.5 2.5t30.5 5.5q1 11 2.5 25t2.5 34t1.5 48t0.5 66q0 66 -1 103t-3 54q-6 5 -23 12t-49 7z" />
    <glyph glyph-name="Iogonek" unicode="&#x12e;" horiz-adv-x="394" 
d="M233 320q0 -66 1.5 -114t3 -82t3 -56t2.5 -35q9 -3 33.5 -7.5t81.5 -4.5l-17 -25l-101 3q-12 -10 -25 -25t-24 -34t-18.5 -42t-7.5 -48t10.5 -35t28.5 -10q20 0 33 10t18 20q3 -2 6.5 -7t3.5 -13q0 -23 -22 -38t-66 -15q-39 0 -60.5 17.5t-21.5 55.5q0 27 10.5 51.5
t27 45t36.5 37.5t38 31h-14l-140 -4l-17 25q48 0 77 4.5t38 7.5q1 12 2.5 32.5t3 54.5t3 82.5t1.5 117.5q0 51 -0.5 101t-1.5 92.5t-3 74.5t-4 48q-5 1 -13.5 4t-22.5 6t-35 5t-51 2l15 27q22 -2 60 -3t92 -1q32 0 55 0.5t40 1t30 1t27 1.5l15 -27q-57 0 -84 -7t-38 -10
q-3 -16 -5 -48t-2.5 -74.5t-1 -92.5t-0.5 -101z" />
    <glyph glyph-name="iogonek" unicode="&#x12f;" horiz-adv-x="305" 
d="M149 559q-22 0 -36.5 14t-14.5 37t14.5 38t36.5 15q23 0 36.5 -15t13.5 -38t-13.5 -37t-36.5 -14zM195 -1q-12 -11 -25.5 -27t-25 -35.5t-19 -42.5t-7.5 -49q0 -21 10 -30.5t26 -9.5q21 0 35 10t19 20q3 -2 6.5 -7t3.5 -13q0 -23 -21.5 -38t-61.5 -15q-87 0 -87 73
q0 27 12 51.5t30 45.5t39 38t38 30h-8l-104 -4l-17 25q30 0 48.5 2.5t30.5 5.5q1 11 2.5 25t2.5 34t1.5 48t0.5 66q0 66 -1 103t-3 54q-6 5 -23 12t-49 7l11 23q31 0 54.5 6.5t39 16t23.5 20t8 18.5l18 -14q-3 -30 -8 -89.5t-5 -156.5q0 -38 1 -66.5t2 -49t2 -34.5t2 -23
q8 -2 28 -5t51 -3l-17 -25z" />
    <glyph glyph-name="Idotaccent" unicode="&#x130;" horiz-adv-x="394" 
d="M146 797q0 23 14.5 38t36.5 15q23 0 36.5 -15t13.5 -38t-13.5 -37t-36.5 -14q-22 0 -36.5 14t-14.5 37zM45 680q22 -2 60 -3t92 -1q32 0 55 0.5t40 1t30 1t27 1.5l15 -27q-57 0 -84 -7t-38 -10q-3 -16 -5 -48t-2.5 -74.5t-1 -92.5t-0.5 -101q0 -66 1.5 -114t3 -82t3 -56
t2.5 -35q9 -3 33.5 -7.5t81.5 -4.5l-17 -25l-148 4l-140 -4l-17 25q48 0 77 4.5t38 7.5q1 12 2.5 32.5t3 54.5t3 82.5t1.5 117.5q0 51 -0.5 101t-1.5 92.5t-3 74.5t-4 48q-5 1 -13.5 4t-22.5 6t-35 5t-51 2z" />
    <glyph glyph-name="dotlessi" unicode="&#x131;" horiz-adv-x="305" 
d="M59 401q31 0 54.5 6.5t39 16t23.5 20t8 18.5l18 -14q-3 -30 -8 -89.5t-5 -156.5q0 -38 1 -66.5t2 -49t2 -34.5t2 -23q8 -2 28 -5t51 -3l-17 -25l-99 4l-104 -4l-17 25q30 0 48.5 2.5t30.5 5.5q1 11 2.5 25t2.5 34t1.5 48t0.5 66q0 66 -1 103t-3 54q-6 5 -23 12t-49 7z
" />
    <glyph glyph-name="IJ" unicode="&#x132;" horiz-adv-x="748" 
d="M45 680q22 -2 60 -3t92 -1q32 0 55 0.5t40 1t30 1t27 1.5l15 -27q-57 0 -84 -7t-38 -10q-3 -16 -5 -48t-2.5 -74.5t-1 -92.5t-0.5 -101q0 -66 1.5 -114t3 -82t3 -56t2.5 -35q9 -3 33.5 -7.5t81.5 -4.5l-17 -25l-148 4l-140 -4l-17 25q48 0 77 4.5t38 7.5q1 12 2.5 32.5
t3 54.5t3 82.5t1.5 117.5q0 51 -0.5 101t-1.5 92.5t-3 74.5t-4 48q-5 1 -13.5 4t-22.5 6t-35 5t-51 2zM432 680q28 -2 66.5 -3t93.5 -1q33 0 55.5 0.5t39.5 1t31.5 1t29.5 1.5l15 -27q-53 0 -80 -6t-42 -11q-2 -19 -3.5 -40.5t-2.5 -54.5t-2 -81.5t-1 -121.5q0 -84 1 -137.5
t2.5 -91.5t2.5 -67t1 -62q0 -103 -51 -159t-139 -56q-72 0 -111 25.5t-39 75.5q0 33 18.5 51.5t45.5 18.5q25 0 35.5 -11t12.5 -19q-7 -2 -18.5 -12.5t-11.5 -35.5q0 -35 21.5 -50.5t50.5 -15.5q22 0 41 7.5t33 28.5t22.5 58.5t8.5 97.5q0 47 -0.5 109.5t-1 130t-1.5 134.5
t-1.5 123.5t-1.5 97.5t-1 57q-21 5 -55 11t-79 6z" />
    <glyph glyph-name="ij" unicode="&#x133;" horiz-adv-x="537" 
d="M98 610q0 23 14.5 38t36.5 15q23 0 36.5 -15t13.5 -38t-13.5 -37t-36.5 -14q-22 0 -36.5 14t-14.5 37zM354 610q0 23 14.5 38t36.5 15q23 0 36.5 -15t13.5 -38t-13.5 -37t-36.5 -14q-22 0 -36.5 14t-14.5 37zM59 401q31 0 54.5 6.5t39 16t23.5 20t8 18.5l18 -14
q-3 -30 -8 -89.5t-5 -156.5q0 -38 1 -66.5t2 -49t2 -34.5t2 -23q8 -2 28 -5t51 -3l-17 -25l-99 4l-104 -4l-17 25q30 0 48.5 2.5t30.5 5.5q1 11 2.5 25t2.5 34t1.5 48t0.5 66q0 66 -1 103t-3 54q-6 5 -23 12t-49 7zM306 401q43 0 70.5 8t43.5 18.5t22 20.5t6 14l19 -15
q-5 -23 -9.5 -66t-4.5 -106q0 -41 1 -82.5t1.5 -81t1.5 -75t1 -63.5q0 -100 -41 -153t-118 -53q-54 0 -81.5 23.5t-27.5 61.5q0 29 16 45.5t39 16.5q20 0 28 -9.5t8 -14.5q-5 0 -16.5 -9.5t-11.5 -34.5q0 -24 14 -36.5t39 -12.5q20 0 36 8.5t27 28.5t17 53t6 83
q0 108 -1 179.5t-2.5 116t-3.5 66.5t-3 31q-11 4 -31.5 9.5t-55.5 5.5z" />
    <glyph glyph-name="Jcircumflex" unicode="&#x134;" horiz-adv-x="389" 
d="M97 767q19 0 37 11t33.5 28t28 37.5t20.5 39.5h32q7 -19 19.5 -39.5t28 -37.5t34 -28t38.5 -11q0 -42 -36 -42q-17 0 -32.5 12.5t-28.5 32t-23 43t-16 44.5q-7 -21 -17.5 -44.5t-23.5 -43t-28 -32t-31 -12.5q-18 0 -26.5 9.5t-8.5 32.5zM73 680q28 -2 66.5 -3t93.5 -1
q33 0 55.5 0.5t39.5 1t31.5 1t29.5 1.5l15 -27q-53 0 -80 -6t-42 -11q-2 -19 -3.5 -40.5t-2.5 -54.5t-2 -81.5t-1 -121.5q0 -84 1 -137.5t2.5 -91.5t2.5 -67t1 -62q0 -103 -51 -159t-139 -56q-72 0 -111 25.5t-39 75.5q0 33 18.5 51.5t45.5 18.5q25 0 35.5 -11t12.5 -19
q-7 -2 -18.5 -12.5t-11.5 -35.5q0 -35 21.5 -50.5t50.5 -15.5q22 0 41 7.5t33 28.5t22.5 58.5t8.5 97.5q0 47 -0.5 109.5t-1 130t-1.5 134.5t-1.5 123.5t-1.5 97.5t-1 57q-21 5 -55 11t-79 6z" />
    <glyph glyph-name="jcircumflex" unicode="&#x135;" horiz-adv-x="277" 
d="M161 710q9 -25 23.5 -52t33.5 -49.5t41.5 -37t48.5 -14.5q0 -47 -41 -47q-20 0 -38.5 16.5t-34.5 42t-28.5 55.5t-20.5 58q-9 -28 -22 -58t-29 -55.5t-34 -42t-37 -16.5q-41 0 -41 47q24 0 46.5 14.5t41.5 37t34.5 49.5t24.5 52h32zM46 401q43 0 70.5 8t43.5 18.5
t22 20.5t6 14l19 -15q-5 -23 -9.5 -66t-4.5 -106q0 -41 1 -82.5t1.5 -81t1.5 -75t1 -63.5q0 -100 -41 -153t-118 -53q-54 0 -81.5 23.5t-27.5 61.5q0 29 16 45.5t39 16.5q20 0 28 -9.5t8 -14.5q-5 0 -16.5 -9.5t-11.5 -34.5q0 -24 14 -36.5t39 -12.5q20 0 36 8.5t27 28.5
t17 53t6 83q0 108 -1 179.5t-2.5 116t-3.5 66.5t-3 31q-11 4 -31.5 9.5t-55.5 5.5z" />
    <glyph glyph-name="Kcommaaccent" unicode="&#x136;" horiz-adv-x="751" 
d="M45 680q26 -2 63.5 -3t82.5 -1h35.5t42.5 0.5t43 1.5t37 2l15 -27q-43 0 -75.5 -5.5t-46.5 -11.5q-4 -38 -6.5 -112t-2.5 -187t2.5 -192.5t7.5 -111.5q7 -3 19.5 -5.5t28 -4t33 -2t34.5 -0.5l-17 -25l-148 4l-140 -4l-17 25q13 0 29.5 0.5t32.5 2t30 4t23 5.5
q5 32 7.5 111.5t2.5 192.5q0 112 -2.5 186t-6.5 113q-14 6 -46.5 11.5t-75.5 5.5zM271 335q57 53 106 102t86 88.5t58 67t21 38.5q0 10 -24 16t-93 6l15 27q14 -1 32.5 -2t37.5 -1.5t36 -0.5h28q23 0 56.5 1t70.5 3l15 -27q-48 0 -75.5 -6t-38.5 -17l-252 -264v-4
q12 -13 36.5 -39t55 -58.5t64 -68t63 -66.5t52.5 -54.5t33 -31.5q7 -6 15 -10.5t19.5 -7.5t29 -4t43.5 -1l-15 -25l-151 4l-155 -4l-15 25q57 0 86.5 4t29.5 11q0 5 -17.5 27.5t-44 53t-59 65.5t-62.5 66.5t-53.5 55t-33.5 31.5zM335 -124q0 26 14.5 41t41.5 15
q28 0 44.5 -20.5t16.5 -55.5q0 -38 -11 -63t-27 -39.5t-35.5 -20.5t-35.5 -6l-8 20q15 0 30 5.5t27 16.5t19.5 29t7.5 42q-4 -5 -12.5 -10t-22.5 -5q-22 0 -35.5 13.5t-13.5 37.5z" />
    <glyph glyph-name="kcommaaccent" unicode="&#x137;" horiz-adv-x="541" 
d="M33 699q35 0 59.5 2.5t40.5 6t25 7.5t13 7l19 -15q-2 -16 -4 -45.5t-3.5 -76t-3 -111.5t-1.5 -153q0 -75 1.5 -125.5t3 -83.5t3.5 -51.5t4 -30.5q12 -3 33 -6t45 -3l-17 -25l-103 4l-107 -4l-17 25q27 0 47.5 3.5t34.5 5.5q1 11 2 30t2 52t2 83.5t1 125.5q0 95 -1 155
t-2 96t-2 54.5t-2 30.5q-9 5 -30.5 12t-57.5 7zM194 243q41 0 71 10q10 12 26 33t31.5 42t26.5 38t11 22q0 8 -21.5 10.5t-53.5 2.5l19 27q11 -2 33.5 -5t58.5 -3t58.5 3t33.5 5l15 -28q-45 0 -62 -3.5t-24 -11.5l-120 -134l172 -221q11 -3 33.5 -6t45.5 -3l-18 -25l-107 4
l-107 -4l-17 25q49 0 64.5 2t15.5 7q0 9 -14.5 32t-34.5 51t-41 55.5t-34 44.5q-4 2 -13.5 4.5t-23.5 2.5q-11 0 -19 -1t-13 -2zM238 -124q0 26 14.5 41t41.5 15q28 0 44.5 -20.5t16.5 -55.5q0 -38 -11 -63t-27 -39.5t-35.5 -20.5t-35.5 -6l-8 20q15 0 30 5.5t27 16.5
t19.5 29t7.5 42q-4 -5 -12.5 -10t-22.5 -5q-22 0 -35.5 13.5t-13.5 37.5z" />
    <glyph glyph-name="kgreenlandic" unicode="&#x138;" horiz-adv-x="552" 
d="M51 404q61 0 92 9.5t38 18.5l19 -15q-2 -15 -4 -37.5t-4 -49.5t-3 -57.5t-1 -61.5q0 -63 3 -111t5 -70q11 -3 33 -6t45 -3l-17 -25l-99 4l-103 -4l-17 25q21 0 44 3t37 6q2 21 3 68t1 113q0 55 -1.5 93.5t-3.5 54.5q-5 7 -22.5 14.5t-52.5 7.5zM205 223q29 0 47.5 4
t24.5 8q15 22 31.5 46.5t30.5 47t23 39t9 21.5q0 12 -75 12l19 27q10 -2 34 -5t58 -3t58 3t34 5l15 -27q-45 0 -62.5 -4t-23.5 -12l-120 -154l172 -201q11 -3 32.5 -6t46.5 -3l-18 -25l-107 4l-107 -4l-17 25q49 0 64.5 2t15.5 7q0 7 -12 25t-30 41.5t-40 49t-42 47.5
q-4 2 -13.5 4.5t-23.5 2.5q-10 0 -18.5 -1t-13.5 -2z" />
    <glyph glyph-name="Lacute" unicode="&#x139;" horiz-adv-x="590" 
d="M138 740q37 18 62.5 40.5t41.5 45t22.5 41.5t6.5 30q18 0 27.5 -10.5t9.5 -27.5q0 -36 -39.5 -74.5t-118.5 -71.5zM451 35q26 0 41.5 10.5t25.5 30t17 48.5t15 66l30 -22l-39 -187q-17 4 -42.5 7.5t-63 6t-88.5 4t-119 1.5q-65 0 -112.5 -1t-62.5 -3l-17 25
q40 0 70.5 3.5t44.5 8.5q5 34 7.5 113t2.5 191t-2.5 186t-6.5 113q-15 7 -47.5 12t-74.5 5l15 27q26 -2 67.5 -3t86.5 -1h35.5t40 0.5t40 1.5t34.5 2l15 -27q-44 0 -76 -5.5t-46 -11.5q-4 -35 -6.5 -105.5t-2.5 -184.5q0 -87 1.5 -142.5t3.5 -90t4 -52t3 -29.5z" />
    <glyph glyph-name="lacute" unicode="&#x13a;" horiz-adv-x="303" 
d="M61 744q37 18 62.5 40.5t41.5 45t22.5 41.5t6.5 30q18 0 27.5 -10.5t9.5 -27.5q0 -36 -39.5 -74.5t-118.5 -71.5zM33 699q35 0 59.5 2.5t40.5 6t25 7.5t13 7l19 -15q-2 -13 -4 -41.5t-3.5 -75t-3 -112.5t-1.5 -156q0 -68 1 -116.5t3 -82.5t4 -56.5t4 -37.5q14 -2 37 -5
t53 -3l-18 -25l-118 4l-107 -4l-17 25q26 0 48.5 3l37.5 5q1 18 2.5 40t2.5 55.5t1.5 81.5t0.5 116q0 87 -1 145.5t-2 97t-2 60.5t-2 36q-8 4 -27.5 9.5t-60.5 5.5z" />
    <glyph glyph-name="Lcommaaccent" unicode="&#x13b;" horiz-adv-x="590" 
d="M451 35q26 0 41.5 10.5t25.5 30t17 48.5t15 66l30 -22l-39 -187q-17 4 -42.5 7.5t-63 6t-88.5 4t-119 1.5q-65 0 -112.5 -1t-62.5 -3l-17 25q40 0 70.5 3.5t44.5 8.5q5 34 7.5 113t2.5 191t-2.5 186t-6.5 113q-15 7 -47.5 12t-74.5 5l15 27q26 -2 67.5 -3t86.5 -1h35.5
t40 0.5t40 1.5t34.5 2l15 -27q-44 0 -76 -5.5t-46 -11.5q-4 -35 -6.5 -105.5t-2.5 -184.5q0 -87 1.5 -142.5t3.5 -90t4 -52t3 -29.5zM261 -124q0 26 14.5 41t41.5 15q28 0 44.5 -20.5t16.5 -55.5q0 -38 -11 -63t-27 -39.5t-35.5 -20.5t-35.5 -6l-8 20q15 0 30 5.5t27 16.5
t19.5 29t7.5 42q-4 -5 -12.5 -10t-22.5 -5q-22 0 -35.5 13.5t-13.5 37.5z" />
    <glyph glyph-name="lcommaaccent" unicode="&#x13c;" horiz-adv-x="303" 
d="M33 699q35 0 59.5 2.5t40.5 6t25 7.5t13 7l19 -15q-2 -13 -4 -41.5t-3.5 -75t-3 -112.5t-1.5 -156q0 -68 1 -116.5t3 -82.5t4 -56.5t4 -37.5q14 -2 37 -5t53 -3l-18 -25l-118 4l-107 -4l-17 25q26 0 48.5 3l37.5 5q1 18 2.5 40t2.5 55.5t1.5 81.5t0.5 116q0 87 -1 145.5
t-2 97t-2 60.5t-2 36q-8 4 -27.5 9.5t-60.5 5.5zM93 -124q0 26 14.5 41t41.5 15q28 0 44.5 -20.5t16.5 -55.5q0 -38 -11 -63t-27 -39.5t-35.5 -20.5t-35.5 -6l-8 20q15 0 30 5.5t27 16.5t19.5 29t7.5 42q-4 -5 -12.5 -10t-22.5 -5q-22 0 -35.5 13.5t-13.5 37.5z" />
    <glyph glyph-name="Lcaron" unicode="&#x13d;" horiz-adv-x="590" 
d="M375 475q4 16 8.5 40t8 52t6 59t2.5 62q28 0 49 4t31 8q-3 -36 -10 -71t-16 -67t-19.5 -58t-19.5 -44zM451 35q26 0 41.5 10.5t25.5 30t17 48.5t15 66l30 -22l-39 -187q-17 4 -42.5 7.5t-63 6t-88.5 4t-119 1.5q-65 0 -112.5 -1t-62.5 -3l-17 25q40 0 70.5 3.5t44.5 8.5
q5 34 7.5 113t2.5 191t-2.5 186t-6.5 113q-15 7 -47.5 12t-74.5 5l15 27q26 -2 67.5 -3t86.5 -1h35.5t40 0.5t40 1.5t34.5 2l15 -27q-44 0 -76 -5.5t-46 -11.5q-4 -35 -6.5 -105.5t-2.5 -184.5q0 -87 1.5 -142.5t3.5 -90t4 -52t3 -29.5z" />
    <glyph glyph-name="lcaron" unicode="&#x13e;" horiz-adv-x="325" 
d="M33 699q35 0 59.5 2.5t40.5 6t25 7.5t13 7l19 -15q-2 -13 -4 -41.5t-3.5 -75t-3 -112.5t-1.5 -156q0 -68 1 -116.5t3 -82.5t4 -56.5t4 -37.5q14 -2 37 -5t53 -3l-18 -25l-118 4l-107 -4l-17 25q26 0 48.5 3l37.5 5q1 18 2.5 40t2.5 55.5t1.5 81.5t0.5 116q0 87 -1 145.5
t-2 97t-2 60.5t-2 36q-8 4 -27.5 9.5t-60.5 5.5zM225 475q4 16 8.5 40t8 52t6 59t2.5 62q28 0 49 4t31 8q-3 -36 -10 -71t-16 -67t-19.5 -58t-19.5 -44z" />
    <glyph glyph-name="Ldot" unicode="&#x13f;" horiz-adv-x="590" 
d="M451 35q26 0 41.5 10.5t25.5 30t17 48.5t15 66l30 -22l-39 -187q-17 4 -42.5 7.5t-63 6t-88.5 4t-119 1.5q-65 0 -112.5 -1t-62.5 -3l-17 25q40 0 70.5 3.5t44.5 8.5q5 34 7.5 113t2.5 191t-2.5 186t-6.5 113q-15 7 -47.5 12t-74.5 5l15 27q26 -2 67.5 -3t86.5 -1h35.5
t40 0.5t40 1.5t34.5 2l15 -27q-44 0 -76 -5.5t-46 -11.5q-4 -35 -6.5 -105.5t-2.5 -184.5q0 -87 1.5 -142.5t3.5 -90t4 -52t3 -29.5zM365 318q0 26 17 44t43 18t43 -18t17 -44t-17 -43t-43 -17t-43 17t-17 43z" />
    <glyph glyph-name="ldot" unicode="&#x140;" horiz-adv-x="385" 
d="M33 699q35 0 59.5 2.5t40.5 6t25 7.5t13 7l19 -15q-2 -13 -4 -41.5t-3.5 -75t-3 -112.5t-1.5 -156q0 -68 1 -116.5t3 -82.5t4 -56.5t4 -37.5q14 -2 37 -5t53 -3l-18 -25l-118 4l-107 -4l-17 25q26 0 48.5 3l37.5 5q1 18 2.5 40t2.5 55.5t1.5 81.5t0.5 116q0 87 -1 145.5
t-2 97t-2 60.5t-2 36q-8 4 -27.5 9.5t-60.5 5.5zM250 248q0 26 17 44t43 18t43 -18t17 -44t-17 -43t-43 -17t-43 17t-17 43z" />
    <glyph glyph-name="Lslash" unicode="&#x141;" horiz-adv-x="590" 
d="M541 -19q-17 4 -42.5 7.5t-63 6t-88.5 4t-119 1.5q-65 0 -112.5 -1t-62.5 -3l-17 25q40 0 70.5 3.5t44.5 8.5q4 26 6 80.5t3 130.5l-123 -84v40l124 84v53q0 112 -2.5 186t-6.5 113q-15 7 -47.5 12t-74.5 5l15 27q26 -2 67.5 -3t86.5 -1h35.5t40 0.5t40 1.5t34.5 2
l15 -27q-44 0 -76 -5.5t-46 -11.5q-4 -35 -6.5 -105.5t-2.5 -184.5v-28l183 117v-40l-183 -119q1 -65 2.5 -107t3 -69t3.5 -42.5t3 -25.5l206 3q26 0 41.5 10.5t25.5 30t17 48.5t15 66l30 -22z" />
    <glyph glyph-name="lslash" unicode="&#x142;" horiz-adv-x="313" 
d="M43 699q63 0 96.5 7.5t41.5 15.5l19 -15q-4 -31 -8 -113.5t-5 -203.5l103 53v-43l-102 -53q0 -130 4 -207t8 -111q16 -2 41.5 -5t48.5 -3l-18 -25l-118 4l-107 -4l-17 25q21 0 45.5 3t40.5 5q2 34 4.5 112t3.5 183l-94 -50v43l93 51q0 139 -2.5 209.5t-4.5 83.5
q-9 5 -31.5 10t-56.5 5z" />
    <glyph glyph-name="Nacute" unicode="&#x143;" horiz-adv-x="839" 
d="M358 740q37 18 62.5 40.5t41.5 45t22.5 41.5t6.5 30q18 0 27.5 -10.5t9.5 -27.5q0 -36 -39.5 -74.5t-118.5 -71.5zM45 680q32 -2 67.5 -3t56.5 -1q29 0 53 1t41 3q91 -137 159 -238t114.5 -170t72.5 -107.5t34 -49.5q1 34 2 65t1.5 61t1 60.5t0.5 62.5q0 100 -1.5 170
t-3.5 102q-14 6 -46 11.5t-76 5.5l15 27q29 -2 64.5 -3t68.5 -1q36 0 68 1t67 3l15 -27q-42 0 -74.5 -5t-47.5 -12q-5 -38 -8 -104.5t-3 -167.5q0 -77 1.5 -140.5t3 -111t3.5 -77.5t3 -40q-10 2 -26.5 3.5t-44.5 1.5l-423 624q-2 -47 -4 -121t-2 -170q0 -110 2.5 -188
t6.5 -112q23 -6 48.5 -9t66.5 -3l-17 -25l-127 4l-124 -4l-17 25q38 0 67 2.5t48 9.5q3 27 5.5 100.5t2.5 205.5q0 115 -2 190.5t-5 104.5q-14 9 -48.5 14t-73.5 5z" />
    <glyph glyph-name="nacute" unicode="&#x144;" horiz-adv-x="601" 
d="M201 504q58 32 92 66t51.5 63.5t22.5 50.5t5 27q22 0 33.5 -12t11.5 -32q0 -25 -15 -50.5t-41.5 -49.5t-63.5 -47t-81 -42zM50 401q34 0 56.5 5.5t35.5 14.5t18 20t5 21l19 -15q-3 -15 -5 -43.5t-2 -58.5q10 15 24 30t34.5 28t48 21t63.5 8q70 0 107.5 -31.5t37.5 -100.5
q0 -57 0.5 -99t1 -74t1 -55.5t1.5 -42.5q14 -3 35.5 -5.5t41.5 -2.5l-17 -25l-99 4l-95 -4l-18 25q20 0 41 2.5t34 5.5q1 35 2.5 94t1.5 155q0 52 -22.5 83.5t-80.5 31.5q-45 0 -78 -23t-54 -64q-1 -24 -1 -49.5v-57.5q0 -60 0.5 -102t1.5 -68q12 -3 33 -5.5t44 -2.5
l-17 -25l-95 4l-99 -4l-17 25q23 0 44.5 2.5t32.5 5.5q2 26 3 65.5t1 102.5q0 70 -1 103.5t-3 47.5q-7 11 -25 20.5t-47 9.5z" />
    <glyph glyph-name="Ncommaaccent" unicode="&#x145;" horiz-adv-x="839" 
d="M45 680q32 -2 67.5 -3t56.5 -1q29 0 53 1t41 3q91 -137 159 -238t114.5 -170t72.5 -107.5t34 -49.5q1 34 2 65t1.5 61t1 60.5t0.5 62.5q0 100 -1.5 170t-3.5 102q-14 6 -46 11.5t-76 5.5l15 27q29 -2 64.5 -3t68.5 -1q36 0 68 1t67 3l15 -27q-42 0 -74.5 -5t-47.5 -12
q-5 -38 -8 -104.5t-3 -167.5q0 -77 1.5 -140.5t3 -111t3.5 -77.5t3 -40q-10 2 -26.5 3.5t-44.5 1.5l-423 624q-2 -47 -4 -121t-2 -170q0 -110 2.5 -188t6.5 -112q23 -6 48.5 -9t66.5 -3l-17 -25l-127 4l-124 -4l-17 25q38 0 67 2.5t48 9.5q3 27 5.5 100.5t2.5 205.5
q0 115 -2 190.5t-5 104.5q-14 9 -48.5 14t-73.5 5zM376 -124q0 26 14.5 41t41.5 15q28 0 44.5 -20.5t16.5 -55.5q0 -38 -11 -63t-27 -39.5t-35.5 -20.5t-35.5 -6l-8 20q15 0 30 5.5t27 16.5t19.5 29t7.5 42q-4 -5 -12.5 -10t-22.5 -5q-22 0 -35.5 13.5t-13.5 37.5z" />
    <glyph glyph-name="ncommaaccent" unicode="&#x146;" horiz-adv-x="601" 
d="M50 401q34 0 56.5 5.5t35.5 14.5t18 20t5 21l19 -15q-3 -15 -5 -43.5t-2 -58.5q10 15 24 30t34.5 28t48 21t63.5 8q70 0 107.5 -31.5t37.5 -100.5q0 -57 0.5 -99t1 -74t1 -55.5t1.5 -42.5q14 -3 35.5 -5.5t41.5 -2.5l-17 -25l-99 4l-95 -4l-18 25q20 0 41 2.5t34 5.5
q1 35 2.5 94t1.5 155q0 52 -22.5 83.5t-80.5 31.5q-45 0 -78 -23t-54 -64q-1 -24 -1 -49.5v-57.5q0 -60 0.5 -102t1.5 -68q12 -3 33 -5.5t44 -2.5l-17 -25l-95 4l-99 -4l-17 25q23 0 44.5 2.5t32.5 5.5q2 26 3 65.5t1 102.5q0 70 -1 103.5t-3 47.5q-7 11 -25 20.5t-47 9.5z
M242 -124q0 26 14.5 41t41.5 15q28 0 44.5 -20.5t16.5 -55.5q0 -38 -11 -63t-27 -39.5t-35.5 -20.5t-35.5 -6l-8 20q15 0 30 5.5t27 16.5t19.5 29t7.5 42q-4 -5 -12.5 -10t-22.5 -5q-22 0 -35.5 13.5t-13.5 37.5z" />
    <glyph glyph-name="Ncaron" unicode="&#x147;" horiz-adv-x="839" 
d="M413 725q-8 19 -20.5 39.5t-28 37.5t-33.5 28t-37 11q0 23 8.5 32.5t26.5 9.5q16 0 31 -12.5t28 -32t23.5 -43t17.5 -44.5q6 21 16 44.5t23 43t28.5 32t32.5 12.5q36 0 36 -42q-20 0 -38.5 -11t-34 -28t-28 -37.5t-19.5 -39.5h-32zM45 680q32 -2 67.5 -3t56.5 -1
q29 0 53 1t41 3q91 -137 159 -238t114.5 -170t72.5 -107.5t34 -49.5q1 34 2 65t1.5 61t1 60.5t0.5 62.5q0 100 -1.5 170t-3.5 102q-14 6 -46 11.5t-76 5.5l15 27q29 -2 64.5 -3t68.5 -1q36 0 68 1t67 3l15 -27q-42 0 -74.5 -5t-47.5 -12q-5 -38 -8 -104.5t-3 -167.5
q0 -77 1.5 -140.5t3 -111t3.5 -77.5t3 -40q-10 2 -26.5 3.5t-44.5 1.5l-423 624q-2 -47 -4 -121t-2 -170q0 -110 2.5 -188t6.5 -112q23 -6 48.5 -9t66.5 -3l-17 -25l-127 4l-124 -4l-17 25q38 0 67 2.5t48 9.5q3 27 5.5 100.5t2.5 205.5q0 115 -2 190.5t-5 104.5
q-14 9 -48.5 14t-73.5 5z" />
    <glyph glyph-name="ncaron" unicode="&#x148;" horiz-adv-x="601" 
d="M285 497q-9 25 -24.5 52t-34.5 49.5t-41.5 37t-46.5 14.5q0 47 41 47q20 0 39 -16.5t34.5 -42t28 -55.5t20.5 -58q8 28 20.5 58t28.5 55.5t34.5 42t38.5 16.5q41 0 41 -47q-26 0 -48.5 -14.5t-41.5 -37t-33.5 -49.5t-23.5 -52h-32zM50 401q34 0 56.5 5.5t35.5 14.5t18 20
t5 21l19 -15q-3 -15 -5 -43.5t-2 -58.5q10 15 24 30t34.5 28t48 21t63.5 8q70 0 107.5 -31.5t37.5 -100.5q0 -57 0.5 -99t1 -74t1 -55.5t1.5 -42.5q14 -3 35.5 -5.5t41.5 -2.5l-17 -25l-99 4l-95 -4l-18 25q20 0 41 2.5t34 5.5q1 35 2.5 94t1.5 155q0 52 -22.5 83.5
t-80.5 31.5q-45 0 -78 -23t-54 -64q-1 -24 -1 -49.5v-57.5q0 -60 0.5 -102t1.5 -68q12 -3 33 -5.5t44 -2.5l-17 -25l-95 4l-99 -4l-17 25q23 0 44.5 2.5t32.5 5.5q2 26 3 65.5t1 102.5q0 70 -1 103.5t-3 47.5q-7 11 -25 20.5t-47 9.5z" />
    <glyph glyph-name="napostrophe" unicode="&#x149;" horiz-adv-x="601" 
d="M63 457q0 81 -5.5 142.5t-10.5 88.5q32 0 52 4t28 8q0 -34 -2.5 -67.5t-6.5 -63.5t-8.5 -55t-8.5 -41zM43 378q29 0 47 -9.5t25 -20.5q2 -14 3 -47.5t1 -103.5q0 -63 -1 -102.5t-3 -65.5q-11 -3 -32.5 -5.5t-44.5 -2.5l17 -25l99 4l95 -4l17 25q-23 0 -44 2.5t-33 5.5
q-1 26 -1.5 68t-0.5 102v57.5t1 49.5q21 41 54 64t78 23q58 0 80.5 -31.5t22.5 -83.5q0 -96 -1.5 -155t-2.5 -94q-13 -3 -34 -5.5t-41 -2.5l18 -25l95 4l99 -4l17 25q-20 0 -41.5 2.5t-35.5 5.5q-1 19 -1.5 42.5t-1 55.5t-1 74t-0.5 99q0 69 -37.5 100.5t-107.5 31.5
q-36 0 -63.5 -8t-48 -21t-34.5 -28t-24 -30q0 30 2 58.5t5 43.5l-19 15q0 -10 -5 -21t-18 -20t-35.5 -14.5t-56.5 -5.5z" />
    </font>
</defs>
</svg>
